<svg width="75" height="75" viewBox="0 0 75 75" fill="none" xmlns="http://www.w3.org/2000/svg">
<g clip-path="url(#clip0)">
<path d="M8.63685 27.4726C8.85086 27.6866 9.13181 27.7942 9.41277 27.7942C9.69372 27.7942 9.97467 27.6872 10.1892 27.4726C10.6178 27.0441 10.6178 26.3488 10.1892 25.9202L7.52391 23.2549L10.1892 20.5901C10.6178 20.161 10.6178 19.4663 10.1892 19.0377C9.76067 18.6092 9.06544 18.6092 8.63685 19.0377L5.1956 22.479C4.98961 22.685 4.87402 22.9642 4.87402 23.2549C4.87402 23.5462 4.98961 23.8254 5.1956 24.0314L8.63685 27.4726Z" fill="#EF8B54"/>
<path d="M19.5294 23.2549L16.8641 25.9202C16.4355 26.3488 16.4355 27.044 16.8647 27.4726C17.0787 27.6866 17.3596 27.7942 17.6406 27.7942C17.9215 27.7942 18.2025 27.6866 18.4165 27.4726L21.8583 24.0308C22.2869 23.6022 22.2869 22.907 21.8583 22.479L18.4165 19.0371C17.9879 18.6086 17.2932 18.6086 16.8647 19.0371C16.4355 19.4663 16.4355 20.161 16.8647 20.5895L19.5294 23.2549Z" fill="#EF8B54"/>
<path d="M11.8904 27.7181C12.022 27.7696 12.1582 27.7942 12.2915 27.7942C12.7298 27.7942 13.1436 27.5298 13.3135 27.0978L16.0172 20.2147C16.2392 19.6505 15.9611 19.0137 15.3969 18.7917C14.8333 18.5702 14.1958 18.8477 13.9744 19.4119L11.2701 26.295C11.0487 26.8592 11.3262 27.4966 11.8904 27.7181Z" fill="#EF8B54"/>
<path d="M6.59298 34.2339H13.9876C14.5936 34.2339 15.0851 33.7424 15.0851 33.1358C15.0851 32.5299 14.5936 32.0383 13.9876 32.0383H6.59298C5.98644 32.0383 5.49548 32.5299 5.49548 33.1358C5.49548 33.7424 5.98644 34.2339 6.59298 34.2339Z" fill="#EF8B54"/>
<path d="M31.0187 32.0383H18.0181C17.4122 32.0383 16.9207 32.5299 16.9207 33.1358C16.9207 33.7424 17.4122 34.2339 18.0181 34.2339H31.0187C31.6252 34.2339 32.1168 33.7424 32.1168 33.1358C32.1168 32.5299 31.6252 32.0383 31.0187 32.0383Z" fill="#EF8B54"/>
<path d="M6.59298 38.8635H9.74298C10.3489 38.8635 10.8405 38.372 10.8405 37.7654C10.8405 37.1595 10.3489 36.668 9.74298 36.668H6.59298C5.98644 36.668 5.49548 37.1595 5.49548 37.7654C5.49548 38.372 5.98644 38.8635 6.59298 38.8635Z" fill="#EF8B54"/>
<path d="M27.0031 36.668C26.3966 36.668 25.9056 37.1595 25.9056 37.7654C25.9056 38.372 26.3966 38.8635 27.0031 38.8635H28.9211C29.5277 38.8635 30.0192 38.372 30.0192 37.7654C30.0192 37.1595 29.5277 36.668 28.9211 36.668H27.0031Z" fill="#EF8B54"/>
<path d="M24.114 37.7654C24.114 37.1595 23.6225 36.668 23.0166 36.668H13.5946C12.9881 36.668 12.4971 37.1595 12.4971 37.7654C12.4971 38.372 12.9881 38.8635 13.5946 38.8635H23.0166C23.6225 38.8635 24.114 38.372 24.114 37.7654Z" fill="#EF8B54"/>
<path d="M31.3043 37.7654C31.3043 38.372 31.7958 38.8635 32.4018 38.8635H35.9947C36.6012 38.8635 37.0927 38.372 37.0927 37.7654C37.0927 37.1595 36.6012 36.668 35.9947 36.668H32.4018C31.7958 36.668 31.3043 37.1595 31.3043 37.7654Z" fill="#EF8B54"/>
<path d="M25.3266 24.1355H29.1163C29.7228 24.1355 30.2144 23.644 30.2144 23.0374C30.2144 22.4315 29.7228 21.9399 29.1163 21.9399H25.3266C24.72 21.9399 24.2285 22.4315 24.2285 23.0374C24.2285 23.644 24.72 24.1355 25.3266 24.1355Z" fill="#EF8B54"/>
<path d="M33.3609 24.1355H56.4844C57.0909 24.1355 57.5819 23.644 57.5819 23.0374C57.5819 22.4315 57.0909 21.9399 56.4844 21.9399H33.3609C32.7544 21.9399 32.2628 22.4315 32.2628 23.0374C32.2628 23.644 32.7544 24.1355 33.3609 24.1355Z" fill="#EF8B54"/>
<path d="M52.9721 26.7694H43.6051C42.9991 26.7694 42.5076 27.2609 42.5076 27.8675C42.5076 28.4734 42.9991 28.965 43.6051 28.965H52.9721C53.5781 28.965 54.0696 28.4734 54.0696 27.8675C54.0696 27.2609 53.5781 26.7694 52.9721 26.7694Z" fill="#EF8B54"/>
<path d="M40.0927 26.7694H36.8729C36.2663 26.7694 35.7754 27.2609 35.7754 27.8675C35.7754 28.4734 36.2663 28.965 36.8729 28.965H40.0927C40.6992 28.965 41.1902 28.4734 41.1902 27.8675C41.1902 27.2609 40.6992 26.7694 40.0927 26.7694Z" fill="#EF8B54"/>
<path d="M25.3266 28.965H33.2144C33.8204 28.965 34.3119 28.4734 34.3119 27.8675C34.3119 27.2609 33.8204 26.7694 33.2144 26.7694H25.3266C24.72 26.7694 24.2285 27.2609 24.2285 27.8675C24.2285 28.4734 24.72 28.965 25.3266 28.965Z" fill="#EF8B54"/>
<path d="M23.0301 41.2588H15.6361C15.0295 41.2588 14.538 41.7503 14.538 42.3563C14.538 42.9622 15.0295 43.4538 15.6361 43.4538H23.0301C23.6361 43.4538 24.1276 42.9622 24.1276 42.3563C24.1276 41.7503 23.6361 41.2588 23.0301 41.2588Z" fill="#EF8B54"/>
<path d="M12.2738 41.2588H6.59298C5.98644 41.2588 5.49548 41.7503 5.49548 42.3563C5.49548 42.9622 5.98644 43.4538 6.59298 43.4538H12.2738C12.8804 43.4538 13.3713 42.9622 13.3713 42.3563C13.3713 41.7503 12.8804 41.2588 12.2738 41.2588Z" fill="#EF8B54"/>
<path d="M36.4342 41.2588H26.7748C26.1682 41.2588 25.6773 41.7503 25.6773 42.3563C25.6773 42.9622 26.1682 43.4538 26.7748 43.4538H36.4342C37.0402 43.4538 37.5317 42.9622 37.5317 42.3563C37.5317 41.7503 37.0402 41.2588 36.4342 41.2588Z" fill="#EF8B54"/>
<path d="M49.4971 35.6204H44.215C43.609 35.6204 43.1175 36.1119 43.1175 36.7179C43.1175 37.3244 43.609 37.8159 44.215 37.8159H49.4971C50.1036 37.8159 50.5946 37.3244 50.5946 36.7179C50.5946 36.1119 50.1036 35.6204 49.4971 35.6204Z" fill="#EF8B54"/>
<path d="M58.6626 37.8159H66.1191C66.7256 37.8159 67.2171 37.3244 67.2171 36.7179C67.2171 36.1119 66.7256 35.6204 66.1191 35.6204H58.6626C58.0561 35.6204 57.5652 36.1119 57.5652 36.7179C57.5652 37.3244 58.0567 37.8159 58.6626 37.8159Z" fill="#EF8B54"/>
<path d="M54.9341 35.6204H53.2255C52.619 35.6204 52.1274 36.1119 52.1274 36.7179C52.1274 37.3244 52.619 37.8159 53.2255 37.8159H54.9341C55.5407 37.8159 56.0316 37.3244 56.0316 36.7179C56.0316 36.1119 55.5407 35.6204 54.9341 35.6204Z" fill="#EF8B54"/>
<path d="M44.215 49.7773H49.4971C50.1036 49.7773 50.5946 49.2863 50.5946 48.6798C50.5946 48.0738 50.1036 47.5823 49.4971 47.5823H44.215C43.609 47.5823 43.1175 48.0738 43.1175 48.6798C43.1175 49.2863 43.609 49.7773 44.215 49.7773Z" fill="#EF8B54"/>
<path d="M58.6626 49.7773H66.1191C66.7256 49.7773 67.2171 49.2863 67.2171 48.6798C67.2171 48.0738 66.7256 47.5823 66.1191 47.5823H58.6626C58.0561 47.5823 57.5652 48.0738 57.5652 48.6798C57.5652 49.2863 58.0567 49.7773 58.6626 49.7773Z" fill="#EF8B54"/>
<path d="M53.2256 49.7773H54.9342C55.5408 49.7773 56.0323 49.2863 56.0323 48.6798C56.0323 48.0738 55.5408 47.5823 54.9342 47.5823H53.2256C52.6191 47.5823 52.1281 48.0738 52.1281 48.6798C52.1281 49.2863 52.6191 49.7773 53.2256 49.7773Z" fill="#EF8B54"/>
<path d="M49.4971 59.5443H44.215C43.609 59.5443 43.1175 60.0358 43.1175 60.6418C43.1175 61.2478 43.609 61.7393 44.215 61.7393H49.4971C50.1036 61.7393 50.5946 61.2478 50.5946 60.6418C50.5946 60.0358 50.1036 59.5443 49.4971 59.5443Z" fill="#EF8B54"/>
<path d="M66.1191 59.5443H58.6626C58.0561 59.5443 57.5652 60.0358 57.5652 60.6418C57.5652 61.2478 58.0561 61.7393 58.6626 61.7393H66.1191C66.7256 61.7393 67.2171 61.2478 67.2171 60.6418C67.2171 60.0358 66.7256 59.5443 66.1191 59.5443Z" fill="#EF8B54"/>
<path d="M54.9341 59.5443H53.2255C52.619 59.5443 52.1274 60.0358 52.1274 60.6418C52.1274 61.2478 52.619 61.7393 53.2255 61.7393H54.9341C55.5407 61.7393 56.0316 61.2478 56.0316 60.6418C56.0316 60.0358 55.5407 59.5443 54.9341 59.5443Z" fill="#EF8B54"/>
<path d="M70.1697 0.146362H4.83114C2.16752 0.146362 0 2.31331 0 4.9775V58.088C0 60.7516 2.16752 62.9186 4.83114 62.9186H8.9619C9.56787 62.9186 10.0594 62.4276 10.0594 61.8211C10.0594 61.2151 9.56787 60.7236 8.9619 60.7236H4.83114C3.37774 60.7236 2.19556 59.5414 2.19556 58.088V53.9241H42.1854V55.8158H41.315C40.1243 55.8158 39.1561 56.784 39.1561 57.9747V60.7236H15.6355C15.0296 60.7236 14.5381 61.2151 14.5381 61.8211C14.5381 62.4276 15.0296 62.9186 15.6355 62.9186H26.1893V66.8554H22.8751C20.6641 66.8554 18.8657 68.6544 18.8657 70.8648V73.2361C18.8657 74.2449 19.6862 75.0654 20.695 75.0654H54.2217C55.2305 75.0654 56.0511 74.2449 56.0511 73.2361V70.8648C56.0511 68.6544 54.2526 66.8554 52.0416 66.8554H48.7274V65.4678H69.0196C70.2098 65.4678 71.1779 64.4996 71.1779 63.3088V62.7921C73.3174 62.2955 74.9167 60.3757 74.9167 58.088L74.9997 4.97693C75.0003 2.31331 72.8333 0.146362 70.1697 0.146362ZM41.3517 51.3108V46.0494H68.983V51.3108H41.3517ZM44.3804 43.8538V41.5444H65.9537V43.8538H44.3804ZM65.9537 53.5058V55.8158H44.3804V53.5058H65.9537ZM28.3843 62.9186H39.1561V63.3094C39.1561 64.4996 40.1243 65.4678 41.315 65.4678H46.5324V66.8554H28.3843V62.9186ZM52.0422 69.0509C53.0424 69.0509 53.8561 69.8646 53.8561 70.8648V72.8704H21.0606V70.8648C21.0606 69.8646 21.8749 69.0509 22.8751 69.0509H52.0422ZM68.983 63.2722H41.3517V58.0113H68.983V63.2722ZM72.7218 58.088C72.7218 59.1512 72.0878 60.0673 71.1785 60.4833V57.9742C71.1785 56.784 70.2098 55.8158 69.0196 55.8158H68.1493V53.9241H72.7218V58.088ZM72.7218 51.7291H71.1425C71.1648 51.6049 71.1785 46.0127 71.1785 46.0127C71.1785 44.822 70.2098 43.8538 69.0196 43.8538H68.1493V41.5444H69.0196C70.2098 41.5444 71.1785 40.5756 71.1785 39.3854V34.0508C71.1785 32.8606 70.2098 31.8918 69.0196 31.8918H62.8197C62.2132 31.8918 61.7222 32.3834 61.7222 32.9899C61.7222 33.5959 62.2132 34.0874 62.8197 34.0874H68.983V39.3488H41.3517V34.0874H55.9899C56.5964 34.0874 57.0873 33.5959 57.0873 32.9899C57.0873 32.3834 56.5964 31.8918 55.9899 31.8918H41.315C40.1243 31.8918 39.1561 32.8606 39.1561 34.0508V39.3854C39.1561 40.5756 40.1243 41.5444 41.315 41.5444H42.1854V43.8538H41.315C40.1243 43.8538 39.1561 44.8226 39.1561 46.0127C39.1561 46.0127 39.1698 51.6049 39.1922 51.7291H2.19556V15.0775H72.7218V51.7291ZM72.7218 12.882H2.27624V4.97693C2.27624 3.5241 3.45842 2.34192 4.91182 2.34192H70.0862C71.5396 2.34192 72.7218 3.5241 72.7218 4.9775V12.882Z" fill="#EF8B54"/>
<path d="M8.09497 4.3595C6.31884 4.3595 4.87402 5.80432 4.87402 7.58045C4.87402 9.35658 6.31884 10.802 8.09497 10.802C9.8711 10.802 11.3165 9.35658 11.3165 7.58045C11.3165 5.80432 9.8711 4.3595 8.09497 4.3595ZM8.09497 8.60642C7.52963 8.60642 7.06901 8.14637 7.06901 7.58045C7.06901 7.01511 7.52963 6.55448 8.09497 6.55448C8.66089 6.55448 9.12094 7.01511 9.12094 7.58045C9.12094 8.14637 8.66089 8.60642 8.09497 8.60642Z" fill="#EF8B54"/>
<path d="M16.2965 4.3595C14.5203 4.3595 13.075 5.80432 13.075 7.58045C13.075 9.35658 14.5203 10.802 16.2965 10.802C18.0726 10.802 19.5174 9.35658 19.5174 7.58045C19.5174 5.80432 18.072 4.3595 16.2965 4.3595ZM16.2965 8.60642C15.7306 8.60642 15.2705 8.14637 15.2705 7.58045C15.2705 7.01511 15.7306 6.55448 16.2965 6.55448C16.8618 6.55448 17.3224 7.01511 17.3224 7.58045C17.3224 8.14637 16.8618 8.60642 16.2965 8.60642Z" fill="#EF8B54"/>
<path d="M24.4972 4.3595C22.7211 4.3595 21.2763 5.80432 21.2763 7.58045C21.2763 9.35658 22.7211 10.802 24.4972 10.802C26.2734 10.802 27.7188 9.35658 27.7188 7.58045C27.7188 5.80432 26.2734 4.3595 24.4972 4.3595ZM24.4972 8.60642C23.9319 8.60642 23.4713 8.14637 23.4713 7.58045C23.4713 7.01511 23.9319 6.55448 24.4972 6.55448C25.0631 6.55448 25.5232 7.01511 25.5232 7.58045C25.5232 8.14637 25.0631 8.60642 24.4972 8.60642Z" fill="#EF8B54"/>
</g>
<defs>
<clipPath id="clip0">
<rect width="75" height="75" fill="white"/>
</clipPath>
</defs>
</svg>
