<svg width="198" height="214" viewBox="0 0 198 214" fill="none" xmlns="http://www.w3.org/2000/svg">
<g clip-path="url(#clip0)">
<path d="M104.354 118.982L107.524 141.987L118.668 139.942V112.848H113.556L104.354 118.982Z" fill="white"/>
<path d="M92.085 118.982L88.9154 141.987L77.771 139.942V112.848H82.8831L92.085 118.982Z" fill="white"/>
<path d="M121.735 139.431L104.354 142.498L101.287 190.552L108.955 201.287L126.848 199.754L131.96 188.507L121.735 139.431Z" fill="white"/>
<path d="M126.847 199.753L135.027 212.023H105.376L108.955 201.287L126.847 199.753Z" fill="white"/>
<path d="M74.7039 139.431L92.0851 142.498L95.1524 190.552L87.4842 201.287L69.5917 199.754L64.4796 188.507L74.7039 139.431Z" fill="white"/>
<path d="M69.5915 199.753L61.4121 212.023H91.0625L87.484 201.287L69.5915 199.753Z" fill="white"/>
<path d="M104.354 102.623L114.578 97.5112L118.668 112.848H113.556L98.2196 123.072L104.354 102.623Z" fill="white"/>
<path d="M92.085 102.623L81.8607 97.5112L77.771 112.848H82.8831L98.2195 123.072L92.085 102.623Z" fill="white"/>
<path d="M92.0851 102.623H104.354L98.2196 123.072L92.0851 102.623Z" fill="white"/>
<path d="M137.072 101.601L139.935 103.441L142.184 117.959L124.803 118.982L125.825 104.668L127.87 102.623L137.072 101.601Z" fill="white"/>
<path d="M59.3675 101.601L56.5047 103.441L54.2554 117.959L71.6366 118.982L70.6142 104.668L68.5693 102.623L59.3675 101.601Z" fill="white"/>
<path d="M110.489 99.5557L115.601 86.2642H106.399L98.2195 94.4436L90.0401 86.2642H80.8383L85.9504 99.5557L92.0849 102.623H104.354L110.489 99.5557Z" fill="white"/>
<path d="M98.2196 94.4437L106.399 86.2643H120.713L124.189 81.1522L121.735 66.8382L112.534 62.7485L98.2196 75.0176V94.4437Z" fill="white"/>
<path d="M122.144 69.088L129.915 66.8386L138.094 70.9283L136.049 81.1526L137.072 101.601L127.87 102.624L122.144 69.088Z" fill="white"/>
<path d="M98.2196 94.4437L90.0402 86.2643H75.7262L72.25 81.1522L74.7038 66.8382L83.9057 62.7485L98.2196 75.0176V94.4437Z" fill="white"/>
<path d="M74.2947 69.088L66.5243 66.8386L58.3448 70.9283L60.3897 81.1526L59.3673 101.601L68.5691 102.624L74.2947 69.088Z" fill="white"/>
<path d="M98.2196 64.7936L112.534 55.5918L109.466 42.3002L98.2196 33.0984L86.9729 42.3002L83.9056 55.5918L98.2196 64.7936Z" fill="white"/>
<path d="M139.117 117.542L141.162 131.651L134.005 142.898L130.937 140.853L134.005 131.651L131.96 126.539L126.848 134.719L124.292 133.696L127.87 118.155L139.117 117.542Z" fill="white"/>
<path d="M57.7962 119L55.8986 132.093L62.5402 142.53L65.3866 140.633L62.5402 132.093L64.4378 127.349L69.1818 134.94L71.5538 133.991L68.233 119.569L57.7962 119Z" fill="white"/>
<path d="M112.125 54.5779L123.78 40.8774L116.623 26.5635L117.646 37.8102L109.671 43.8425L112.125 54.5779Z" fill="white"/>
<path d="M84.3146 54.5779L72.6589 40.8774L79.8159 26.5635L78.7935 37.8102L86.7684 43.8425L84.3146 54.5779Z" fill="white"/>
<path d="M109.16 66.2336L105.172 60.917L98.2196 65.4157L91.2671 60.917L87.2797 66.2336L98.2196 75.6399L109.16 66.2336Z" fill="white"/>
<path d="M98.2196 39.2329C98.2196 39.2329 86.0527 49.1504 85.2348 49.8661L83.9056 55.5917L98.2196 64.7936L112.534 55.5917L111.204 49.8661L98.2196 39.2329Z" fill="#C14E8E" fill-opacity="0.3"/>
<path d="M111.511 102.623L114.272 112.847H113.556L98.2196 123.072L103.127 106.815L111.511 102.623Z" fill="#C14E8E" fill-opacity="0.3"/>
<path d="M113.556 140.862L107.524 141.987L104.354 118.982L113.556 112.848V140.862Z" fill="#C14E8E" fill-opacity="0.3"/>
<path d="M120.713 80.1299L123.371 76.2446L124.189 81.1523L120.713 86.2644H106.399L98.2196 94.4438V88.3093L106.399 80.1299H120.713Z" fill="#C14E8E" fill-opacity="0.3"/>
<path d="M124.803 118.982L125.825 104.668L127.87 102.623L135.027 101.805L138.094 118.164L124.803 118.982Z" fill="#C14E8E" fill-opacity="0.3"/>
<path d="M129.097 71.8481L133.391 73.9952L131.96 81.1522L133.902 101.907L127.87 102.623L122.86 73.5863L129.097 71.8481Z" fill="#C14E8E" fill-opacity="0.3"/>
<path d="M101.287 190.552L104.354 142.498L115.703 140.453L125.212 189.018L120.713 200.265L108.955 201.287L101.287 190.552Z" fill="#C14E8E" fill-opacity="0.3"/>
<path d="M115.601 86.2642L113.658 91.274L106.603 91.8875L98.2196 99.0445V94.4436L106.399 86.2642H115.601Z" fill="#C14E8E" fill-opacity="0.3"/>
<path d="M119.69 200.367L127.87 212.023H105.376L108.955 201.287L119.69 200.367Z" fill="#C14E8E" fill-opacity="0.3"/>
<path d="M84.928 102.623L82.1675 112.847H82.8832L98.2196 123.072L93.3119 106.815L84.928 102.623Z" fill="#C14E8E" fill-opacity="0.3"/>
<path d="M82.8832 140.862L88.9155 141.987L92.085 118.982L82.8832 112.848V140.862Z" fill="#C14E8E" fill-opacity="0.3"/>
<path d="M75.7262 80.1299L73.0679 76.2446L72.25 81.1523L75.7262 86.2644H90.0402L98.2196 94.4438V88.3093L90.0402 80.1299H75.7262Z" fill="#C14E8E" fill-opacity="0.3"/>
<path d="M71.6364 118.982L70.614 104.668L68.5691 102.623L61.4121 101.805L58.3448 118.164L71.6364 118.982Z" fill="#C14E8E" fill-opacity="0.3"/>
<path d="M67.3424 71.8481L63.0482 73.9952L64.4796 81.1522L62.537 101.907L68.5693 102.623L73.5792 73.5863L67.3424 71.8481Z" fill="#C14E8E" fill-opacity="0.3"/>
<path d="M95.1522 190.552L92.0849 142.498L80.736 140.453L71.2274 189.018L75.7261 200.265L87.484 201.287L95.1522 190.552Z" fill="#C14E8E" fill-opacity="0.3"/>
<path d="M80.8383 86.2642L82.7809 91.274L89.8356 91.8875L98.2195 99.0445V94.4436L90.0401 86.2642H80.8383Z" fill="#C14E8E" fill-opacity="0.3"/>
<path d="M76.7486 200.367L68.5692 212.023H91.0626L87.4841 201.287L76.7486 200.367Z" fill="#C14E8E" fill-opacity="0.3"/>
<path d="M194.328 43.3223H144.229L136.049 52.0129V1.40283H194.328V43.3223Z" fill="url(#paint0_linear)"/>
<path d="M173.923 21.3404H167.788V9.07129L157.564 23.3852H164.721V35.6544L173.923 21.3404Z" stroke="white" stroke-width="2.04485" stroke-miterlimit="10" stroke-linejoin="round"/>
<path d="M93.9531 61.4732V56.3806L98.3432 58.5757L102.733 56.3806V61.4732L98.3432 64.2828L93.9531 61.4732Z" fill="white"/>
<path d="M90.1609 50.2662C90.0977 50.6455 90.3902 50.9908 90.7747 50.9908H95.0413C95.3849 50.9908 95.6635 50.7122 95.6635 50.3685V47.7784C95.6635 47.5524 95.541 47.3442 95.3435 47.2345L91.8335 45.2845C91.4576 45.0757 90.9883 45.302 90.9176 45.7261L90.1609 50.2662Z" fill="white"/>
<path d="M106.278 50.2662C106.341 50.6455 106.049 50.9908 105.664 50.9908H101.398C101.054 50.9908 100.776 50.7122 100.776 50.3685V47.7784C100.776 47.5524 100.898 47.3442 101.096 47.2345L104.606 45.2845C104.981 45.0757 105.451 45.302 105.522 45.7261L106.278 50.2662Z" fill="white"/>
<mask id="mask0" mask-type="alpha" maskUnits="userSpaceOnUse" x="0" y="24" width="198" height="190">
<path d="M90.0402 50.9908H95.6635V47.4123L91.0626 44.8562L90.0402 50.9908Z" stroke="#555555" stroke-width="2.04485" stroke-miterlimit="10" stroke-linecap="round" stroke-linejoin="round"/>
<path d="M106.399 50.9908H100.776V47.4123L105.377 44.8562L106.399 50.9908Z" stroke="#555555" stroke-width="2.04485" stroke-miterlimit="10" stroke-linecap="round" stroke-linejoin="round"/>
<path d="M112.125 53.9559L123.78 40.2554L116.623 25.9414L117.646 37.1881L109.671 43.2204L112.125 53.9559Z" stroke="#555555" stroke-width="2.04485" stroke-miterlimit="10" stroke-linejoin="round"/>
<path d="M84.3147 53.9559L72.6591 40.2554L79.816 25.9414L78.7936 37.1881L86.7685 43.2204L84.3147 53.9559Z" stroke="#555555" stroke-width="2.04485" stroke-miterlimit="10" stroke-linejoin="round"/>
<path d="M98.2196 64.7936L112.534 55.5918L109.466 42.3002L98.2196 33.0984L86.9729 42.3002L83.9056 55.5918L98.2196 64.7936Z" stroke="#555555" stroke-width="2.04485" stroke-miterlimit="10" stroke-linejoin="round"/>
<path d="M104.354 102.623L114.578 97.5112L118.668 112.848H113.556L98.2196 123.072L104.354 102.623Z" stroke="#555555" stroke-width="2.04485" stroke-miterlimit="10" stroke-linejoin="round"/>
<path d="M104.354 118.982L107.524 141.987L118.668 139.942V112.848H113.556L104.354 118.982Z" stroke="#555555" stroke-width="2.04485" stroke-miterlimit="10" stroke-linejoin="round"/>
<path d="M121.735 139.431L104.354 142.498L101.287 190.552L108.955 201.287L126.848 199.754L131.96 188.507L121.735 139.431Z" stroke="#555555" stroke-width="2.04485" stroke-miterlimit="10" stroke-linejoin="round"/>
<path d="M126.847 199.753L135.027 212.023H105.376L108.955 201.287L126.847 199.753Z" stroke="#555555" stroke-width="2.04485" stroke-miterlimit="10" stroke-linejoin="round"/>
<path d="M122.451 200.163L113.556 145.565L114.885 200.776L122.451 200.163Z" stroke="#555555" stroke-width="2.04485" stroke-miterlimit="10" stroke-linejoin="round"/>
<path d="M98.2196 94.4437L106.399 86.2643H120.713L124.189 81.1522L121.735 66.8382L112.534 62.7485L98.2196 75.0176V94.4437Z" stroke="#555555" stroke-width="2.04485" stroke-miterlimit="10" stroke-linejoin="round"/>
<path d="M137.072 101.601L139.935 103.441L142.184 117.959L124.803 118.982L125.825 104.668L127.87 102.623L137.072 101.601Z" stroke="#555555" stroke-width="2.04485" stroke-miterlimit="10" stroke-linejoin="round"/>
<path d="M139.117 118.164L141.162 132.274L134.005 143.52L130.937 141.475L134.005 132.274L131.96 127.161L126.848 135.341L124.292 134.318L127.87 118.778L139.117 118.164Z" stroke="#555555" stroke-width="2.04485" stroke-miterlimit="10" stroke-linejoin="round"/>
<path d="M135.538 118.369L131.96 102.214L130.426 118.675L135.538 118.369Z" stroke="#555555" stroke-width="2.04485" stroke-miterlimit="10" stroke-linejoin="round"/>
<path d="M122.144 69.088L129.915 66.8386L138.094 70.9283L136.049 81.1526L137.072 101.601L127.87 102.624L122.144 69.088Z" stroke="#555555" stroke-width="2.04485" stroke-miterlimit="10" stroke-linejoin="round"/>
<path d="M136.049 81.1523H124.189" stroke="#555555" stroke-width="2.04485" stroke-miterlimit="10" stroke-linejoin="round"/>
<path d="M92.085 102.623L81.8607 97.5112L77.771 112.848H82.8831L98.2195 123.072L92.085 102.623Z" stroke="#555555" stroke-width="2.04485" stroke-miterlimit="10" stroke-linejoin="round"/>
<path d="M92.085 118.982L88.9154 141.987L77.771 139.942V112.848H82.8831L92.085 118.982Z" stroke="#555555" stroke-width="2.04485" stroke-miterlimit="10" stroke-linejoin="round"/>
<path d="M74.7039 139.431L92.0851 142.498L95.1524 190.552L87.4842 201.287L69.5917 199.754L64.4796 188.507L74.7039 139.431Z" stroke="#555555" stroke-width="2.04485" stroke-miterlimit="10" stroke-linejoin="round"/>
<path d="M69.5915 199.753L61.4121 212.023H91.0625L87.484 201.287L69.5915 199.753Z" stroke="#555555" stroke-width="2.04485" stroke-miterlimit="10" stroke-linejoin="round"/>
<path d="M73.9882 200.163L82.8833 145.565L81.5541 200.776L73.9882 200.163Z" stroke="#555555" stroke-width="2.04485" stroke-miterlimit="10" stroke-linejoin="round"/>
<path d="M98.2196 94.4437L90.0402 86.2643H75.7262L72.25 81.1522L74.7038 66.8382L83.9057 62.7485L98.2196 75.0176V94.4437Z" stroke="#555555" stroke-width="2.04485" stroke-miterlimit="10" stroke-linejoin="round"/>
<path d="M59.3675 101.601L56.5047 103.441L54.2554 117.959L71.6366 118.982L70.6142 104.668L68.5693 102.623L59.3675 101.601Z" stroke="#555555" stroke-width="2.04485" stroke-miterlimit="10" stroke-linejoin="round"/>
<path d="M57.3224 118.164L55.2776 132.274L62.4346 143.52L65.5018 141.475L62.4346 132.274L64.4794 127.161L69.5916 135.341L72.1476 134.318L68.5691 118.778L57.3224 118.164Z" stroke="#555555" stroke-width="2.04485" stroke-miterlimit="10" stroke-linejoin="round"/>
<path d="M60.901 118.369L64.4795 102.214L66.0131 118.675L60.901 118.369Z" stroke="#555555" stroke-width="2.04485" stroke-miterlimit="10" stroke-linejoin="round"/>
<path d="M74.2947 69.088L66.5243 66.8386L58.3448 70.9283L60.3897 81.1526L59.3673 101.601L68.5691 102.624L74.2947 69.088Z" stroke="#555555" stroke-width="2.04485" stroke-miterlimit="10" stroke-linejoin="round"/>
<path d="M60.3898 81.1523H72.2499" stroke="#555555" stroke-width="2.04485" stroke-miterlimit="10" stroke-linejoin="round"/>
<path d="M93.1074 61.5216V55.5916L98.2196 58.1476L103.332 55.5916V61.5216L98.2196 64.7934L93.1074 61.5216Z" stroke="#555555" stroke-width="2.04485" stroke-miterlimit="10" stroke-linecap="round" stroke-linejoin="round"/>
<path d="M109.16 65.6113L105.172 60.2947L98.2196 64.7934L91.2671 60.2947L87.2797 65.6113L98.2196 75.0176L109.16 65.6113Z" stroke="#555555" stroke-width="2.04485" stroke-miterlimit="10" stroke-linejoin="round"/>
<path d="M110.489 99.5557L115.601 86.2642H106.399L98.2195 94.4436L90.0401 86.2642H80.8383L85.9504 99.5557L92.0849 102.623H104.354L110.489 99.5557Z" stroke="#555555" stroke-width="2.04485" stroke-miterlimit="10" stroke-linejoin="round"/>
<path d="M92.0851 102.623H104.354L98.2196 123.072L92.0851 102.623Z" stroke="#555555" stroke-width="2.04485" stroke-miterlimit="10" stroke-linejoin="round"/>
<path d="M10.291 212.023H188.193" stroke="#555555" stroke-width="2.04485" stroke-miterlimit="10" stroke-linecap="round" stroke-linejoin="round"/>
<path d="M193.305 212.023H196.372" stroke="#555555" stroke-width="2.04485" stroke-miterlimit="10" stroke-linecap="round" stroke-linejoin="round"/>
<path d="M1.08911 212.023H4.15639" stroke="#555555" stroke-width="2.04485" stroke-miterlimit="10" stroke-linecap="round" stroke-linejoin="round"/>
</mask>
<g mask="url(#mask0)">
<rect x="-2.42212" y="14.6917" width="199.733" height="204.711" fill="url(#paint1_linear)"/>
</g>
</g>
<defs>
<linearGradient id="paint0_linear" x1="164.956" y1="6.29144" x2="164.988" y2="69.7581" gradientUnits="userSpaceOnUse">
<stop stop-color="#E78860"/>
<stop offset="1" stop-color="#E16C96"/>
</linearGradient>
<linearGradient id="paint1_linear" x1="97.7556" y1="116.736" x2="97.4445" y2="320.203" gradientUnits="userSpaceOnUse">
<stop stop-color="#E78860"/>
<stop offset="1" stop-color="#E16C96"/>
</linearGradient>
<clipPath id="clip0">
<rect width="197.328" height="212.665" fill="white" transform="translate(0.0667725 0.380371)"/>
</clipPath>
</defs>
</svg>
