<svg width="244" height="197" viewBox="0 0 244 197" fill="none" xmlns="http://www.w3.org/2000/svg">
<g clip-path="url(#clip0)">
<path d="M85.778 110.273H120.954H131.777L158.835 99.4492V65.1753L126.365 52.5481L93.8955 65.1753L92.0916 75.9986L85.778 110.273Z" fill="white"/>
<path d="M144.404 25.4897H149.816V30.9014L144.404 33.6072" fill="white"/>
<path d="M32.5631 126.507L19.9359 195.055L45.1903 126.507" fill="white"/>
<path d="M148.012 126.507L155.228 195.055L122.758 137.331L90.2876 195.055L99.307 126.507" fill="white"/>
<path d="M189.501 126.507H23.5435L9.11243 110.272H203.932L189.501 126.507Z" fill="white"/>
<path d="M182.286 126.507L194.913 195.055L169.659 126.507" fill="white"/>
<path d="M189.501 110.273H176.874L173.266 86.822H193.109L189.501 110.273Z" fill="white"/>
<path d="M144.404 41.7248L126.365 48.9404L108.326 41.7248V11.9607L126.365 2.03931L144.404 11.9607V41.7248Z" fill="white"/>
<path d="M122.758 137.331L155.228 195.055L148.012 126.507H108.326L102.013 174.13L122.758 137.331Z" fill="#ECCADD"/>
<path d="M184.27 137.331L182.286 126.507H169.659L173.627 137.331H184.27Z" fill="#ECCADD"/>
<path d="M30.5787 137.331L32.563 126.507H45.1902L41.2217 137.331H30.5787Z" fill="#ECCADD"/>
<path d="M182.286 110.273H189.501L193.109 86.822H182.286V110.273Z" fill="#ECCADD"/>
<path d="M108.326 21.8819V19.176L126.365 9.25464L144.404 19.176V21.8819H108.326Z" fill="#ECCADD"/>
<path d="M148.012 77.8025V86.8219" stroke="#EF8B54" stroke-width="3.60778" stroke-miterlimit="10" stroke-linecap="round" stroke-linejoin="round"/>
<path d="M36.1495 112.134L22.9811 65.2332H82.5094L95.6778 112.134H36.1495Z" fill="white"/>
<mask id="mask0" mask-type="alpha" maskUnits="userSpaceOnUse" x="7" y="0" width="227" height="197">
<path d="M144.404 41.7248L126.365 48.9404L108.326 41.7248V11.9607L126.365 2.03931L144.404 11.9607V41.7248Z" stroke="#EF8B54" stroke-width="3.60778" stroke-miterlimit="10" stroke-linejoin="round"/>
<path d="M117.346 29.9995V27.2937" stroke="#EF8B54" stroke-width="3.60778" stroke-miterlimit="10" stroke-linecap="round" stroke-linejoin="round"/>
<path d="M131.777 29.9995V27.2937" stroke="#EF8B54" stroke-width="3.60778" stroke-miterlimit="10" stroke-linecap="round" stroke-linejoin="round"/>
<path d="M34.9083 110.272L21.7399 63.3713H81.2682L94.4366 110.272H34.9083Z" stroke="#EF8B54" stroke-width="3.60778" stroke-miterlimit="10" stroke-linecap="round" stroke-linejoin="round"/>
<path d="M63.2976 88.248L57.1488 92.3471L51 88.248V82.0992L57.1488 78L63.2976 82.0992V88.248Z" stroke="#EF8B54" stroke-width="4.09919" stroke-miterlimit="10" stroke-linejoin="round"/>
<path d="M137.73 56.8774L126.365 79.6064L115.001 56.8774" stroke="#EF8B54" stroke-width="3.60778" stroke-miterlimit="10" stroke-linecap="round" stroke-linejoin="round"/>
<path d="M144.404 21.8821H92.0914" stroke="#EF8B54" stroke-width="3.60778" stroke-miterlimit="10" stroke-linecap="round" stroke-linejoin="round"/>
<path d="M129.071 38.1172L124.561 39.9211L120.052 38.1172" stroke="#EF8B54" stroke-width="3.60778" stroke-miterlimit="10" stroke-linecap="round" stroke-linejoin="round"/>
<path d="M144.404 25.4897H149.816V30.9014L144.404 33.6072" stroke="#EF8B54" stroke-width="3.60778" stroke-miterlimit="10" stroke-linecap="round" stroke-linejoin="round"/>
<path d="M92.452 103.057H32.9237" stroke="#EF8B54" stroke-width="3.60778" stroke-miterlimit="10" stroke-linecap="round" stroke-linejoin="round"/>
<path d="M94.4363 110.273H122.757L119.15 103.057H92.452L94.4363 110.273Z" fill="white" stroke="#EF8B54" stroke-width="3.60778" stroke-miterlimit="10" stroke-linecap="round" stroke-linejoin="round"/>
<path d="M148.012 77.8025V90.4298L120.954 110.273H131.777L158.835 99.4492V65.1753L126.365 52.5481L93.8953 65.1753L92.0914 75.9986" stroke="#EF8B54" stroke-width="3.60778" stroke-miterlimit="10" stroke-linecap="round" stroke-linejoin="round"/>
<path d="M189.501 126.507H23.5435L9.11243 110.272H203.932L189.501 126.507Z" stroke="#EF8B54" stroke-width="3.60778" stroke-miterlimit="10" stroke-linecap="round" stroke-linejoin="round"/>
<path d="M32.5631 126.508L19.9359 195.055L45.1903 126.508" stroke="#EF8B54" stroke-width="3.60778" stroke-miterlimit="10" stroke-linecap="round" stroke-linejoin="round"/>
<path d="M182.286 126.508L194.913 195.055L169.659 126.508" stroke="#EF8B54" stroke-width="3.60778" stroke-miterlimit="10" stroke-linecap="round" stroke-linejoin="round"/>
<path d="M9.36646 195.055H218.505" stroke="#EF8B54" stroke-width="2.94495" stroke-miterlimit="10" stroke-linecap="round" stroke-linejoin="round"/>
<path d="M225.952 195.055H231.364" stroke="#EF8B54" stroke-width="3.60778" stroke-miterlimit="10" stroke-linecap="round" stroke-linejoin="round"/>
<path d="M148.012 126.508L155.227 195.055L122.757 137.331L90.2875 195.055L99.3069 126.508" stroke="#EF8B54" stroke-width="3.60778" stroke-miterlimit="10" stroke-linecap="round" stroke-linejoin="round"/>
<path d="M176.874 75.9992L180.482 72.3914L173.266 65.1759L176.874 61.5681" stroke="#EF8B54" stroke-width="3.60778" stroke-miterlimit="10" stroke-linecap="round" stroke-linejoin="round"/>
<path d="M189.501 75.9987L193.109 72.391L185.894 65.1754L189.501 61.5676" stroke="#EF8B54" stroke-width="3.60778" stroke-miterlimit="10" stroke-linecap="round" stroke-linejoin="round"/>
<path d="M189.501 110.273H176.874L173.266 86.822H193.109L189.501 110.273Z" stroke="#EF8B54" stroke-width="3.60778" stroke-miterlimit="10" stroke-linecap="round" stroke-linejoin="round"/>
</mask>
<g mask="url(#mask0)">
<rect x="-8.63062" y="-11.5559" width="261.268" height="219.689" fill="url(#paint0_linear)"/>
</g>
</g>
<defs>
<linearGradient id="paint0_linear" x1="122.41" y1="97.9545" x2="122.136" y2="316.308" gradientUnits="userSpaceOnUse">
<stop stop-color="#E78860"/>
<stop offset="1" stop-color="#E16C96"/>
</linearGradient>
<clipPath id="clip0">
<rect width="243.271" height="196.727" fill="white" transform="translate(0.0577393 0.235352)"/>
</clipPath>
</defs>
</svg>
