<svg width="235" height="181" viewBox="0 0 235 181" fill="none" xmlns="http://www.w3.org/2000/svg">
<g clip-path="url(#clip0)">
<path d="M146.062 48.2473H94.4276V142.715H146.062V48.2473Z" fill="white"/>
<path d="M146.062 48.2473V122.765H94.4276L146.062 48.2473Z" fill="#ECCADD"/>
<path d="M134.327 179.093V163.486L147.235 144.71L146.062 142.715H107.336V135.322L94.4275 127.107V103.05L87.3865 97.7693L80.3455 103.637V138.842L94.4275 157.618V179.093H134.327Z" fill="white"/>
<path d="M232.901 108.683H193.002L183.614 118.658V71.1306H232.901V108.683Z" fill="white"/>
<path d="M200.043 79.3452V84.0392L195.349 86.973L190.655 84.0392L200.043 79.3452Z" fill="#ECCADD"/>
<path d="M190.655 103.989L183.614 111.617V118.658L193.002 108.683H232.901V103.989H190.655Z" fill="#ECCADD"/>
<path d="M219.758 85.0955L214.125 98.7081L208.258 95.1876L204.737 99.8816H225.86L219.758 85.0955Z" fill="#ECCADD"/>
<path d="M217.646 79.9316L211.778 94.0137L205.911 90.4932L198.87 99.8813H225.861L217.646 79.9316Z" stroke="#555555" stroke-width="2.34701" stroke-linecap="round" stroke-linejoin="round"/>
<path d="M107.336 149.169V142.714H131.041L134.327 149.169H107.336Z" fill="#ECCADD"/>
<path d="M55.1506 69.335H12.9043V111.581H55.1506V69.335Z" fill="white"/>
<mask id="mask0" mask-type="alpha" maskUnits="userSpaceOnUse" x="0" y="0" width="235" height="181">
<path d="M54.5284 69.957H12.2821V112.203H54.5284V69.957Z" stroke="#555555" stroke-width="2.34701" stroke-miterlimit="10" stroke-linecap="round" stroke-linejoin="round"/>
<path d="M141.955 107.979L131.98 98.0038L156.858 73.1255L165.19 74.7684L166.833 83.1003L141.955 107.979Z" stroke="#555555" stroke-width="2.34701" stroke-miterlimit="10" stroke-linecap="round" stroke-linejoin="round"/>
<path d="M86.2131 20.3178L86.0957 7.40918L74.126 13.9808L86.2131 20.3178Z" stroke="#555555" stroke-width="2.34701" stroke-miterlimit="10" stroke-linecap="round" stroke-linejoin="round"/>
<path d="M196.405 54.7014L198.987 47.1909L190.655 48.5991L196.405 54.7014Z" stroke="#555555" stroke-width="2.34701" stroke-miterlimit="10" stroke-linecap="round" stroke-linejoin="round"/>
<path d="M60.1611 159.613L62.7428 152.103L54.4109 153.511L60.1611 159.613Z" stroke="#555555" stroke-width="2.34701" stroke-miterlimit="10" stroke-linecap="round" stroke-linejoin="round"/>
<path d="M124 28.063L127.873 21.1393L119.423 21.022L124 28.063Z" stroke="#555555" stroke-width="2.34701" stroke-miterlimit="10" stroke-linecap="round" stroke-linejoin="round"/>
<path d="M43.9668 26.4199L47.1353 31.3487L52.7681 29.7057L55.9366 34.6345L61.5694 32.9916L64.7379 37.9203" stroke="#555555" stroke-width="2.34701" stroke-miterlimit="10" stroke-linecap="round" stroke-linejoin="round"/>
<path d="M174.695 146.587L176.69 152.102L182.558 151.868L184.435 157.383L190.303 157.148L192.181 162.664" stroke="#555555" stroke-width="2.34701" stroke-miterlimit="10" stroke-linecap="round" stroke-linejoin="round"/>
<path d="M24.3693 144.005L30.1194 145.062L32.7012 139.781L38.4513 140.837L41.1504 135.556L46.9006 136.612" stroke="#555555" stroke-width="2.34701" stroke-miterlimit="10" stroke-linecap="round" stroke-linejoin="round"/>
<path d="M190.538 26.4199L187.369 31.3487L181.737 29.7057L178.568 34.6345L172.935 32.9916L169.649 37.9203" stroke="#555555" stroke-width="2.34701" stroke-miterlimit="10" stroke-linecap="round" stroke-linejoin="round"/>
<path d="M123.765 134.148L120.245 136.495L116.724 134.148V130.627L120.245 128.28L123.765 130.627V134.148Z" stroke="#555555" stroke-width="2.34701" stroke-miterlimit="10" stroke-linejoin="round"/>
<path d="M154.394 9.404L150.169 8.58254L149.348 4.35792L151.812 1.89355L156.037 2.71501L156.858 6.82228L154.394 9.404Z" stroke="#555555" stroke-width="2.34701" stroke-miterlimit="10" stroke-linejoin="round"/>
<path d="M202.625 147.408L198.517 146.587L197.696 142.48L200.16 139.898L204.385 140.719L205.206 144.944L202.625 147.408Z" stroke="#555555" stroke-width="2.34701" stroke-miterlimit="10" stroke-linejoin="round"/>
<path d="M12.2821 179.093H216.472" stroke="#555555" stroke-width="2.34701" stroke-miterlimit="10" stroke-linecap="round" stroke-linejoin="round"/>
<path d="M222.34 179.093H225.86" stroke="#555555" stroke-width="2.34701" stroke-miterlimit="10" stroke-linecap="round" stroke-linejoin="round"/>
<path d="M1.72058 179.093H5.2411" stroke="#555555" stroke-width="2.34701" stroke-miterlimit="10" stroke-linecap="round" stroke-linejoin="round"/>
<path d="M146.062 48.2471H94.4275V95.4807V119.098V127.067L107.336 135.156V142.714H120.245H146.062V48.2471Z" stroke="#555555" stroke-width="2.34701" stroke-miterlimit="10" stroke-linecap="round" stroke-linejoin="round"/>
<path d="M94.4275 122.765H146.062" stroke="#555555" stroke-width="2.34701" stroke-miterlimit="10" stroke-linecap="round" stroke-linejoin="round"/>
<path d="M156.623 106.922L158.97 113.963L156.623 121.004H129.633L126.112 113.963L129.633 106.922H156.623Z" stroke="#555555" stroke-width="2.34701" stroke-miterlimit="10" stroke-linecap="round" stroke-linejoin="round"/>
<path d="M154.276 121.004L156.623 128.045L154.276 135.086H131.98L128.459 128.045L131.98 121.004H154.276Z" stroke="#555555" stroke-width="2.34701" stroke-miterlimit="10" stroke-linecap="round" stroke-linejoin="round"/>
<path d="M28.7112 98.1211H21.6702V106.336L28.7112 103.989" fill="#FFE8CC"/>
<path d="M28.7112 98.1211H21.6702V106.336L28.7112 103.989" stroke="#555555" stroke-width="2.34701" stroke-miterlimit="10" stroke-linecap="round" stroke-linejoin="round"/>
<path d="M45.1404 91.0801H38.0994V99.2946L45.1404 96.9476" fill="#FFE8CC"/>
<path d="M45.1404 91.0801H38.0994V99.2946L45.1404 96.9476" stroke="#555555" stroke-width="2.34701" stroke-miterlimit="10" stroke-linecap="round" stroke-linejoin="round"/>
<path d="M28.7112 103.989V82.8656L45.1403 76.998V96.9477" stroke="#555555" stroke-width="2.34701" stroke-miterlimit="10" stroke-linecap="round" stroke-linejoin="round"/>
<path d="M60.3959 82.8655V118.071H25.1907" stroke="#555555" stroke-width="2.34701" stroke-miterlimit="10" stroke-linecap="round" stroke-linejoin="round"/>
<path d="M232.901 108.683H193.002L183.614 118.658V71.1306H232.901V108.683Z" stroke="#555555" stroke-width="2.34701" stroke-linecap="round" stroke-linejoin="round"/>
<path d="M200.043 84.0392L195.349 86.9729L190.655 84.0392V79.3451L195.349 76.4114L200.043 79.3451V84.0392Z" stroke="#555555" stroke-width="2.34701" stroke-linecap="round" stroke-linejoin="round"/>
<path d="M193.002 99.8813H228.207" stroke="#555555" stroke-width="2.34701" stroke-linecap="round" stroke-linejoin="round"/>
<path d="M217.646 79.9316L211.778 94.0137L205.911 90.4932L198.87 99.8813H225.861L217.646 79.9316Z" stroke="#555555" stroke-width="2.34701" stroke-linecap="round" stroke-linejoin="round"/>
<path d="M107.336 147.408V142.714" stroke="#555555" stroke-width="2.34701" stroke-miterlimit="10" stroke-linecap="round" stroke-linejoin="round"/>
<path d="M134.327 179.093V163.486L147.235 144.71L146.062 142.715H107.336V135.322L94.4275 127.107V103.05L87.3865 97.7693L80.3455 103.637V138.842L94.4275 157.618V179.093H134.327Z" stroke="#555555" stroke-width="2.34701" stroke-miterlimit="10" stroke-linecap="round" stroke-linejoin="round"/>
<path d="M151.93 135.087L154.277 142.128L151.93 149.169H134.327L130.806 142.128L134.327 135.087H151.93Z" stroke="#555555" stroke-width="2.34701" stroke-miterlimit="10" stroke-linecap="round" stroke-linejoin="round"/>
</mask>
<g mask="url(#mask0)">
<rect x="-13.6667" y="-19.7778" width="261.956" height="220.267" fill="url(#paint0_linear)"/>
</g>
<path d="M141.904 106.534L133.178 97.8078L157 74.2963L164.289 75.7335L165.726 83.0221L141.904 106.534Z" fill="white"/>
<path d="M155.844 107.778L158.067 114L155.844 120.222H130.289L126.956 114L130.289 107.778H155.844Z" fill="white"/>
<path d="M153.4 122.089L155.578 128L153.4 133.911H132.711L129.444 128L132.711 122.089H153.4Z" fill="white"/>
<path d="M150.973 135.778L153.089 142L150.973 148.222H135.107L131.933 142L135.107 135.778H150.973Z" fill="white"/>
</g>
<defs>
<linearGradient id="paint0_linear" x1="117.719" y1="90.0208" x2="117.444" y2="308.949" gradientUnits="userSpaceOnUse">
<stop stop-color="#E78860"/>
<stop offset="1" stop-color="#E16C96"/>
</linearGradient>
<clipPath id="clip0">
<rect width="233.528" height="180.133" fill="white" transform="translate(0.547241 0.133301)"/>
</clipPath>
</defs>
</svg>
