<svg width="105" height="63" viewBox="0 0 105 63" fill="none" xmlns="http://www.w3.org/2000/svg">
<path d="M21.5975 54.743C20.5116 54.743 19.6296 55.6239 19.6296 56.7093C19.6296 57.7957 20.5116 58.6761 21.5975 58.6761C22.6839 58.6761 23.5643 57.7957 23.5643 56.7093C23.5643 55.6239 22.6839 54.743 21.5975 54.743ZM101.635 53.3C102.926 53.3 103.869 54.022 104.487 54.743V51.2581C103.474 50.5717 102.253 50.2964 101.192 50.2964C97.931 50.2964 95.0982 52.6302 95.0982 56.6467C95.0982 60.4929 97.6732 62.9996 101.243 62.9996C102.273 62.9996 103.405 62.8438 104.487 62.1067V58.6886C103.869 59.3252 102.892 59.995 101.635 59.995C99.7146 59.995 98.564 58.57 98.564 56.7497C98.564 54.7766 99.7824 53.3 101.635 53.3ZM95.4662 50.6406H91.5191L87.8965 55.6866V50.6406H84.5322L84.5332 62.6559H87.8965V57.4878L91.3794 62.6559H95.5874L90.9006 56.4583L95.4662 50.6406ZM74.5976 57.8496V50.6406H71.3533V62.6559H74.6488L79.3014 55.4454V62.6559H82.5462V50.6406H79.2491L74.5976 57.8496ZM64.8488 56.0463H63.8892V53.2834H64.8488C66.2908 53.2834 66.4963 54.0556 66.4963 54.6566C66.4963 55.1716 66.342 56.0463 64.8488 56.0463ZM65.5858 50.6406H60.5233V62.6559H63.8892V58.6891H65.5858C68.9854 58.6891 69.9646 56.3222 69.9646 54.6566C69.9646 53.008 69.0029 50.6406 65.5858 50.6406ZM50.4997 53.5225H53.1414V62.6559H56.5068V53.5225H59.1491V50.6406H50.4997V53.5225ZM41.1779 57.8496V50.6406H37.9336V62.6559H41.2301L45.8812 55.4454V62.6559H49.1255V50.6406H45.8305L41.1779 57.8496ZM31.1532 60.2517H29.7117V57.7284H31.1532C32.2184 57.7284 32.8364 58.0374 32.8364 58.9826C32.8364 59.9427 32.2013 60.2517 31.1532 60.2517ZM31.4803 55.3253H29.7117V53.5225H35.222V50.6406H26.3474V62.6559H31.4803C32.354 62.6559 36.2002 62.6895 36.2002 58.9308C36.2002 55.3092 32.3897 55.3253 31.4803 55.3253ZM7.51802 56.6467C7.51802 60.4929 10.092 62.9996 13.6623 62.9996C14.6928 62.9996 15.8258 62.8438 16.9076 62.1067V58.6891C16.2875 59.3252 15.3098 59.9955 14.0572 59.9955C12.1344 59.9955 10.9843 58.57 10.9843 56.7497C10.9843 54.7766 12.2032 53.3 14.0572 53.3C15.344 53.3 16.2875 54.022 16.9076 54.743V51.2581C15.8926 50.5717 14.6747 50.2964 13.6106 50.2964C10.3492 50.2964 7.51802 52.6302 7.51802 56.6467ZM0.473633 53.4035H2.31159V62.6559H5.41868V50.6406H0.473633V53.4035Z" fill="white"/>
<path d="M53.479 0.0405273C52.0463 0.0405273 50.6525 0.202015 49.3088 0.499629V19.2985C49.3088 21.6028 51.1866 23.4811 53.4904 23.4811C55.7937 23.4811 57.672 21.6028 57.672 19.2985C57.672 17.0899 55.9427 15.2716 53.7689 15.1267V11.7784C57.7854 11.9259 61.0167 15.2468 61.0167 19.2985C61.0167 23.4444 57.6353 26.8258 53.4904 26.8258C49.343 26.8258 45.9631 23.4444 45.9631 19.2985V1.56483C45.4869 1.76669 45.0242 1.99132 44.5692 2.22941V19.2985C44.5692 24.213 48.5774 28.2201 53.4904 28.2201C58.4049 28.2201 62.4116 24.213 62.4116 19.2985C62.4116 14.4797 58.5545 10.5315 53.7689 10.3835V7.03678C60.3971 7.18636 65.7552 12.6361 65.7552 19.2985C65.7552 26.0556 60.2465 31.5653 53.4904 31.5653C46.7333 31.5653 41.223 26.0556 41.223 19.2985V4.44883C36.9555 7.97879 34.2361 13.3136 34.2361 19.2845C34.2361 29.9132 42.8519 38.5295 53.479 38.5295C64.1098 38.5295 72.723 29.9132 72.723 19.2845C72.723 8.65631 64.1098 0.0405273 53.479 0.0405273Z" fill="white"/>
</svg>
