<svg width="17" height="17" viewBox="0 0 17 17" fill="none" xmlns="http://www.w3.org/2000/svg">
<path d="M5.62108 13.2376L6.84197 11.2943C7.42213 11.6587 8.04912 11.8258 8.67977 11.8267C9.25443 11.8267 9.82723 11.6826 10.3321 11.409C10.8388 11.1345 11.2767 10.7389 11.6099 10.2101V10.2083C11.9744 9.62814 12.1424 9.00117 12.1433 8.37052C12.1433 7.79678 11.9992 7.22489 11.7256 6.71908C11.4521 6.21328 11.0555 5.7754 10.5277 5.44217C9.94933 5.08049 9.32417 4.91251 8.6926 4.9116C8.11795 4.9116 7.54424 5.05571 7.03844 5.32926C6.53171 5.60374 6.09292 6.0003 5.75969 6.52814L5.75877 6.52999C5.39617 7.10739 5.22909 7.73344 5.22818 8.36409C5.22726 8.93874 5.37228 9.51156 5.64584 10.0183C5.92032 10.525 6.3169 10.9638 6.84382 11.2961L6.84197 11.2943L5.62108 13.2376L4.39833 15.1801C3.18936 14.42 2.24199 13.3772 1.60676 12.1985C0.969681 11.018 0.638298 9.70066 0.638298 8.36409C0.636461 6.90084 1.04036 5.40822 1.87572 4.0845L1.87483 4.08541C2.63491 2.87552 3.67772 1.92634 4.85732 1.2911C6.03784 0.654025 7.35603 0.321718 8.6926 0.321718C10.1549 0.3208 11.6476 0.723785 12.9704 1.55731C14.1803 2.31647 15.1285 3.35837 15.7638 4.53797C16.4008 5.71757 16.7332 7.03395 16.7332 8.37052C16.7341 9.83469 16.3302 11.3282 15.4957 12.6529V12.652C14.7366 13.8619 13.6937 14.811 12.5151 15.4472C11.3345 16.0843 10.0173 16.4166 8.67977 16.4166C7.21744 16.4175 5.72479 16.0145 4.40015 15.181L4.39833 15.1801L5.62108 13.2376Z" fill="white"/>
</svg>
