<svg width="39" height="45" viewBox="0 0 39 45" fill="none" xmlns="http://www.w3.org/2000/svg">
<path d="M21.7069 29.2021C25.1172 29.2012 28.1823 27.8325 30.4167 25.611C32.6474 23.3868 34.0179 20.3409 34.0197 16.9554C34.0179 13.569 32.6474 10.5241 30.4167 8.29892C28.1823 6.07833 25.1172 4.70963 21.7069 4.70871C20.4392 4.70871 19.412 3.68058 19.412 2.41377C19.412 1.14605 20.4392 0.118836 21.7069 0.118836C26.3638 0.117918 30.6021 2.00436 33.6553 5.04653C36.7112 8.08503 38.6105 12.3105 38.6096 16.9554C38.6105 21.5995 36.7112 25.8249 33.6553 28.8643C30.603 31.9065 26.3638 33.7929 21.7069 33.792C20.4392 33.792 19.412 32.7648 19.412 31.4971C19.412 30.2303 20.4392 29.2021 21.7069 29.2021Z" fill="white"/>
<path d="M0.812897 44.247C9.13435 44.247 15.8796 37.5311 15.8796 29.2455C15.8796 20.9598 9.13435 14.2448 0.812897 14.2448V15.1628C4.72256 15.1628 8.25676 16.739 10.8197 19.2882C13.38 21.8383 14.9617 25.356 14.9617 29.2455C14.9617 33.1349 13.38 36.6526 10.8197 39.2027C8.25676 41.7519 4.72256 43.329 0.812897 43.329V44.247Z" fill="white"/>
</svg>
