<svg width="62" height="54" viewBox="0 0 62 54" fill="none" xmlns="http://www.w3.org/2000/svg">
<path d="M27.3176 21.446L25.1007 22.039L20.1281 3.4326C19.916 2.64038 20.1428 1.79585 20.7229 1.2166C21.304 0.636443 22.1494 0.411542 22.9407 0.624512L41.5316 5.62472H41.5307L60.1307 10.6203C60.9229 10.8333 61.5407 11.452 61.7527 12.2442C61.9639 13.0365 61.7371 13.8819 61.157 14.4612L47.5315 28.0628L47.5324 28.0619L33.9096 41.6718C33.3295 42.251 32.484 42.4778 31.6927 42.2648C30.9005 42.0518 30.2818 41.4331 30.0707 40.6409L25.1007 22.039L27.3176 21.446L29.5346 20.8539L33.4782 35.615L44.2883 24.815L44.2892 24.8141L55.1002 14.0215L40.34 10.0567H40.3391L25.5891 6.08922L29.5346 20.8539L27.3176 21.446Z" fill="white"/>
<path d="M11.0486 53.1597L25.2341 38.988L28.6673 35.5603L28.3937 34.5358L24.5851 38.3381L11.525 51.3862L6.76074 33.5527L1.99277 15.7146L19.8162 20.5083L25.0193 21.9063L24.7457 20.8819L20.0539 19.6224L0.695667 14.4147L5.87305 33.7895L11.0486 53.1597ZM32.4182 31.8159L39.4214 24.8246L29.8643 22.257L30.1379 23.2805L37.6479 25.2983L32.1446 30.7923L32.4182 31.8159Z" fill="white"/>
</svg>
