<svg width="54" height="45" viewBox="0 0 54 45" fill="none" xmlns="http://www.w3.org/2000/svg">
<path d="M22.0675 17.0489H24.3625C24.3634 20.4574 25.7367 23.5207 27.9692 25.7559C30.2044 27.9875 33.2677 29.3608 36.6753 29.3626C40.0828 29.3608 43.1461 27.9875 45.3823 25.7559C47.6139 23.5207 48.9881 20.4564 48.989 17.0489C48.9881 13.6423 47.6139 10.579 45.3823 8.34284C43.1461 6.11124 40.0828 4.73795 36.6753 4.73703C33.2677 4.73795 30.2044 6.11124 27.9692 8.34284C25.7367 10.5781 24.3634 13.6423 24.3625 17.0489H19.7726C19.7744 7.71311 27.3394 0.148074 36.6753 0.147156C46.0111 0.148074 53.577 7.71311 53.5789 17.0489C53.577 26.3866 46.0111 33.9507 36.6753 33.9525C27.3394 33.9507 19.7744 26.3857 19.7726 17.0489H22.0675Z" fill="white"/>
<path d="M15.7253 44.3424C22.8635 44.3424 28.8432 39.378 30.3982 32.7126C30.1091 32.5969 29.8227 32.473 29.5418 32.3417C28.9506 35.0185 27.6012 37.4089 25.7303 39.2807C23.1683 41.8418 19.6331 43.4244 15.7253 43.4244C11.8166 43.4244 8.28238 41.8418 5.7203 39.2807C3.15915 36.7186 1.57656 33.1844 1.57656 29.2757C1.57656 25.3669 3.15915 21.8327 5.7203 19.2706C8.28238 16.7095 11.8166 15.1269 15.7253 15.1269C17.1473 15.1269 18.5206 15.3362 19.8158 15.7273C19.8388 15.4151 19.8709 15.1049 19.9113 14.7983C18.582 14.4145 17.1775 14.2089 15.7253 14.2089C7.40386 14.2089 0.658581 20.9533 0.658581 29.2757C0.658581 37.5971 7.40386 44.3424 15.7253 44.3424ZM30.7205 27.795C30.2826 23.2987 27.8683 19.3836 24.357 16.9252C24.357 16.9537 24.357 16.983 24.357 17.0115C24.357 17.3787 24.3727 17.7422 24.4048 18.1002C24.8702 18.4628 25.3127 18.8539 25.7303 19.2706C27.8242 21.3655 29.2645 24.1093 29.7198 27.1772C30.043 27.3984 30.3771 27.6049 30.7205 27.795Z" fill="white"/>
</svg>
