<svg width="36" height="69" viewBox="0 0 36 69" fill="none" xmlns="http://www.w3.org/2000/svg">
<path d="M24.4706 43.1318C24.4752 43.5862 24.5569 43.8597 24.6964 44.1379C24.8212 44.3775 25.0113 44.6272 25.3069 44.9035C25.8173 45.3873 26.6535 45.9114 27.6633 46.4622C29.1724 47.3031 31.0525 48.1834 32.7195 49.6852C33.5485 50.438 34.3205 51.3715 34.8676 52.5209C35.4175 53.6674 35.7231 55.0104 35.7194 56.4755C35.7194 57.7432 34.6922 58.7704 33.4245 58.7704C32.1577 58.7704 31.1296 57.7432 31.1296 56.4755C31.1287 55.7283 31.0057 55.1738 30.8156 54.702C30.6467 54.2898 30.4209 53.9318 30.1198 53.5793C29.5975 52.967 28.819 52.3859 27.8671 51.8204C26.4433 50.9585 24.6799 50.1901 23.0514 48.9876C22.2408 48.3808 21.4477 47.6354 20.8437 46.6449C20.2369 45.6608 19.8743 44.4316 19.8807 43.1318C19.8807 41.8641 20.9088 40.8369 22.1756 40.8369C23.4434 40.8369 24.4706 41.8641 24.4706 43.1318Z" fill="white"/>
<path d="M24.4706 16.4851C24.4752 16.9395 24.5569 17.213 24.6964 17.4902C24.8212 17.7308 25.0113 17.9804 25.3069 18.2558C25.8173 18.7396 26.6535 19.2647 27.6633 19.8146C29.1724 20.6563 31.0525 21.5367 32.7195 23.0376C33.5485 23.7903 34.3196 24.7239 34.8676 25.8732C35.4175 27.0198 35.7231 28.3618 35.7194 29.8278C35.7194 31.0956 34.6922 32.1228 33.4245 32.1228C32.1577 32.1228 31.1296 31.0956 31.1296 29.8278C31.1287 29.0806 31.0057 28.5271 30.8156 28.0543C30.6467 27.6421 30.4209 27.2841 30.1198 26.9325C29.5975 26.3193 28.819 25.7392 27.8671 25.1737C26.4433 24.3117 24.6799 23.5425 23.0514 22.3408C22.2408 21.734 21.4477 20.9887 20.8437 19.9982C20.2369 19.0141 19.8743 17.784 19.8807 16.4851C19.8807 15.2173 20.9088 14.1901 22.1756 14.1901C23.4434 14.1901 24.4706 15.2173 24.4706 16.4851Z" fill="white"/>
<path d="M19.8807 43.1851C19.8771 42.0542 20.146 40.9737 20.6225 40.0659C21.0356 39.2681 21.5854 38.6081 22.1738 38.0592C23.2084 37.0999 24.3549 36.4399 25.4519 35.8322C27.1006 34.9371 28.6547 34.1403 29.6315 33.2361C30.1244 32.7863 30.4779 32.3347 30.7248 31.8197C30.969 31.301 31.1268 30.6988 31.1296 29.8405C31.1296 28.5728 32.1577 27.5456 33.4245 27.5456C34.6923 27.5456 35.7195 28.5728 35.7195 29.8405C35.7213 31.1165 35.4927 32.2989 35.0677 33.3408C34.6978 34.2532 34.1837 35.05 33.6017 35.7266C32.5791 36.9135 31.3738 37.7443 30.2199 38.4365C28.4858 39.46 26.8151 40.2293 25.7998 41.005C25.2885 41.3859 24.9562 41.7393 24.7662 42.056C24.5789 42.3782 24.4779 42.6637 24.4706 43.1851C24.4706 44.4529 23.4434 45.4801 22.1757 45.4801C20.9089 45.4801 19.8807 44.4529 19.8807 43.1851Z" fill="white"/>
<path d="M19.8807 16.4742C19.8771 15.3423 20.146 14.2628 20.6225 13.3549C21.0356 12.5572 21.5854 11.8972 22.1738 11.3482C23.2084 10.3889 24.3549 9.72984 25.4519 9.12214C27.1006 8.22712 28.6547 7.42939 29.6315 6.5261C30.1244 6.07538 30.4779 5.62465 30.7248 5.10875C30.969 4.59101 31.1268 3.98882 31.1296 3.1296C31.1296 1.86279 32.1577 0.834656 33.4245 0.834656C34.6923 0.834656 35.7195 1.86279 35.7195 3.1296C35.7213 4.4065 35.4927 5.58885 35.0677 6.63075C34.6978 7.54322 34.1837 8.34002 33.6017 9.01657C32.5791 10.2035 31.3738 11.0343 30.2199 11.7264C28.4858 12.75 26.8151 13.5192 25.7998 14.294C25.2876 14.6759 24.9562 15.0293 24.7662 15.3451C24.578 15.6673 24.4779 15.9528 24.4706 16.4742C24.4706 17.741 23.4434 18.7691 22.1757 18.7691C20.9089 18.7691 19.8807 17.741 19.8807 16.4742Z" fill="white"/>
<path d="M12.0715 68.756H12.9895C12.9913 67.1587 12.5672 65.8625 11.876 64.8114C11.1866 63.7585 10.2447 62.9525 9.22761 62.2687C7.18971 60.9082 4.82501 59.9884 3.34064 58.6885C2.35014 57.8183 1.74797 56.8554 1.74063 55.4123H0.82265C0.818978 56.7048 1.26603 57.7586 1.96645 58.5986C2.66595 59.4422 3.60044 60.0894 4.60837 60.6833C6.62608 61.8647 8.95407 62.8562 10.4366 64.4608C11.4243 65.5311 12.066 66.8393 12.0715 68.756Z" fill="white"/>
<path d="M12.0715 42.1083H12.9895C12.9913 40.512 12.5672 39.2149 11.876 38.1638C11.1866 37.1109 10.2447 36.3058 9.22761 35.6219C7.18971 34.2606 4.82501 33.3417 3.34064 32.0418C2.35014 31.1707 1.74797 30.2086 1.74063 28.7656H0.82265C0.818978 30.0581 1.26603 31.1119 1.96645 31.9519C2.66595 32.7946 3.60044 33.4426 4.60837 34.0366C6.62608 35.2171 8.95407 36.2094 10.4366 37.8141C11.4243 38.8844 12.066 40.1925 12.0715 42.1083Z" fill="white"/>
<path d="M0.822625 55.4014H1.7406C1.74427 54.3155 2.08851 53.5132 2.67326 52.8008C3.25892 52.0921 4.10437 51.4909 5.07375 50.9217C7.01068 49.7742 9.42772 48.7773 11.1085 46.9772C12.2303 45.7783 12.995 44.1874 12.9895 42.0568H12.0715C12.0697 43.4953 11.7034 44.5877 11.1085 45.4992C10.5128 46.4089 9.67466 47.1387 8.71537 47.7832C6.79772 49.0775 4.4174 49.9835 2.73842 51.4321C1.61941 52.3932 0.815282 53.6729 0.822625 55.4014Z" fill="white"/>
<path d="M0.822625 28.7538L1.7406 28.7538C1.74427 27.6678 2.08851 26.8655 2.67326 26.1532C3.25892 25.4445 4.10437 24.8441 5.07375 24.2741C7.01068 23.1275 9.42772 22.1297 11.1085 20.3304C12.2303 19.1316 12.995 17.5407 12.9895 15.4101H12.0715C12.0697 16.8486 11.7034 17.941 11.1085 18.8525C10.5128 19.7622 9.67466 20.4911 8.71537 21.1355C6.79772 22.4308 4.4174 23.3368 2.73842 24.7845C1.61941 25.7456 0.815282 27.0252 0.822625 28.7538Z" fill="white"/>
</svg>
