<svg width="53" height="45" viewBox="0 0 53 45" fill="none" xmlns="http://www.w3.org/2000/svg">
<path d="M50.6352 2.41377V4.70871L23.8744 4.70871L23.8744 29.1774L48.3403 29.1774L48.3403 2.41377L50.6352 2.41377V4.70871V2.41377L52.9302 2.41377L52.9302 31.4723C52.9302 32.0763 52.686 32.6675 52.2582 33.0943C51.8314 33.5221 51.2402 33.7672 50.6352 33.7672L21.5795 33.7672C20.9755 33.7672 20.3843 33.5221 19.9565 33.0943C19.5296 32.6675 19.2846 32.0763 19.2846 31.4723L19.2846 2.41377C19.2846 1.80975 19.5296 1.21857 19.9565 0.79171C20.3843 0.363933 20.9755 0.118835 21.5795 0.118835L50.6352 0.118835C51.2402 0.118835 51.8314 0.363933 52.2582 0.79171C52.686 1.21857 52.9302 1.80975 52.9302 2.41377L50.6352 2.41377Z" fill="white"/>
<path d="M0.226448 44.2204L30.2002 44.2204L30.2002 33.7931H29.2822L29.2822 43.3024L1.14442 43.3024L1.14442 15.1628L19.335 15.1628V14.2448L0.226448 14.2448L0.226448 44.2204ZM29.2822 29.2032H30.2002L30.2002 14.7038V14.2448L23.9249 14.2448V15.1628L29.2822 15.1628L29.2822 29.2032Z" fill="white"/>
</svg>
