<svg width="19" height="20" viewBox="0 0 19 20" fill="none" xmlns="http://www.w3.org/2000/svg">
<path d="M0.745594 15.003L14.7466 1.87135C15.671 1.00478 17.1232 1.05067 17.9898 1.97507C18.8573 2.89948 18.8105 4.35172 17.8861 5.21921L3.88511 18.3508C2.96071 19.2174 1.50848 19.1715 0.640989 18.2462C-0.22558 17.3218 -0.178806 15.8696 0.745594 15.003Z" fill="white"/>
<path d="M14.1929 18.6669L1.05938 4.66591C0.192808 3.74151 0.238686 2.28927 1.16309 1.42178C2.08749 0.555215 3.53978 0.601112 4.40726 1.52643L17.5407 15.5265C18.4073 16.4509 18.3614 17.904 17.437 18.7706C16.5117 19.6381 15.0594 19.5913 14.1929 18.6669Z" fill="white"/>
</svg>
