<svg width="408" height="593" viewBox="0 0 408 593" fill="none" xmlns="http://www.w3.org/2000/svg">
<g opacity="0.4">
<path d="M21.3458 252.904H23.6407C23.6416 256.311 25.0158 259.374 27.2474 261.61C29.4827 263.841 32.546 265.215 35.9526 265.216C39.3601 265.215 42.4243 263.841 44.6605 261.61C46.8921 259.374 48.2654 256.311 48.2663 252.904C48.2654 249.495 46.8921 246.432 44.6605 244.197C42.4243 241.965 39.3601 240.592 35.9526 240.59C32.546 240.592 29.4827 241.965 27.2474 244.197C25.0158 246.432 23.6416 249.495 23.6407 252.904H19.0508C19.0527 243.567 26.6177 236.002 35.9526 236C45.2893 236.002 52.8553 243.567 52.8562 252.904C52.8553 262.239 45.2893 269.804 35.9526 269.806C26.6177 269.804 19.0527 262.239 19.0508 252.904H21.3458Z" fill="#202020"/>
<path d="M15.0657 280.259C22.2048 280.259 28.1845 275.295 29.7396 268.63C29.4495 268.514 29.164 268.39 28.8822 268.259C28.291 270.936 26.9425 273.326 25.0708 275.198C22.5087 277.759 18.9745 279.341 15.0657 279.341C11.1579 279.341 7.62371 277.759 5.06164 275.198C2.50049 272.636 0.917892 269.101 0.917892 265.193C0.917892 261.284 2.50049 257.75 5.06164 255.188C7.62371 252.627 11.1579 251.044 15.0657 251.044C16.4886 251.044 17.8619 251.253 19.1571 251.644C19.1801 251.332 19.2122 251.022 19.2526 250.715C17.9234 250.332 16.518 250.126 15.0657 250.126C6.74519 250.126 -8.2016e-05 256.871 -8.2016e-05 265.193C-8.2016e-05 273.514 6.74519 280.259 15.0657 280.259ZM30.0618 263.712C29.623 259.217 27.2087 255.301 23.6984 252.842C23.6984 252.872 23.6984 252.9 23.6984 252.929C23.6984 253.297 23.7149 253.659 23.7461 254.018C24.2115 254.381 24.654 254.771 25.0708 255.188C27.1647 257.282 28.6049 260.026 29.0612 263.094C29.3834 263.315 29.7175 263.522 30.0618 263.712Z" fill="#202020"/>
<path d="M91.1908 110.122L92.3093 112.126L68.9413 125.17L80.8666 146.535L102.231 134.61L89.1869 111.241L91.1908 110.122L92.3093 112.126L91.1908 110.122L93.1947 109.004L107.357 134.377C107.651 134.904 107.726 135.54 107.561 136.121C107.396 136.702 106.999 137.205 106.472 137.499L81.0998 151.661C80.5723 151.955 79.9367 152.029 79.3559 151.865C78.7739 151.7 78.2717 151.303 77.9773 150.776L63.815 125.403C63.5202 124.875 63.4461 124.239 63.6115 123.658C63.7758 123.076 64.173 122.575 64.7004 122.28L90.0723 108.119C90.5997 107.824 91.2349 107.749 91.8169 107.914C92.3977 108.079 92.8999 108.476 93.1947 109.004L91.1908 110.122Z" fill="#202020"/>
<path d="M67.4633 171.171L93.6359 156.562L88.5537 147.458L87.7522 147.905L92.3869 156.208L67.8174 169.922L54.1025 145.351L69.9862 136.485L69.5388 135.684L52.8535 144.997L67.4633 171.171ZM85.5151 143.897L86.3167 143.45L79.2498 130.789L79.0261 130.388L73.5466 133.447L73.9941 134.248L78.672 131.637L85.5151 143.897Z" fill="#202020"/>
<path d="M386.017 227.728C386.404 227.488 386.596 227.276 386.76 227.013C386.901 226.782 387.016 226.49 387.099 226.094C387.248 225.407 387.263 224.419 387.21 223.271C387.148 221.544 386.926 219.479 387.345 217.275C387.559 216.176 387.958 215.032 388.658 213.969C389.353 212.903 390.343 211.947 391.598 211.19C392.682 210.532 394.093 210.878 394.75 211.963C395.407 213.047 395.061 214.458 393.977 215.115C393.339 215.504 392.929 215.895 392.623 216.303C392.358 216.661 392.169 217.039 392.023 217.479C391.771 218.244 391.677 219.211 391.687 220.318C391.688 221.983 391.944 223.89 391.761 225.906C391.662 226.914 391.436 227.978 390.902 229.008C390.374 230.037 389.511 230.985 388.396 231.653C387.313 232.31 385.901 231.963 385.244 230.88C384.587 229.796 384.934 228.384 386.017 227.728Z" fill="#202020"/>
<path d="M363.23 241.537C363.616 241.297 363.808 241.085 363.973 240.822C364.113 240.591 364.228 240.299 364.311 239.903C364.461 239.216 364.475 238.229 364.424 237.081C364.36 235.355 364.139 233.29 364.558 231.086C364.772 229.987 365.171 228.844 365.869 227.779C366.565 226.715 367.556 225.758 368.81 225.001C369.894 224.344 371.305 224.69 371.962 225.774C372.619 226.858 372.273 228.269 371.189 228.926C370.551 229.315 370.141 229.706 369.836 230.114C369.571 230.472 369.381 230.851 369.236 231.291C368.983 232.055 368.89 233.021 368.9 234.129C368.901 235.793 369.158 237.699 368.973 239.715C368.874 240.723 368.648 241.788 368.114 242.818C367.587 243.847 366.724 244.795 365.609 245.462C364.525 246.119 363.113 245.772 362.457 244.689C361.8 243.605 362.146 242.194 363.23 241.537Z" fill="#202020"/>
<path d="M388.441 231.624C387.476 232.213 386.413 232.543 385.389 232.606C384.492 232.666 383.643 232.538 382.869 232.319C381.512 231.932 380.354 231.293 379.266 230.67C377.646 229.724 376.159 228.808 374.879 228.441C374.239 228.253 373.67 228.185 373.101 228.241C372.531 228.301 371.934 228.478 371.198 228.921C370.114 229.578 368.703 229.232 368.046 228.148C367.389 227.063 367.735 225.653 368.819 224.995C369.91 224.332 371.04 223.915 372.151 223.738C373.123 223.582 374.071 223.608 374.951 223.755C376.497 224.015 377.832 224.615 379.022 225.243C380.796 226.195 382.32 227.225 383.508 227.692C384.1 227.932 384.574 228.032 384.943 228.031C385.316 228.025 385.612 227.963 386.062 227.699C387.146 227.042 388.557 227.388 389.214 228.472C389.87 229.555 389.525 230.967 388.441 231.624Z" fill="#202020"/>
<path d="M365.597 245.469C364.632 246.058 363.569 246.387 362.546 246.45C361.65 246.51 360.801 246.382 360.026 246.163C358.669 245.776 357.512 245.137 356.424 244.514C354.803 243.568 353.317 242.652 352.037 242.286C351.397 242.097 350.828 242.029 350.26 242.084C349.69 242.144 349.094 242.321 348.358 242.763L348.358 242.764L347.172 240.807L348.652 242.551C348.522 242.661 348.413 242.731 348.358 242.764L347.172 240.807L348.652 242.551C347.686 243.371 346.238 243.253 345.417 242.287C344.597 241.32 344.716 239.871 345.683 239.052C345.812 238.942 345.923 238.873 345.979 238.839L345.979 238.838C347.07 238.175 348.199 237.758 349.311 237.581C350.283 237.425 351.23 237.452 352.11 237.599C353.654 237.859 354.989 238.458 356.179 239.086C357.953 240.039 359.477 241.069 360.666 241.536C361.258 241.775 361.732 241.876 362.101 241.875C362.474 241.868 362.77 241.807 363.22 241.543C364.304 240.886 365.715 241.233 366.371 242.316C367.028 243.401 366.681 244.812 365.597 245.469Z" fill="#202020"/>
<path d="M375.879 251.389C376.979 250.722 377.644 249.797 377.998 248.767C378.356 247.732 378.426 246.597 378.412 245.427C378.375 243.089 378.017 240.583 378.62 238.483C379.025 237.083 379.811 235.856 381.447 234.858L380.971 234.073C380.969 234.075 380.966 234.077 380.963 234.078C379.6 234.904 378.714 235.937 378.174 237.07C377.632 238.207 377.43 239.429 377.373 240.654C377.265 243.103 377.705 245.601 377.363 247.545C377.131 248.844 376.62 249.858 375.39 250.611L375.866 251.397C375.87 251.394 375.875 251.391 375.879 251.389Z" fill="#202020"/>
<path d="M353.092 265.197C354.191 264.531 354.857 263.606 355.21 262.576C355.569 261.54 355.638 260.406 355.625 259.235C355.588 256.898 355.23 254.393 355.833 252.294C356.238 250.894 357.024 249.667 358.659 248.669L358.183 247.884C358.18 247.886 358.177 247.888 358.174 247.89C356.813 248.715 355.926 249.748 355.387 250.881C354.844 252.016 354.643 253.24 354.586 254.465C354.478 256.912 354.917 259.411 354.576 261.354C354.344 262.652 353.833 263.666 352.603 264.42L353.079 265.205C353.083 265.203 353.088 265.2 353.092 265.197Z" fill="#202020"/>
<path d="M375.891 251.379C375.898 251.375 375.905 251.371 375.911 251.367L375.435 250.582C374.504 251.142 373.639 251.264 372.728 251.132C371.818 250.999 370.866 250.588 369.877 250.053C367.891 248.992 365.786 247.441 363.375 246.937C361.774 246.6 360.024 246.769 358.211 247.867C358.205 247.871 358.199 247.875 358.193 247.879L358.668 248.664C359.9 247.92 361.024 247.668 362.111 247.703C363.198 247.741 364.257 248.079 365.305 248.566C367.406 249.535 369.414 251.101 371.524 251.786C372.919 252.243 374.423 252.269 375.891 251.379Z" fill="#202020"/>
<path d="M353.067 265.213L352.83 264.82L352.592 264.427C351.662 264.987 350.797 265.107 349.885 264.976C348.976 264.843 348.024 264.432 347.034 263.897C345.05 262.836 342.944 261.286 340.534 260.78C338.933 260.445 337.184 260.612 335.372 261.711L335.352 261.722L335.291 261.766L335.886 262.466L335.593 262.12L335.828 262.508L335.829 262.507C337.059 261.763 338.184 261.511 339.27 261.547C340.357 261.584 341.414 261.923 342.463 262.411C344.564 263.378 346.572 264.945 348.681 265.63C350.077 266.087 351.581 266.114 353.049 265.224C353.055 265.22 353.062 265.216 353.067 265.213Z" fill="#202020"/>
<path d="M60.475 21.1199L30.0977 33.8242C28.9281 34.3133 27.5838 33.7611 27.095 32.5924C26.6058 31.4228 27.1572 30.0788 28.3268 29.5897L58.704 16.8855C59.8736 16.3963 61.2176 16.9477 61.7068 18.1172C62.1955 19.286 61.6445 20.6308 60.475 21.1199Z" fill="#202020"/>
<path d="M14.4254 50.6452L44.8027 37.9409L45.1569 38.7878L14.7796 51.4921L14.4254 50.6452Z" fill="#202020"/>
<path d="M320.683 117.492C322.447 114.577 322.858 111.244 322.106 108.176C321.349 105.109 319.438 102.347 316.525 100.582C313.609 98.8186 310.277 98.4072 307.209 99.1583C304.142 99.9149 301.381 101.824 299.615 104.74C298.959 105.824 297.547 106.171 296.464 105.515C295.38 104.859 295.033 103.447 295.689 102.363C300.524 94.3761 310.914 91.8222 318.902 96.655C326.887 101.49 329.443 111.881 324.609 119.869C323.953 120.953 322.541 121.3 321.458 120.644C320.373 119.987 320.027 118.576 320.683 117.492Z" fill="#202020"/>
<path d="M273 102.918L273.785 103.394C275.81 100.05 278.994 97.8463 282.511 96.9816C286.029 96.1173 289.872 96.5935 293.215 98.6171C294.433 99.3539 295.499 100.244 296.404 101.249C296.586 100.994 296.774 100.745 296.967 100.504C296.029 99.4875 294.934 98.5843 293.691 97.8318C286.573 93.5231 277.31 95.7999 273 102.918ZM297.994 118.047L298.779 118.523C301.426 114.151 301.588 108.971 299.669 104.626C299.654 104.65 299.639 104.675 299.624 104.7C299.457 104.977 299.24 105.205 298.993 105.382C299.252 106.019 299.464 106.675 299.629 107.343C300.494 110.861 300.018 114.704 297.994 118.047Z" fill="#202020"/>
<path d="M374.987 14.9419L373.402 15.3658L369.846 2.06451C369.695 1.49815 369.857 0.893723 370.272 0.479616C370.687 0.0655097 371.292 -0.0959256 371.857 0.0563291L385.148 3.63103L398.445 7.20246C399.011 7.35472 399.453 7.79703 399.604 8.36339C399.755 8.92975 399.593 9.53353 399.179 9.94829L389.438 19.6729L379.7 29.4028C379.285 29.8169 378.681 29.979 378.114 29.8267C377.549 29.6745 377.106 29.2321 376.955 28.6658L373.402 15.3658L374.987 14.9419L376.572 14.5185L379.391 25.072L387.12 17.3517L394.848 9.63393L384.296 6.80016L373.751 3.96377L376.572 14.5185L374.987 14.9419Z" fill="#202020"/>
<path d="M363.403 37.6149L373.543 27.4834L375.998 25.0322L375.802 24.2998L373.079 27.0187L363.743 36.347L360.336 23.5963L356.927 10.8443L369.669 14.2714L373.39 15.2708L373.194 14.5391L369.839 13.638L356 9.91504L359.703 23.7656L363.403 37.6149ZM378.679 22.3553L383.685 17.3565L376.854 15.5216L377.049 16.254L382.417 17.6951L378.484 21.6229L378.679 22.3553Z" fill="#202020"/>
</g>
<g opacity="0.4">
<path d="M21.3458 564.904H23.6407C23.6416 568.311 25.0158 571.374 27.2474 573.61C29.4827 575.841 32.546 577.215 35.9526 577.216C39.3601 577.215 42.4243 575.841 44.6605 573.61C46.8921 571.374 48.2654 568.311 48.2663 564.904C48.2654 561.495 46.8921 558.432 44.6605 556.197C42.4243 553.965 39.3601 552.592 35.9526 552.59C32.546 552.592 29.4827 553.965 27.2474 556.197C25.0158 558.432 23.6416 561.495 23.6407 564.904H19.0508C19.0527 555.567 26.6177 548.002 35.9526 548C45.2893 548.002 52.8553 555.567 52.8562 564.904C52.8553 574.239 45.2893 581.804 35.9526 581.806C26.6177 581.804 19.0527 574.239 19.0508 564.904H21.3458Z" fill="#202020"/>
<path d="M15.0657 592.259C22.2048 592.259 28.1845 587.295 29.7396 580.63C29.4495 580.514 29.164 580.39 28.8822 580.259C28.291 582.936 26.9425 585.326 25.0708 587.198C22.5087 589.759 18.9745 591.341 15.0657 591.341C11.1579 591.341 7.62371 589.759 5.06164 587.198C2.50049 584.636 0.917892 581.101 0.917892 577.193C0.917892 573.284 2.50049 569.75 5.06164 567.188C7.62371 564.627 11.1579 563.044 15.0657 563.044C16.4886 563.044 17.8619 563.253 19.1571 563.644C19.1801 563.332 19.2122 563.022 19.2526 562.715C17.9234 562.332 16.518 562.126 15.0657 562.126C6.74519 562.126 -8.2016e-05 568.871 -8.2016e-05 577.193C-8.2016e-05 585.514 6.74519 592.259 15.0657 592.259ZM30.0618 575.712C29.623 571.217 27.2087 567.301 23.6984 564.842C23.6984 564.872 23.6984 564.9 23.6984 564.929C23.6984 565.297 23.7149 565.659 23.7461 566.018C24.2115 566.381 24.654 566.771 25.0708 567.188C27.1647 569.282 28.6049 572.026 29.0612 575.094C29.3834 575.315 29.7175 575.522 30.0618 575.712Z" fill="#202020"/>
<path d="M91.1908 422.122L92.3093 424.126L68.9413 437.17L80.8666 458.535L102.231 446.61L89.1869 423.241L91.1908 422.122L92.3093 424.126L91.1908 422.122L93.1947 421.004L107.357 446.377C107.651 446.904 107.726 447.54 107.561 448.121C107.396 448.702 106.999 449.205 106.472 449.499L81.0998 463.661C80.5723 463.955 79.9367 464.029 79.3559 463.865C78.7739 463.7 78.2717 463.303 77.9773 462.776L63.815 437.403C63.5202 436.875 63.4461 436.239 63.6115 435.658C63.7758 435.076 64.173 434.575 64.7004 434.28L90.0723 420.119C90.5997 419.824 91.2349 419.749 91.8169 419.914C92.3977 420.079 92.8999 420.476 93.1947 421.004L91.1908 422.122Z" fill="#202020"/>
<path d="M67.4633 483.171L93.6359 468.562L88.5537 459.458L87.7522 459.905L92.3869 468.208L67.8174 481.922L54.1025 457.351L69.9862 448.485L69.5388 447.684L52.8535 456.997L67.4633 483.171ZM85.5151 455.897L86.3167 455.45L79.2498 442.789L79.0261 442.388L73.5466 445.447L73.9941 446.248L78.672 443.637L85.5151 455.897Z" fill="#202020"/>
<path d="M386.017 539.728C386.404 539.488 386.596 539.276 386.76 539.013C386.901 538.782 387.016 538.49 387.099 538.094C387.248 537.407 387.263 536.419 387.21 535.271C387.148 533.544 386.926 531.479 387.345 529.275C387.559 528.176 387.958 527.032 388.658 525.969C389.353 524.903 390.343 523.947 391.598 523.19C392.682 522.532 394.093 522.878 394.75 523.963C395.407 525.047 395.061 526.458 393.977 527.115C393.339 527.504 392.929 527.895 392.623 528.303C392.358 528.661 392.169 529.039 392.023 529.479C391.771 530.244 391.677 531.211 391.687 532.318C391.688 533.983 391.944 535.89 391.761 537.906C391.662 538.914 391.436 539.978 390.902 541.008C390.374 542.037 389.511 542.985 388.396 543.653C387.313 544.31 385.901 543.963 385.244 542.88C384.587 541.796 384.934 540.384 386.017 539.728Z" fill="#202020"/>
<path d="M363.23 553.537C363.616 553.297 363.808 553.085 363.973 552.822C364.113 552.591 364.228 552.299 364.311 551.903C364.461 551.216 364.475 550.229 364.424 549.081C364.36 547.355 364.139 545.29 364.558 543.086C364.772 541.987 365.171 540.844 365.869 539.779C366.565 538.715 367.556 537.758 368.81 537.001C369.894 536.344 371.305 536.69 371.962 537.774C372.619 538.858 372.273 540.269 371.189 540.926C370.551 541.315 370.141 541.706 369.836 542.114C369.571 542.472 369.381 542.851 369.236 543.291C368.983 544.055 368.89 545.021 368.9 546.129C368.901 547.793 369.158 549.699 368.973 551.715C368.874 552.723 368.648 553.788 368.114 554.818C367.587 555.847 366.724 556.795 365.609 557.462C364.525 558.119 363.113 557.772 362.457 556.689C361.8 555.605 362.146 554.194 363.23 553.537Z" fill="#202020"/>
<path d="M388.441 543.624C387.476 544.213 386.413 544.543 385.389 544.606C384.492 544.666 383.643 544.538 382.869 544.319C381.512 543.932 380.354 543.293 379.266 542.67C377.646 541.724 376.159 540.808 374.879 540.441C374.239 540.253 373.67 540.185 373.101 540.241C372.531 540.301 371.934 540.478 371.198 540.921C370.114 541.578 368.703 541.232 368.046 540.148C367.389 539.063 367.735 537.653 368.819 536.995C369.91 536.332 371.04 535.915 372.151 535.738C373.123 535.582 374.071 535.608 374.951 535.755C376.497 536.015 377.832 536.615 379.022 537.243C380.796 538.195 382.32 539.225 383.508 539.692C384.1 539.932 384.574 540.032 384.943 540.031C385.316 540.025 385.612 539.963 386.062 539.699C387.146 539.042 388.557 539.388 389.214 540.472C389.87 541.555 389.525 542.967 388.441 543.624Z" fill="#202020"/>
<path d="M365.597 557.469C364.632 558.058 363.569 558.387 362.546 558.45C361.65 558.51 360.801 558.382 360.026 558.163C358.669 557.776 357.512 557.137 356.424 556.514C354.803 555.568 353.317 554.652 352.037 554.286C351.397 554.097 350.828 554.029 350.26 554.084C349.69 554.144 349.094 554.321 348.358 554.763L348.358 554.764L347.172 552.807L348.652 554.551C348.522 554.661 348.413 554.731 348.358 554.764L347.172 552.807L348.652 554.551C347.686 555.371 346.238 555.253 345.417 554.287C344.597 553.32 344.716 551.871 345.683 551.052C345.812 550.942 345.923 550.873 345.979 550.839L345.979 550.838C347.07 550.175 348.199 549.758 349.311 549.581C350.283 549.425 351.23 549.452 352.11 549.599C353.654 549.859 354.989 550.458 356.179 551.086C357.953 552.039 359.477 553.069 360.666 553.536C361.258 553.775 361.732 553.876 362.101 553.875C362.474 553.868 362.77 553.807 363.22 553.543C364.304 552.886 365.715 553.233 366.371 554.316C367.028 555.401 366.681 556.812 365.597 557.469Z" fill="#202020"/>
<path d="M375.879 563.389C376.979 562.722 377.644 561.797 377.998 560.767C378.356 559.732 378.426 558.596 378.412 557.427C378.375 555.088 378.017 552.582 378.62 550.483C379.025 549.083 379.811 547.856 381.447 546.858L380.971 546.073C380.969 546.074 380.966 546.076 380.963 546.078C379.6 546.904 378.714 547.937 378.174 549.07C377.632 550.206 377.43 551.429 377.373 552.654C377.265 555.102 377.705 557.601 377.363 559.545C377.131 560.843 376.62 561.857 375.39 562.611L375.866 563.396C375.87 563.394 375.875 563.391 375.879 563.389Z" fill="#202020"/>
<path d="M353.092 577.198C354.191 576.532 354.857 575.606 355.21 574.576C355.569 573.541 355.638 572.406 355.625 571.236C355.588 568.898 355.23 566.393 355.833 564.294C356.238 562.894 357.024 561.667 358.659 560.67L358.183 559.885C358.18 559.886 358.177 559.888 358.174 559.89C356.813 560.715 355.926 561.748 355.387 562.881C354.844 564.017 354.643 565.24 354.586 566.465C354.478 568.912 354.917 571.411 354.576 573.355C354.344 574.652 353.833 575.666 352.603 576.42L353.079 577.205C353.083 577.203 353.088 577.2 353.092 577.198Z" fill="#202020"/>
<path d="M375.891 563.379C375.898 563.375 375.905 563.371 375.911 563.367L375.435 562.582C374.504 563.142 373.639 563.264 372.728 563.132C371.818 562.999 370.866 562.588 369.877 562.054C367.891 560.992 365.786 559.442 363.375 558.937C361.774 558.6 360.024 558.769 358.211 559.868C358.205 559.871 358.199 559.875 358.193 559.879L358.668 560.664C359.9 559.92 361.024 559.668 362.111 559.703C363.198 559.741 364.257 560.08 365.305 560.566C367.406 561.535 369.414 563.101 371.524 563.786C372.919 564.243 374.423 564.269 375.891 563.379Z" fill="#202020"/>
<path d="M353.067 577.212L352.83 576.819L352.592 576.427C351.662 576.987 350.797 577.107 349.885 576.976C348.976 576.843 348.024 576.432 347.034 575.897C345.05 574.836 342.944 573.286 340.534 572.78C338.933 572.444 337.184 572.612 335.372 573.71L335.352 573.722L335.291 573.766L335.886 574.465L335.593 574.12L335.828 574.507L335.829 574.507C337.059 573.763 338.184 573.511 339.27 573.547C340.357 573.584 341.414 573.923 342.463 574.41C344.564 575.378 346.572 576.945 348.681 577.63C350.077 578.087 351.581 578.113 353.049 577.224C353.055 577.22 353.062 577.216 353.067 577.212Z" fill="#202020"/>
<path d="M60.475 333.12L30.0977 345.824C28.9281 346.313 27.5838 345.761 27.095 344.592C26.6058 343.423 27.1572 342.079 28.3268 341.59L58.704 328.885C59.8736 328.396 61.2176 328.948 61.7068 330.117C62.1955 331.286 61.6445 332.631 60.475 333.12Z" fill="#202020"/>
<path d="M14.4254 362.645L44.8027 349.941L45.1569 350.788L14.7796 363.492L14.4254 362.645Z" fill="#202020"/>
<path d="M320.683 429.492C322.447 426.577 322.858 423.244 322.106 420.176C321.349 417.109 319.438 414.347 316.525 412.582C313.609 410.819 310.277 410.407 307.209 411.158C304.142 411.915 301.381 413.824 299.615 416.74C298.959 417.824 297.547 418.171 296.464 417.515C295.38 416.859 295.033 415.447 295.689 414.363C300.524 406.376 310.914 403.822 318.902 408.655C326.887 413.49 329.443 423.881 324.609 431.869C323.953 432.953 322.541 433.3 321.458 432.644C320.373 431.987 320.027 430.576 320.683 429.492Z" fill="#202020"/>
<path d="M273 414.918L273.785 415.394C275.81 412.05 278.994 409.846 282.511 408.982C286.029 408.117 289.872 408.593 293.215 410.617C294.433 411.354 295.499 412.244 296.404 413.249C296.586 412.994 296.774 412.745 296.967 412.504C296.029 411.487 294.934 410.584 293.691 409.832C286.573 405.523 277.31 407.8 273 414.918ZM297.994 430.047L298.779 430.523C301.426 426.151 301.588 420.971 299.669 416.626C299.654 416.65 299.639 416.675 299.624 416.7C299.457 416.977 299.24 417.205 298.993 417.382C299.252 418.019 299.464 418.675 299.629 419.343C300.494 422.861 300.018 426.704 297.994 430.047Z" fill="#202020"/>
<path d="M374.987 326.942L373.402 327.366L369.846 314.065C369.695 313.498 369.857 312.894 370.272 312.48C370.687 312.066 371.292 311.904 371.857 312.056L385.148 315.631L398.445 319.202C399.011 319.355 399.453 319.797 399.604 320.363C399.755 320.93 399.593 321.534 399.179 321.948L389.438 331.673L379.7 341.403C379.285 341.817 378.681 341.979 378.114 341.827C377.549 341.674 377.106 341.232 376.955 340.666L373.402 327.366L374.987 326.942L376.572 326.519L379.391 337.072L387.12 329.352L394.848 321.634L384.296 318.8L373.751 315.964L376.572 326.519L374.987 326.942Z" fill="#202020"/>
<path d="M363.403 349.615L373.543 339.483L375.998 337.032L375.802 336.3L373.079 339.019L363.743 348.347L360.336 335.596L356.927 322.844L369.669 326.271L373.39 327.271L373.194 326.539L369.839 325.638L356 321.915L359.703 335.766L363.403 349.615ZM378.679 334.355L383.685 329.356L376.854 327.522L377.049 328.254L382.417 329.695L378.484 333.623L378.679 334.355Z" fill="#202020"/>
</g>
</svg>
