<svg width="31" height="28" viewBox="0 0 31 28" fill="none" xmlns="http://www.w3.org/2000/svg">
<g>
<g clip-path="url(#clip0)">
<mask id="path-1-inside-1" fill="white">
<path d="M26.9254 4.55206C25.4983 3.12496 23.609 2.34497 21.5925 2.34497C19.5761 2.34497 17.681 3.13074 16.2539 4.55784L15.5086 5.30317L14.7517 4.54629C13.3246 3.11919 11.4237 2.32764 9.40726 2.32764C7.3966 2.32764 5.5015 3.11341 4.08018 4.53473C2.65307 5.96183 1.8673 7.85693 1.87308 9.87335C1.87308 11.8898 2.66463 13.7791 4.09173 15.2062L14.9423 26.0568C15.0926 26.207 15.2948 26.2879 15.4912 26.2879C15.6877 26.2879 15.8899 26.2128 16.0401 26.0626L26.9138 15.2293C28.3409 13.8022 29.1267 11.9071 29.1267 9.89069C29.1325 7.87426 28.3525 5.97916 26.9254 4.55206ZM25.8161 14.1258L15.4912 24.4101L5.1895 14.1084C4.05707 12.976 3.43307 11.4738 3.43307 9.87335C3.43307 8.27292 4.05129 6.77071 5.18373 5.64405C6.31039 4.5174 7.8126 3.8934 9.40726 3.8934C11.0077 3.8934 12.5157 4.5174 13.6481 5.64983L14.9539 6.9556C15.2601 7.26182 15.7512 7.26182 16.0574 6.9556L17.3517 5.66139C18.4841 4.52895 19.9921 3.90496 21.5867 3.90496C23.1814 3.90496 24.6836 4.52895 25.8161 5.65561C26.9485 6.78804 27.5667 8.29025 27.5667 9.89069C27.5725 11.4911 26.9485 12.9933 25.8161 14.1258Z"/>
</mask>
<path d="M26.9254 4.55206C25.4983 3.12496 23.609 2.34497 21.5925 2.34497C19.5761 2.34497 17.681 3.13074 16.2539 4.55784L15.5086 5.30317L14.7517 4.54629C13.3246 3.11919 11.4237 2.32764 9.40726 2.32764C7.3966 2.32764 5.5015 3.11341 4.08018 4.53473C2.65307 5.96183 1.8673 7.85693 1.87308 9.87335C1.87308 11.8898 2.66463 13.7791 4.09173 15.2062L14.9423 26.0568C15.0926 26.207 15.2948 26.2879 15.4912 26.2879C15.6877 26.2879 15.8899 26.2128 16.0401 26.0626L26.9138 15.2293C28.3409 13.8022 29.1267 11.9071 29.1267 9.89069C29.1325 7.87426 28.3525 5.97916 26.9254 4.55206ZM25.8161 14.1258L15.4912 24.4101L5.1895 14.1084C4.05707 12.976 3.43307 11.4738 3.43307 9.87335C3.43307 8.27292 4.05129 6.77071 5.18373 5.64405C6.31039 4.5174 7.8126 3.8934 9.40726 3.8934C11.0077 3.8934 12.5157 4.5174 13.6481 5.64983L14.9539 6.9556C15.2601 7.26182 15.7512 7.26182 16.0574 6.9556L17.3517 5.66139C18.4841 4.52895 19.9921 3.90496 21.5867 3.90496C23.1814 3.90496 24.6836 4.52895 25.8161 5.65561C26.9485 6.78804 27.5667 8.29025 27.5667 9.89069C27.5725 11.4911 26.9485 12.9933 25.8161 14.1258Z" fill="white"/>
<path d="M16.2539 4.55784L-349.902 -361.599L-349.902 -361.599L16.2539 4.55784ZM15.5086 5.30317L-350.647 371.46L15.5088 737.614L381.664 371.46L15.5086 5.30317ZM14.7517 4.54629L-351.404 370.703L-351.404 370.703L14.7517 4.54629ZM1.87308 9.87335H519.696V9.13149L519.694 8.38962L1.87308 9.87335ZM4.09173 15.2062L-362.064 381.363L4.09173 15.2062ZM14.9423 26.0568L381.098 -340.1H381.098L14.9423 26.0568ZM16.0401 26.0626L-349.433 -340.776L-349.774 -340.435L-350.115 -340.094L16.0401 26.0626ZM26.9138 15.2293L392.387 382.067L392.728 381.727L393.069 381.386L26.9138 15.2293ZM29.1267 9.89069L-488.694 8.40696L-488.696 9.14882V9.89069H29.1267ZM25.8161 14.1258L391.252 381L391.612 380.642L391.972 380.282L25.8161 14.1258ZM15.4912 24.4101L-350.664 390.567L14.7734 756.003L380.927 391.284L15.4912 24.4101ZM5.1895 14.1084L-360.966 380.265L5.1895 14.1084ZM5.18373 5.64405L370.402 372.736L370.871 372.269L371.339 371.801L5.18373 5.64405ZM13.6481 5.64983L-352.507 371.806L-352.507 371.806L13.6481 5.64983ZM14.9539 6.9556L381.109 -359.201L381.109 -359.201L14.9539 6.9556ZM16.0574 6.9556L382.213 373.112L382.213 373.112L16.0574 6.9556ZM17.3517 5.66139L-348.804 -360.495L-348.804 -360.495L17.3517 5.66139ZM25.8161 5.65561L391.972 -360.501L391.503 -360.969L391.034 -361.436L25.8161 5.65561ZM27.5667 9.89069H-490.256V10.8254L-490.253 11.7601L27.5667 9.89069ZM393.081 -361.604C294.266 -460.419 160.552 -515.478 21.5925 -515.478V520.168C-113.334 520.168 -243.27 466.669 -339.23 370.709L393.081 -361.604ZM21.5925 -515.478C-117.965 -515.478 -251.51 -459.99 -349.902 -361.599L382.409 370.714C286.872 466.252 157.117 520.168 21.5925 520.168V-515.478ZM-349.902 -361.599L-350.647 -360.853L381.664 371.46L382.41 370.714L-349.902 -361.599ZM381.664 -360.853L380.907 -361.61L-351.404 370.703L-350.647 371.46L381.664 -360.853ZM380.907 -361.61C282.937 -459.58 149.559 -515.495 9.40726 -515.495V520.15C-126.711 520.15 -256.288 465.819 -351.404 370.703L380.907 -361.61ZM9.40726 -515.495C-130.057 -515.495 -263.627 -460.069 -362.075 -361.622L370.236 370.691C274.63 466.296 144.85 520.15 9.40726 520.15V-515.495ZM-362.075 -361.622C-460.433 -263.264 -516.351 -129.275 -515.948 11.3571L519.694 8.38962C520.085 144.989 465.74 275.188 370.236 370.691L-362.075 -361.622ZM-515.95 9.87335C-515.95 150.869 -459.433 283.994 -362.064 381.363L370.247 -350.95C464.762 -256.436 519.696 -127.09 519.696 9.87335H-515.95ZM-362.064 381.363L-351.213 392.213L381.098 -340.1L370.247 -350.95L-362.064 381.363ZM-351.213 392.213C-254.481 488.945 -122.786 544.111 15.4912 544.111V-491.535C153.375 -491.535 284.666 -436.531 381.098 -340.1L-351.213 392.213ZM15.4912 544.111C143.776 544.111 278.586 495.828 382.196 392.219L-350.115 -340.094C-246.807 -443.403 -112.401 -491.535 15.4912 -491.535V544.111ZM381.513 392.901L392.387 382.067L-338.559 -351.609L-349.433 -340.776L381.513 392.901ZM393.069 381.386C491.462 282.994 546.95 149.449 546.95 9.89069H-488.696C-488.696 -125.634 -434.78 -255.389 -339.242 -350.927L393.069 381.386ZM546.947 11.3744C547.347 -128.238 492.161 -262.524 393.081 -361.604L-339.23 370.709C-435.456 274.483 -489.082 143.987 -488.694 8.40696L546.947 11.3744ZM-339.62 -352.749L-349.945 -342.464L380.927 391.284L391.252 381L-339.62 -352.749ZM381.647 -341.746L371.345 -352.048L-360.966 380.265L-350.664 390.567L381.647 -341.746ZM371.345 -352.048C467.012 -256.382 521.256 -126.302 521.256 9.87335H-514.39C-514.39 149.25 -458.897 282.334 -360.966 380.265L371.345 -352.048ZM521.256 9.87335C521.256 144.528 468.039 275.597 370.402 372.736L-360.034 -361.448C-459.937 -262.055 -514.39 -127.983 -514.39 9.87335H521.256ZM371.339 371.801C275.589 467.55 145.478 521.716 9.40726 521.716V-513.929C-129.853 -513.929 -262.969 -458.515 -360.972 -360.512L371.339 371.801ZM9.40726 521.716C-126.236 521.716 -256.465 467.849 -352.507 371.806L379.804 -360.507C281.496 -458.814 148.251 -513.929 9.40726 -513.929V521.716ZM-352.507 371.806L-351.202 373.112L381.109 -359.201L379.804 -360.507L-352.507 371.806ZM-351.202 373.112C-148.673 575.64 179.684 575.64 382.213 373.112L-350.098 -359.201C-148.182 -561.116 179.193 -561.116 381.109 -359.201L-351.202 373.112ZM382.213 373.112L383.507 371.818L-348.804 -360.495L-350.098 -359.201L382.213 373.112ZM383.507 371.818C287.652 467.673 157.501 521.728 21.5867 521.728V-513.918C-117.517 -513.918 -250.684 -458.615 -348.804 -360.495L383.507 371.818ZM21.5867 521.728C-114.712 521.728 -244.225 467.439 -339.402 372.747L391.034 -361.436C293.592 -458.381 161.075 -513.918 21.5867 -513.918V521.728ZM-340.34 371.812C-436.914 275.238 -490.256 144.78 -490.256 9.89069H545.39C545.39 -128.2 490.811 -261.661 391.972 -360.501L-340.34 371.812ZM-490.253 11.7601C-490.749 -125.768 -435.963 -256.408 -340.34 -352.031L391.972 380.282C489.86 282.394 545.894 148.75 545.386 8.0213L-490.253 11.7601Z" fill="white" mask="url(#path-1-inside-1)"/>
</g>
<path d="M0.816756 7.92217C1.37094 3.76587 5.51203 1.09169 9.52828 2.29657L15.4999 4.08804L21.6255 2.25036C25.5888 1.06136 29.6883 3.6507 30.3175 7.74043L30.4893 8.85733L29.1267 12.9454L26.4013 17.0334L15.4999 27.9349L4.59842 17.0334L0.510376 10.22L0.816756 7.92217Z" fill="white"/>
<mask id="path-4-inside-2" fill="white">
<path d="M28.496 3.21135C26.8728 1.58808 24.7237 0.700868 22.4301 0.700868C20.1365 0.700868 17.9809 1.59465 16.3576 3.21792L15.5099 4.0657L14.6489 3.20478C13.0257 1.58151 10.8635 0.681152 8.56987 0.681152C6.28283 0.681152 4.12723 1.57494 2.51052 3.19163C0.88725 4.8149 -0.00653597 6.9705 3.59862e-05 9.26411C3.59862e-05 11.5577 0.900394 13.7067 2.52367 15.33L14.8658 27.6721C15.0367 27.843 15.2667 27.935 15.4901 27.935C15.7136 27.935 15.9436 27.8496 16.1145 27.6787L28.4829 15.3563C30.1062 13.733 31 11.5774 31 9.28382C31.0065 6.99021 30.1193 4.83462 28.496 3.21135ZM27.2342 14.1011L15.4901 25.7991L3.77234 14.0813C2.48424 12.7932 1.77446 11.0845 1.77446 9.26411C1.77446 7.44368 2.47766 5.73497 3.76577 4.45345C5.0473 3.17192 6.75601 2.46215 8.56987 2.46215C10.3903 2.46215 12.1056 3.17192 13.3937 4.46002L14.879 5.94528C15.2273 6.29359 15.7859 6.29359 16.1342 5.94528L17.6063 4.47316C18.8944 3.18506 20.6097 2.47529 22.4236 2.47529C24.2374 2.47529 25.9461 3.18506 27.2342 4.46659C28.5223 5.75469 29.2255 7.46339 29.2255 9.28382C29.2321 11.1042 28.5223 12.813 27.2342 14.1011Z"/>
</mask>
<path d="M28.496 3.21135C26.8728 1.58808 24.7237 0.700868 22.4301 0.700868C20.1365 0.700868 17.9809 1.59465 16.3576 3.21792L15.5099 4.0657L14.6489 3.20478C13.0257 1.58151 10.8635 0.681152 8.56987 0.681152C6.28283 0.681152 4.12723 1.57494 2.51052 3.19163C0.88725 4.8149 -0.00653597 6.9705 3.59862e-05 9.26411C3.59862e-05 11.5577 0.900394 13.7067 2.52367 15.33L14.8658 27.6721C15.0367 27.843 15.2667 27.935 15.4901 27.935C15.7136 27.935 15.9436 27.8496 16.1145 27.6787L28.4829 15.3563C30.1062 13.733 31 11.5774 31 9.28382C31.0065 6.99021 30.1193 4.83462 28.496 3.21135ZM27.2342 14.1011L15.4901 25.7991L3.77234 14.0813C2.48424 12.7932 1.77446 11.0845 1.77446 9.26411C1.77446 7.44368 2.47766 5.73497 3.76577 4.45345C5.0473 3.17192 6.75601 2.46215 8.56987 2.46215C10.3903 2.46215 12.1056 3.17192 13.3937 4.46002L14.879 5.94528C15.2273 6.29359 15.7859 6.29359 16.1342 5.94528L17.6063 4.47316C18.8944 3.18506 20.6097 2.47529 22.4236 2.47529C24.2374 2.47529 25.9461 3.18506 27.2342 4.46659C28.5223 5.75469 29.2255 7.46339 29.2255 9.28382C29.2321 11.1042 28.5223 12.813 27.2342 14.1011Z" fill="white"/>
<path d="M16.3576 3.21792L-400.13 -413.271L-400.13 -413.271L16.3576 3.21792ZM15.5099 4.0657L-400.977 420.554L15.5101 837.04L431.997 420.554L15.5099 4.0657ZM14.6489 3.20478L-401.838 419.693L-401.838 419.694L14.6489 3.20478ZM3.59862e-05 9.26411H589.003V8.42026L589.001 7.57642L3.59862e-05 9.26411ZM2.52367 15.33L-413.964 431.819L2.52367 15.33ZM14.8658 27.6721L431.353 -388.817H431.353L14.8658 27.6721ZM16.1145 27.6787L-399.596 -389.585L-399.985 -389.198L-400.373 -388.81L16.1145 27.6787ZM28.4829 15.3563L444.194 432.62L444.582 432.233L444.97 431.845L28.4829 15.3563ZM31 9.28382L-558.001 7.59614L-558.003 8.43998V9.28382H31ZM27.2342 14.1011L442.903 431.406L443.313 430.998L443.722 430.59L27.2342 14.1011ZM15.4901 25.7991L-400.997 442.288L14.6736 857.957L431.159 443.104L15.4901 25.7991ZM3.77234 14.0813L-412.715 430.57H-412.715L3.77234 14.0813ZM3.76577 4.45345L419.187 422.006L419.721 421.475L420.253 420.942L3.76577 4.45345ZM13.3937 4.46002L-403.094 420.949L-403.094 420.949L13.3937 4.46002ZM14.879 5.94528L431.366 -410.543L431.366 -410.543L14.879 5.94528ZM16.1342 5.94528L432.622 422.434L432.622 422.434L16.1342 5.94528ZM17.6063 4.47316L-398.881 -412.015L-398.881 -412.015L17.6063 4.47316ZM27.2342 4.46659L443.722 -412.022L443.189 -412.555L442.655 -413.086L27.2342 4.46659ZM29.2255 9.28382H-559.777V10.347L-559.774 11.4102L29.2255 9.28382ZM444.983 -413.277C332.586 -525.675 180.491 -588.302 22.4301 -588.302V589.704C-131.043 589.704 -278.84 528.851 -387.991 419.7L444.983 -413.277ZM22.4301 -588.302C-136.311 -588.302 -288.213 -525.187 -400.13 -413.271L432.845 419.707C324.175 528.377 176.584 589.704 22.4301 589.704V-588.302ZM-400.13 -413.271L-400.978 -412.423L431.997 420.554L432.845 419.706L-400.13 -413.271ZM431.997 -412.423L431.136 -413.284L-401.838 419.694L-400.977 420.554L431.997 -412.423ZM431.136 -413.284C319.699 -524.721 167.987 -588.322 8.56987 -588.322V589.684C-146.26 589.684 -293.648 527.884 -401.838 419.693L431.136 -413.284ZM8.56987 -588.322C-150.065 -588.322 -301.996 -525.277 -413.977 -413.297L418.998 419.68C310.251 528.427 162.631 589.684 8.56987 589.684V-588.322ZM-413.977 -413.297C-525.855 -301.419 -589.459 -149.012 -589.001 10.9518L589.001 7.57642C589.446 162.953 527.63 311.049 418.998 419.68L-413.977 -413.297ZM-589.003 9.26411C-589.003 169.642 -524.717 321.065 -413.964 431.819L419.011 -401.159C526.518 -293.652 589.003 -146.526 589.003 9.26411H-589.003ZM-413.964 431.819L-401.622 444.161L431.353 -388.817L419.011 -401.159L-413.964 431.819ZM-401.622 444.161C-291.592 554.19 -141.794 616.938 15.4901 616.938V-561.068C172.328 -561.068 321.666 -498.504 431.353 -388.817L-401.622 444.161ZM15.4901 616.938C161.409 616.938 314.75 562.019 432.602 444.167L-400.373 -388.81C-282.863 -506.319 -129.982 -561.068 15.4901 -561.068V616.938ZM431.825 444.943L444.194 432.62L-387.228 -401.908L-399.596 -389.585L431.825 444.943ZM444.97 431.845C556.888 319.928 620.003 168.026 620.003 9.28382H-558.003C-558.003 -144.871 -496.675 -292.462 -388.004 -401.132L444.97 431.845ZM620.001 10.9715C620.456 -147.832 557.683 -300.578 444.983 -413.277L-387.991 419.7C-497.445 310.247 -558.443 161.813 -558.001 7.59614L620.001 10.9715ZM-388.435 -403.204L-400.179 -391.506L431.159 443.104L442.903 431.406L-388.435 -403.204ZM431.978 -390.69L420.26 -402.407L-412.715 430.57L-400.997 442.288L431.978 -390.69ZM420.26 -402.407C529.077 -293.591 590.777 -145.63 590.777 9.26411H-587.229C-587.229 167.799 -524.108 319.177 -412.715 430.57L420.26 -402.407ZM590.777 9.26411C590.777 162.429 530.245 311.514 419.187 422.006L-411.655 -413.099C-525.29 -300.044 -587.229 -147.542 -587.229 9.26411H590.777ZM420.253 420.942C311.341 529.853 163.345 591.465 8.56987 591.465V-586.541C-149.833 -586.541 -301.247 -523.51 -412.722 -412.035L420.253 420.942ZM8.56987 591.465C-145.719 591.465 -293.849 530.193 -403.094 420.949L429.881 -412.029C318.06 -523.849 166.499 -586.541 8.56987 -586.541V591.465ZM-403.094 420.949L-401.608 422.434L431.366 -410.543L429.881 -412.029L-403.094 420.949ZM-401.608 422.434C-171.24 652.801 202.253 652.801 432.622 422.434L-400.353 -410.543C-170.682 -640.214 201.695 -640.214 431.366 -410.543L-401.608 422.434ZM432.622 422.434L434.094 420.962L-398.881 -412.015L-400.353 -410.543L432.622 422.434ZM434.094 420.962C325.062 529.993 177.021 591.478 22.4236 591.478V-586.528C-135.801 -586.528 -287.274 -523.623 -398.881 -412.015L434.094 420.962ZM22.4236 591.478C-132.611 591.478 -279.926 529.727 -388.187 422.019L442.655 -413.086C331.819 -523.357 181.086 -586.528 22.4236 -586.528V591.478ZM-389.253 420.955C-499.103 311.106 -559.777 162.715 -559.777 9.28382H618.229C618.229 -147.788 556.148 -299.596 443.722 -412.022L-389.253 420.955ZM-559.774 11.4102C-560.338 -145.022 -498.021 -293.62 -389.253 -402.388L443.722 430.59C555.066 319.246 618.803 167.231 618.225 7.15746L-559.774 11.4102Z" fill="white" mask="url(#path-4-inside-2)"/>
</g>
<defs>
<clipPath id="clip0">
<rect width="27.2536" height="27.2536" fill="white" transform="translate(1.87305 0.681152)"/>
</clipPath>
</defs>
</svg>
