<svg width="15" height="15" viewBox="0 0 15 15" fill="none" xmlns="http://www.w3.org/2000/svg">
<path d="M0.522405 4.53375C0.810982 4.53375 1.04481 4.29985 1.04481 4.01134V1.78394L4.40945 5.14789C4.51149 5.24986 4.64516 5.30085 4.77882 5.30085C4.91256 5.30085 5.0463 5.24986 5.14827 5.14782C5.35229 4.9438 5.35229 4.61301 5.1482 4.40907L1.78342 1.04505H4.01131C4.29981 1.04505 4.53371 0.811157 4.53371 0.522649C4.53371 0.234142 4.29988 0.000244141 4.01131 0.000244141H0.522405C0.233829 0.000244141 0 0.234142 0 0.522649V4.01141C0 4.29985 0.233829 4.53375 0.522405 4.53375Z" fill="#EF8B54"/>
<path d="M14.4777 10.4663C14.1891 10.4663 13.9553 10.7002 13.9553 10.9887V13.2162L10.487 9.74798C10.283 9.54397 9.95224 9.54397 9.74823 9.74798C9.54421 9.952 9.54421 10.2828 9.74823 10.4867L13.2164 13.9549H10.989C10.7005 13.9549 10.4666 14.1888 10.4666 14.4773C10.4666 14.7658 10.7005 14.9997 10.989 14.9997H14.4777C14.7663 14.9997 15.0001 14.7658 15.0001 14.4773V10.9887C15.0001 10.7002 14.7662 10.4663 14.4777 10.4663Z" fill="#EF8B54"/>
<path d="M4.51316 9.74799L1.0453 13.2161V10.9887C1.0453 10.7002 0.81147 10.4663 0.522894 10.4663C0.234317 10.4663 0.000488281 10.7002 0.000488281 10.9887V14.4774C0.000488281 14.7659 0.234317 14.9998 0.522894 14.9998H4.01145C4.29995 14.9998 4.53385 14.7659 4.53385 14.4774C4.53385 14.1889 4.30002 13.955 4.01145 13.955H1.78405L5.25199 10.4867C5.456 10.2827 5.456 9.95194 5.25192 9.74792C5.04804 9.54397 4.71725 9.54398 4.51316 9.74799Z" fill="#EF8B54"/>
<path d="M14.4776 0.00012207H10.9889C10.7003 0.00012207 10.4665 0.23402 10.4665 0.522527C10.4665 0.811035 10.7003 1.04493 10.9889 1.04493H13.2164L9.85222 4.40929C9.64821 4.61331 9.64821 4.9441 9.85229 5.14811C9.95427 5.25009 10.088 5.30107 10.2217 5.30107C10.3553 5.30107 10.4891 5.25002 10.5911 5.14804L13.9553 1.78368V4.01122C13.9553 4.29973 14.1891 4.53363 14.4777 4.53363C14.7662 4.53363 15.0001 4.29973 15.0001 4.01122V0.522527C15 0.233951 14.7661 0.00012207 14.4776 0.00012207Z" fill="#EF8B54"/>
</svg>
