<svg width="18" height="10" viewBox="0 0 18 10" fill="none" xmlns="http://www.w3.org/2000/svg">
<path fill-rule="evenodd" clip-rule="evenodd" d="M5.57982 8.87088C5.72226 9.01332 5.72226 9.24426 5.57982 9.3867C5.43738 9.52914 5.20644 9.52914 5.064 9.3867L0.794675 5.11738C0.709685 5.03239 0.675405 4.91589 0.691836 4.80549C0.675517 4.69518 0.709813 4.57883 0.794723 4.49392L5.06404 0.2246C5.20648 0.0821596 5.43743 0.0821596 5.57987 0.224599C5.72231 0.36704 5.72231 0.597982 5.57987 0.740423L1.78217 4.53811H17.1448C17.3462 4.53811 17.5095 4.70141 17.5095 4.90286C17.5095 5.1043 17.3462 5.2676 17.1448 5.2676H1.97654L5.57982 8.87088Z" fill="white"/>
</svg>
