<svg width="228" height="108" viewBox="0 0 228 108" fill="none" xmlns="http://www.w3.org/2000/svg">
<path d="M4.99676 53.9508C4.99676 55.2077 3.97787 56.2266 2.72103 56.2266C1.4642 56.2266 0.445313 55.2077 0.445313 53.9508C0.445313 52.6947 1.4642 51.6751 2.72103 51.6751C3.97787 51.6751 4.99676 52.6947 4.99676 53.9508Z" fill="white"/>
<path d="M22.1413 53.9508C22.1413 55.2077 21.1224 56.2266 19.8656 56.2266C18.6087 56.2266 17.5898 55.2077 17.5898 53.9508C17.5898 52.6947 18.6087 51.6751 19.8656 51.6751C21.1224 51.6751 22.1413 52.6947 22.1413 53.9508Z" fill="white"/>
<path d="M39.258 53.9508C39.258 55.2077 38.2391 56.2266 36.9823 56.2266C35.7254 56.2266 34.7065 55.2077 34.7065 53.9508C34.7065 52.6947 35.7254 51.6751 36.9823 51.6751C38.2391 51.6751 39.258 52.6947 39.258 53.9508Z" fill="white"/>
<path d="M56.4018 53.9508C56.4018 55.2077 55.3836 56.2266 54.1268 56.2266C52.87 56.2266 51.8511 55.2077 51.8511 53.9508C51.8511 52.6947 52.87 51.6751 54.1268 51.6751C55.3836 51.6751 56.4018 52.6947 56.4018 53.9508Z" fill="white"/>
<path d="M73.5463 53.9508C73.5463 55.2077 72.5275 56.2266 71.2713 56.2266C70.0145 56.2266 68.9956 55.2077 68.9956 53.9508C68.9956 52.6947 70.0145 51.6751 71.2713 51.6751C72.5275 51.6751 73.5463 52.6947 73.5463 53.9508Z" fill="white"/>
<path d="M90.663 53.9508C90.663 55.2077 89.6442 56.2266 88.388 56.2266C87.1312 56.2266 86.1123 55.2077 86.1123 53.9508C86.1123 52.6947 87.1312 51.6751 88.388 51.6751C89.6442 51.6751 90.663 52.6947 90.663 53.9508Z" fill="white"/>
<path d="M107.808 53.9508C107.808 55.2077 106.789 56.2266 105.533 56.2266C104.276 56.2266 103.257 55.2077 103.257 53.9508C103.257 52.6947 104.276 51.6751 105.533 51.6751C106.789 51.6751 107.808 52.6947 107.808 53.9508Z" fill="white"/>
<path d="M124.952 53.9508C124.952 55.2077 123.933 56.2266 122.676 56.2266C121.42 56.2266 120.401 55.2077 120.401 53.9508C120.401 52.6947 121.42 51.6751 122.676 51.6751C123.933 51.6751 124.952 52.6947 124.952 53.9508Z" fill="white"/>
<path d="M142.069 53.9508C142.069 55.2077 141.05 56.2266 139.793 56.2266C138.537 56.2266 137.518 55.2077 137.518 53.9508C137.518 52.6947 138.537 51.6751 139.793 51.6751C141.05 51.6751 142.069 52.6947 142.069 53.9508Z" fill="white"/>
<path d="M159.213 53.9508C159.213 55.2077 158.194 56.2266 156.938 56.2266C155.681 56.2266 154.663 55.2077 154.663 53.9508C154.663 52.6947 155.681 51.6751 156.938 51.6751C158.194 51.6751 159.213 52.6947 159.213 53.9508Z" fill="white"/>
<path d="M176.359 53.9508C176.359 55.2077 175.34 56.2266 174.083 56.2266C172.826 56.2266 171.807 55.2077 171.807 53.9508C171.807 52.6947 172.826 51.6751 174.083 51.6751C175.34 51.6751 176.359 52.6947 176.359 53.9508Z" fill="white"/>
<path d="M193.475 53.9508C193.475 55.2077 192.456 56.2266 191.2 56.2266C189.943 56.2266 188.924 55.2077 188.924 53.9508C188.924 52.6947 189.943 51.6751 191.2 51.6751C192.456 51.6751 193.475 52.6947 193.475 53.9508Z" fill="white"/>
<path d="M210.619 53.9508C210.619 55.2077 209.6 56.2266 208.343 56.2266C207.087 56.2266 206.068 55.2077 206.068 53.9508C206.068 52.6947 207.087 51.6751 208.343 51.6751C209.6 51.6751 210.619 52.6947 210.619 53.9508Z" fill="white"/>
<path d="M227.764 53.9508C227.764 55.2077 226.745 56.2266 225.489 56.2266C224.232 56.2266 223.213 55.2077 223.213 53.9508C223.213 52.6947 224.232 51.6751 225.489 51.6751C226.745 51.6751 227.764 52.6947 227.764 53.9508Z" fill="white"/>
<path d="M4.99676 79.5981C4.99676 80.8549 3.97787 81.8738 2.72103 81.8738C1.4642 81.8738 0.445313 80.8549 0.445313 79.5981C0.445313 78.342 1.4642 77.3223 2.72103 77.3223C3.97787 77.3223 4.99676 78.342 4.99676 79.5981Z" fill="white"/>
<path d="M22.1413 79.5981C22.1413 80.8549 21.1224 81.8738 19.8656 81.8738C18.6087 81.8738 17.5898 80.8549 17.5898 79.5981C17.5898 78.342 18.6087 77.3223 19.8656 77.3223C21.1224 77.3223 22.1413 78.342 22.1413 79.5981Z" fill="white"/>
<path d="M39.258 79.5981C39.258 80.8549 38.2391 81.8738 36.9823 81.8738C35.7254 81.8738 34.7065 80.8549 34.7065 79.5981C34.7065 78.342 35.7254 77.3223 36.9823 77.3223C38.2391 77.3223 39.258 78.342 39.258 79.5981Z" fill="white"/>
<path d="M56.4018 79.5981C56.4018 80.8549 55.3836 81.8738 54.1268 81.8738C52.87 81.8738 51.8511 80.8549 51.8511 79.5981C51.8511 78.342 52.87 77.3223 54.1268 77.3223C55.3836 77.3223 56.4018 78.342 56.4018 79.5981Z" fill="white"/>
<path d="M73.5463 79.5981C73.5463 80.8549 72.5275 81.8738 71.2713 81.8738C70.0145 81.8738 68.9956 80.8549 68.9956 79.5981C68.9956 78.342 70.0145 77.3223 71.2713 77.3223C72.5275 77.3223 73.5463 78.342 73.5463 79.5981Z" fill="white"/>
<path d="M90.663 79.5981C90.663 80.8549 89.6442 81.8738 88.388 81.8738C87.1312 81.8738 86.1123 80.8549 86.1123 79.5981C86.1123 78.342 87.1312 77.3223 88.388 77.3223C89.6442 77.3223 90.663 78.342 90.663 79.5981Z" fill="white"/>
<path d="M107.808 79.5981C107.808 80.8549 106.789 81.8738 105.533 81.8738C104.276 81.8738 103.257 80.8549 103.257 79.5981C103.257 78.342 104.276 77.3223 105.533 77.3223C106.789 77.3223 107.808 78.342 107.808 79.5981Z" fill="white"/>
<path d="M124.952 79.5981C124.952 80.8549 123.933 81.8738 122.676 81.8738C121.42 81.8738 120.401 80.8549 120.401 79.5981C120.401 78.342 121.42 77.3223 122.676 77.3223C123.933 77.3223 124.952 78.342 124.952 79.5981Z" fill="white"/>
<path d="M142.069 79.5981C142.069 80.8549 141.05 81.8738 139.793 81.8738C138.537 81.8738 137.518 80.8549 137.518 79.5981C137.518 78.342 138.537 77.3223 139.793 77.3223C141.05 77.3223 142.069 78.342 142.069 79.5981Z" fill="white"/>
<path d="M159.213 79.5981C159.213 80.8549 158.194 81.8738 156.938 81.8738C155.681 81.8738 154.663 80.8549 154.663 79.5981C154.663 78.342 155.681 77.3223 156.938 77.3223C158.194 77.3223 159.213 78.342 159.213 79.5981Z" fill="white"/>
<path d="M176.359 79.5981C176.359 80.8549 175.34 81.8738 174.083 81.8738C172.826 81.8738 171.807 80.8549 171.807 79.5981C171.807 78.342 172.826 77.3223 174.083 77.3223C175.34 77.3223 176.359 78.342 176.359 79.5981Z" fill="white"/>
<path d="M193.475 79.5981C193.475 80.8549 192.456 81.8738 191.2 81.8738C189.943 81.8738 188.924 80.8549 188.924 79.5981C188.924 78.342 189.943 77.3223 191.2 77.3223C192.456 77.3223 193.475 78.342 193.475 79.5981Z" fill="white"/>
<path d="M210.619 79.5981C210.619 80.8549 209.6 81.8738 208.343 81.8738C207.087 81.8738 206.068 80.8549 206.068 79.5981C206.068 78.342 207.087 77.3223 208.343 77.3223C209.6 77.3223 210.619 78.342 210.619 79.5981Z" fill="white"/>
<path d="M227.764 79.5981C227.764 80.8549 226.745 81.8738 225.489 81.8738C224.232 81.8738 223.213 80.8549 223.213 79.5981C223.213 78.342 224.232 77.3223 225.489 77.3223C226.745 77.3223 227.764 78.342 227.764 79.5981Z" fill="white"/>
<path d="M4.99676 105.259C4.99676 106.515 3.97787 107.535 2.72103 107.535C1.4642 107.535 0.445313 106.515 0.445313 105.259C0.445313 104.002 1.4642 102.983 2.72103 102.983C3.97787 102.983 4.99676 104.002 4.99676 105.259Z" fill="white"/>
<path d="M22.1413 105.259C22.1413 106.515 21.1224 107.535 19.8656 107.535C18.6087 107.535 17.5898 106.515 17.5898 105.259C17.5898 104.002 18.6087 102.983 19.8656 102.983C21.1224 102.983 22.1413 104.002 22.1413 105.259Z" fill="white"/>
<path d="M39.258 105.259C39.258 106.515 38.2391 107.535 36.9823 107.535C35.7254 107.535 34.7065 106.515 34.7065 105.259C34.7065 104.002 35.7254 102.983 36.9823 102.983C38.2391 102.983 39.258 104.002 39.258 105.259Z" fill="white"/>
<path d="M56.4018 105.259C56.4018 106.515 55.3836 107.535 54.1268 107.535C52.87 107.535 51.8511 106.515 51.8511 105.259C51.8511 104.002 52.87 102.983 54.1268 102.983C55.3836 102.983 56.4018 104.002 56.4018 105.259Z" fill="white"/>
<path d="M73.5463 105.259C73.5463 106.515 72.5275 107.535 71.2713 107.535C70.0145 107.535 68.9956 106.515 68.9956 105.259C68.9956 104.002 70.0145 102.983 71.2713 102.983C72.5275 102.983 73.5463 104.002 73.5463 105.259Z" fill="white"/>
<path d="M90.663 105.259C90.663 106.515 89.6442 107.535 88.388 107.535C87.1312 107.535 86.1123 106.515 86.1123 105.259C86.1123 104.002 87.1312 102.983 88.388 102.983C89.6442 102.983 90.663 104.002 90.663 105.259Z" fill="white"/>
<path d="M107.808 105.259C107.808 106.515 106.789 107.535 105.533 107.535C104.276 107.535 103.257 106.515 103.257 105.259C103.257 104.002 104.276 102.983 105.533 102.983C106.789 102.983 107.808 104.002 107.808 105.259Z" fill="white"/>
<path d="M124.952 105.259C124.952 106.515 123.933 107.535 122.676 107.535C121.42 107.535 120.401 106.515 120.401 105.259C120.401 104.002 121.42 102.983 122.676 102.983C123.933 102.983 124.952 104.002 124.952 105.259Z" fill="white"/>
<path d="M142.069 105.259C142.069 106.515 141.05 107.535 139.793 107.535C138.537 107.535 137.518 106.515 137.518 105.259C137.518 104.002 138.537 102.983 139.793 102.983C141.05 102.983 142.069 104.002 142.069 105.259Z" fill="white"/>
<path d="M159.213 105.259C159.213 106.515 158.194 107.535 156.938 107.535C155.681 107.535 154.663 106.515 154.663 105.259C154.663 104.002 155.681 102.983 156.938 102.983C158.194 102.983 159.213 104.002 159.213 105.259Z" fill="white"/>
<path d="M176.359 105.259C176.359 106.515 175.34 107.535 174.083 107.535C172.826 107.535 171.807 106.515 171.807 105.259C171.807 104.002 172.826 102.983 174.083 102.983C175.34 102.983 176.359 104.002 176.359 105.259Z" fill="white"/>
<path d="M193.475 105.259C193.475 106.515 192.456 107.535 191.2 107.535C189.943 107.535 188.924 106.515 188.924 105.259C188.924 104.002 189.943 102.983 191.2 102.983C192.456 102.983 193.475 104.002 193.475 105.259Z" fill="white"/>
<path d="M210.619 105.259C210.619 106.515 209.6 107.535 208.343 107.535C207.087 107.535 206.068 106.515 206.068 105.259C206.068 104.002 207.087 102.983 208.343 102.983C209.6 102.983 210.619 104.002 210.619 105.259Z" fill="white"/>
<path d="M227.764 105.259C227.764 106.515 226.745 107.535 225.489 107.535C224.232 107.535 223.213 106.515 223.213 105.259C223.213 104.002 224.232 102.983 225.489 102.983C226.745 102.983 227.764 104.002 227.764 105.259Z" fill="white"/>
<path d="M4.99676 28.2897C4.99676 29.5458 3.97787 30.5654 2.72103 30.5654C1.4642 30.5654 0.445313 29.5458 0.445313 28.2897C0.445313 27.0329 1.4642 26.014 2.72103 26.014C3.97787 26.014 4.99676 27.0329 4.99676 28.2897Z" fill="white"/>
<path d="M22.1413 28.2897C22.1413 29.5458 21.1224 30.5654 19.8656 30.5654C18.6087 30.5654 17.5898 29.5458 17.5898 28.2897C17.5898 27.0329 18.6087 26.014 19.8656 26.014C21.1224 26.014 22.1413 27.0329 22.1413 28.2897Z" fill="white"/>
<path d="M39.258 28.2897C39.258 29.5458 38.2391 30.5654 36.9823 30.5654C35.7254 30.5654 34.7065 29.5458 34.7065 28.2897C34.7065 27.0329 35.7254 26.014 36.9823 26.014C38.2391 26.014 39.258 27.0329 39.258 28.2897Z" fill="white"/>
<path d="M56.4018 28.2897C56.4018 29.5458 55.3836 30.5654 54.1268 30.5654C52.87 30.5654 51.8511 29.5458 51.8511 28.2897C51.8511 27.0329 52.87 26.014 54.1268 26.014C55.3836 26.014 56.4018 27.0329 56.4018 28.2897Z" fill="white"/>
<path d="M73.5463 28.2897C73.5463 29.5458 72.5275 30.5654 71.2713 30.5654C70.0145 30.5654 68.9956 29.5458 68.9956 28.2897C68.9956 27.0329 70.0145 26.014 71.2713 26.014C72.5275 26.014 73.5463 27.0329 73.5463 28.2897Z" fill="white"/>
<path d="M90.663 28.2897C90.663 29.5458 89.6442 30.5654 88.388 30.5654C87.1312 30.5654 86.1123 29.5458 86.1123 28.2897C86.1123 27.0329 87.1312 26.014 88.388 26.014C89.6442 26.014 90.663 27.0329 90.663 28.2897Z" fill="white"/>
<path d="M107.808 28.2897C107.808 29.5458 106.789 30.5654 105.533 30.5654C104.276 30.5654 103.257 29.5458 103.257 28.2897C103.257 27.0329 104.276 26.014 105.533 26.014C106.789 26.014 107.808 27.0329 107.808 28.2897Z" fill="white"/>
<path d="M124.952 28.2897C124.952 29.5458 123.933 30.5654 122.676 30.5654C121.42 30.5654 120.401 29.5458 120.401 28.2897C120.401 27.0329 121.42 26.014 122.676 26.014C123.933 26.014 124.952 27.0329 124.952 28.2897Z" fill="white"/>
<path d="M142.069 28.2897C142.069 29.5458 141.05 30.5654 139.793 30.5654C138.537 30.5654 137.518 29.5458 137.518 28.2897C137.518 27.0329 138.537 26.014 139.793 26.014C141.05 26.014 142.069 27.0329 142.069 28.2897Z" fill="white"/>
<path d="M159.213 28.2897C159.213 29.5458 158.194 30.5654 156.938 30.5654C155.681 30.5654 154.663 29.5458 154.663 28.2897C154.663 27.0329 155.681 26.014 156.938 26.014C158.194 26.014 159.213 27.0329 159.213 28.2897Z" fill="white"/>
<path d="M176.359 28.2897C176.359 29.5458 175.34 30.5654 174.083 30.5654C172.826 30.5654 171.807 29.5458 171.807 28.2897C171.807 27.0329 172.826 26.014 174.083 26.014C175.34 26.014 176.359 27.0329 176.359 28.2897Z" fill="white"/>
<path d="M193.475 28.2897C193.475 29.5458 192.456 30.5654 191.2 30.5654C189.943 30.5654 188.924 29.5458 188.924 28.2897C188.924 27.0329 189.943 26.014 191.2 26.014C192.456 26.014 193.475 27.0329 193.475 28.2897Z" fill="white"/>
<path d="M210.619 28.2897C210.619 29.5458 209.6 30.5654 208.343 30.5654C207.087 30.5654 206.068 29.5458 206.068 28.2897C206.068 27.0329 207.087 26.014 208.343 26.014C209.6 26.014 210.619 27.0329 210.619 28.2897Z" fill="white"/>
<path d="M227.764 28.2897C227.764 29.5458 226.745 30.5654 225.489 30.5654C224.232 30.5654 223.213 29.5458 223.213 28.2897C223.213 27.0329 224.232 26.014 225.489 26.014C226.745 26.014 227.764 27.0329 227.764 28.2897Z" fill="white"/>
<path d="M4.99676 2.64252C4.99676 3.89936 3.97787 4.91821 2.72103 4.91821C1.4642 4.91821 0.445313 3.89936 0.445313 2.64252C0.445313 1.38639 1.4642 0.366781 2.72103 0.366781C3.97787 0.366781 4.99676 1.38639 4.99676 2.64252Z" fill="white"/>
<path d="M22.1413 2.64252C22.1413 3.89936 21.1224 4.91821 19.8656 4.91821C18.6087 4.91821 17.5898 3.89936 17.5898 2.64252C17.5898 1.38639 18.6087 0.366781 19.8656 0.366781C21.1224 0.366781 22.1413 1.38639 22.1413 2.64252Z" fill="white"/>
<path d="M39.258 2.64252C39.258 3.89936 38.2391 4.91821 36.9823 4.91821C35.7254 4.91821 34.7065 3.89936 34.7065 2.64252C34.7065 1.38639 35.7254 0.366781 36.9823 0.366781C38.2391 0.366781 39.258 1.38639 39.258 2.64252Z" fill="white"/>
<path d="M56.4018 2.64252C56.4018 3.89936 55.3836 4.91821 54.1268 4.91821C52.87 4.91821 51.8511 3.89936 51.8511 2.64252C51.8511 1.38639 52.87 0.366781 54.1268 0.366781C55.3836 0.366781 56.4018 1.38639 56.4018 2.64252Z" fill="white"/>
<path d="M73.5463 2.64252C73.5463 3.89936 72.5275 4.91821 71.2713 4.91821C70.0145 4.91821 68.9956 3.89936 68.9956 2.64252C68.9956 1.38639 70.0145 0.366781 71.2713 0.366781C72.5275 0.366781 73.5463 1.38639 73.5463 2.64252Z" fill="white"/>
<path d="M90.663 2.64252C90.663 3.89936 89.6442 4.91821 88.388 4.91821C87.1312 4.91821 86.1123 3.89936 86.1123 2.64252C86.1123 1.38639 87.1312 0.366781 88.388 0.366781C89.6442 0.366781 90.663 1.38639 90.663 2.64252Z" fill="white"/>
<path d="M107.808 2.64252C107.808 3.89936 106.789 4.91821 105.533 4.91821C104.276 4.91821 103.257 3.89936 103.257 2.64252C103.257 1.38639 104.276 0.366781 105.533 0.366781C106.789 0.366781 107.808 1.38639 107.808 2.64252Z" fill="white"/>
<path d="M124.952 2.64252C124.952 3.89936 123.933 4.91821 122.676 4.91821C121.42 4.91821 120.401 3.89936 120.401 2.64252C120.401 1.38639 121.42 0.366781 122.676 0.366781C123.933 0.366781 124.952 1.38639 124.952 2.64252Z" fill="white"/>
<path d="M142.069 2.64252C142.069 3.89936 141.05 4.91821 139.793 4.91821C138.537 4.91821 137.518 3.89936 137.518 2.64252C137.518 1.38639 138.537 0.366781 139.793 0.366781C141.05 0.366781 142.069 1.38639 142.069 2.64252Z" fill="white"/>
<path d="M159.213 2.64252C159.213 3.89936 158.194 4.91821 156.938 4.91821C155.681 4.91821 154.663 3.89936 154.663 2.64252C154.663 1.38639 155.681 0.366781 156.938 0.366781C158.194 0.366781 159.213 1.38639 159.213 2.64252Z" fill="white"/>
<path d="M176.359 2.64252C176.359 3.89936 175.34 4.91821 174.083 4.91821C172.826 4.91821 171.807 3.89936 171.807 2.64252C171.807 1.38639 172.826 0.366781 174.083 0.366781C175.34 0.366781 176.359 1.38639 176.359 2.64252Z" fill="white"/>
<path d="M193.475 2.64252C193.475 3.89936 192.456 4.91821 191.2 4.91821C189.943 4.91821 188.924 3.89936 188.924 2.64252C188.924 1.38639 189.943 0.366781 191.2 0.366781C192.456 0.366781 193.475 1.38639 193.475 2.64252Z" fill="white"/>
<path d="M210.619 2.64252C210.619 3.89936 209.6 4.91821 208.343 4.91821C207.087 4.91821 206.068 3.89936 206.068 2.64252C206.068 1.38639 207.087 0.366781 208.343 0.366781C209.6 0.366781 210.619 1.38639 210.619 2.64252Z" fill="white"/>
<path d="M227.764 2.64252C227.764 3.89936 226.745 4.91821 225.489 4.91821C224.232 4.91821 223.213 3.89936 223.213 2.64252C223.213 1.38639 224.232 0.366781 225.489 0.366781C226.745 0.366781 227.764 1.38639 227.764 2.64252Z" fill="white"/>
</svg>
