<svg width="186" height="84" viewBox="0 0 186 84" fill="none" xmlns="http://www.w3.org/2000/svg">
<path d="M159.521 25.0747C167.647 32.6956 174.027 41.5712 178.484 51.4547C183.042 61.5614 185.38 72.2908 185.438 83.35L8.53067 83.35C8.58813 72.2908 10.9272 61.5614 15.4842 51.4547C19.9408 41.5712 26.3208 32.6956 34.447 25.0747C42.5711 17.4538 52.0304 11.4717 62.5629 7.29374C73.4651 2.96803 85.046 0.775157 96.9844 0.775157C108.922 0.775157 120.503 2.96803 131.405 7.29374C141.938 11.4717 151.398 17.4538 159.521 25.0747ZM8.0603 83.766L185.908 83.766C185.908 37.702 146.095 0.359669 96.9844 0.359669C47.873 0.359669 8.0603 37.702 8.0603 83.766Z" fill="white"/>
<path d="M0.0227051 42.3973C0.0227051 25.6038 12.8742 11.9896 28.7269 11.9896C44.5797 11.9896 57.4311 25.6038 57.4311 42.3973H0.0227051Z" fill="white"/>
</svg>
