<svg xmlns="http://www.w3.org/2000/svg" fill="none" viewBox="0 0 244 197"><g clip-path="url(#clip0)"><path fill="#fff" d="M85.778 110.273h45.999l27.058-10.824V65.175l-32.47-12.627-32.47 12.627L92.093 76l-6.314 34.274zm58.626-84.783h5.412v5.41l-5.412 2.706M32.563 126.507l-12.627 68.548 25.254-68.548m102.822 0l7.216 68.548-32.47-57.724-32.47 57.724 9.019-68.548"/><path fill="#fff" d="M189.501 126.507H23.543l-14.43-16.235h194.819l-14.431 16.235zm-7.215 0l12.627 68.548-25.254-68.548"/><path fill="#fff" d="M189.501 110.273h-12.627l-3.608-23.451h19.843l-3.608 23.451zm-45.097-68.548l-18.039 7.215-18.039-7.215V11.96l18.039-9.922 18.039 9.922v29.764z"/><path fill="#ECCADD" d="M122.758 137.331l32.47 57.724-7.216-68.548h-39.686l-6.313 47.623 20.745-36.799zm61.512 0l-1.984-10.824h-12.627l3.968 10.824h10.643zm-153.691 0l1.984-10.824H45.19l-3.968 10.824H30.579zm151.707-27.058h7.215l3.608-23.451h-10.823v23.451zm-73.96-88.391v-2.706l18.039-9.921 18.039 9.921v2.706h-36.078z"/><path stroke="#EF8B54" stroke-linecap="round" stroke-linejoin="round" stroke-miterlimit="10" stroke-width="3.608" d="M148.012 77.802v9.02"/><path fill="#fff" d="M36.15 112.134l-13.169-46.9H82.51l13.169 46.9H36.15z"/><mask id="a" width="227" height="197" x="7" y="0" maskUnits="userSpaceOnUse"><path stroke="#EF8B54" stroke-linejoin="round" stroke-miterlimit="10" stroke-width="3.608" d="M144.404 41.725l-18.039 7.215-18.039-7.215V11.96l18.039-9.922 18.039 9.922v29.764z"/><path stroke="#EF8B54" stroke-linecap="round" stroke-linejoin="round" stroke-miterlimit="10" stroke-width="3.608" d="M117.346 30v-2.706M131.777 30v-2.706m-96.869 82.978l-13.168-46.9h59.528l13.169 46.9H34.908z"/><path stroke="#EF8B54" stroke-linejoin="round" stroke-miterlimit="10" stroke-width="4.099" d="M63.298 88.248l-6.15 4.1-6.148-4.1v-6.149L57.149 78l6.149 4.1v6.148z"/><path stroke="#EF8B54" stroke-linecap="round" stroke-linejoin="round" stroke-miterlimit="10" stroke-width="3.608" d="M137.73 56.877l-11.365 22.73-11.364-22.73m29.403-34.995H92.091m36.98 16.235l-4.51 1.804-4.509-1.804m24.352-12.627h5.412v5.41l-5.412 2.706m-51.952 69.451H32.924"/><path fill="#fff" stroke="#EF8B54" stroke-linecap="round" stroke-linejoin="round" stroke-miterlimit="10" stroke-width="3.608" d="M94.436 110.273h28.321l-3.607-7.216H92.452l1.984 7.216z"/><path stroke="#EF8B54" stroke-linecap="round" stroke-linejoin="round" stroke-miterlimit="10" stroke-width="3.608" d="M148.012 77.802V90.43l-27.058 19.843h10.823l27.058-10.824V65.175l-32.47-12.627-32.47 12.627L92.091 76"/><path stroke="#EF8B54" stroke-linecap="round" stroke-linejoin="round" stroke-miterlimit="10" stroke-width="3.608" d="M189.501 126.507H23.543l-14.43-16.235h194.819l-14.431 16.235zm-156.938.001l-12.627 68.547 25.254-68.547m137.096 0l12.627 68.547-25.254-68.547"/><path stroke="#EF8B54" stroke-linecap="round" stroke-linejoin="round" stroke-miterlimit="10" stroke-width="2.945" d="M9.366 195.055h209.139"/><path stroke="#EF8B54" stroke-linecap="round" stroke-linejoin="round" stroke-miterlimit="10" stroke-width="3.608" d="M225.952 195.055h5.412m-83.352-68.547l7.215 68.547-32.47-57.724-32.47 57.724 9.02-68.547M176.874 76l3.608-3.609-7.216-7.215 3.608-3.608m12.627 14.431l3.608-3.608-7.215-7.216 3.607-3.607m0 48.705h-12.627l-3.608-23.451h19.843l-3.608 23.451z"/></mask><g mask="url(#a)"><path fill="url(#paint0_linear)" d="M-8.631-11.556h261.268v219.689H-8.631z"/></g></g><defs><linearGradient id="paint0_linear" x1="122.41" x2="122.136" y1="97.954" y2="316.308" gradientUnits="userSpaceOnUse"><stop stop-color="#E78860"/><stop offset="1" stop-color="#E16C96"/></linearGradient><clipPath id="clip0"><path fill="#fff" d="M0 0h243.271v196.727H0z" transform="translate(.058 .235)"/></clipPath></defs></svg>