<svg xmlns="http://www.w3.org/2000/svg" fill="none" viewBox="0 0 198 214"><g clip-path="url(#clip0)"><path fill="#fff" d="M104.354 118.982l3.17 23.005 11.144-2.045v-27.094h-5.112l-9.202 6.134zm-12.269 0l-3.17 23.005-11.144-2.045v-27.094h5.112l9.202 6.134z"/><path fill="#fff" d="M121.735 139.431l-17.381 3.067-3.067 48.054 7.668 10.735 17.893-1.533 5.112-11.247-10.225-49.076z"/><path fill="#fff" d="M126.847 199.753l8.18 12.27h-29.651l3.579-10.736 17.892-1.534zm-52.143-60.322l17.381 3.067 3.067 48.054-7.668 10.735-17.892-1.533-5.112-11.247 10.224-49.076z"/><path fill="#fff" d="M69.591 199.753l-8.179 12.27h29.65l-3.578-10.736-17.892-1.534zm34.763-97.13l10.224-5.112 4.09 15.337h-5.112L98.22 123.072l6.134-20.449zm-12.269 0l-10.224-5.112-4.09 15.337h5.112l15.337 10.224-6.135-20.449z"/><path fill="#fff" d="M92.085 102.623h12.269l-6.134 20.449-6.135-20.449zm44.987-1.022l2.863 1.84 2.249 14.518-17.381 1.023 1.022-14.314 2.045-2.045 9.202-1.022zm-77.705 0l-2.862 1.84-2.25 14.518 17.382 1.023-1.023-14.314-2.045-2.045-9.202-1.022zm51.122-2.045l5.112-13.292h-9.202l-8.18 8.18-8.179-8.18h-9.202l5.112 13.292 6.135 3.067h12.269l6.135-3.067z"/><path fill="#fff" d="M98.22 94.444l8.179-8.18h14.314l3.476-5.112-2.454-14.314-9.201-4.09-14.314 12.27v19.426zm23.924-25.356l7.771-2.25 8.179 4.09-2.045 10.225 1.023 20.448-9.202 1.023-5.726-33.536zM98.22 94.444l-8.18-8.18H75.726l-3.476-5.112 2.454-14.314 9.202-4.09 14.314 12.27v19.426zM74.295 69.088l-7.77-2.25-8.18 4.09 2.045 10.225-1.023 20.448 9.202 1.023 5.726-33.536zm23.925-4.294l14.314-9.202-3.068-13.292-11.246-9.202L86.973 42.3l-3.067 13.292 14.314 9.202zm40.897 52.748l2.045 14.109-7.157 11.247-3.068-2.045 3.068-9.202-2.045-5.112-5.112 8.18-2.556-1.023 3.578-15.541 11.247-.613zM57.796 119L55.9 132.093l6.641 10.437 2.847-1.897-2.847-8.54 1.898-4.744 4.744 7.591 2.372-.949-3.321-14.422L57.796 119z"/><path fill="#fff" d="M112.125 54.578l11.655-13.7-7.157-14.314 1.023 11.246-7.975 6.032 2.454 10.736zm-27.81 0l-11.656-13.7 7.157-14.314-1.023 11.246 7.975 6.032-2.453 10.736zm24.845 11.656l-3.988-5.317-6.952 4.499-6.953-4.499-3.987 5.317 10.94 9.406 10.94-9.406z"/><path fill="#C14E8E" fill-opacity=".3" d="M98.22 39.233S86.053 49.15 85.235 49.866l-1.33 5.726 14.315 9.202 14.314-9.202-1.33-5.726L98.22 39.233zm13.291 63.39l2.761 10.224h-.716L98.22 123.072l4.907-16.257 8.384-4.192z"/><path fill="#C14E8E" fill-opacity=".3" d="M113.556 140.862l-6.032 1.125-3.17-23.005 9.202-6.134v28.014zm7.157-60.732l2.658-3.885.818 4.907-3.476 5.112h-14.314l-8.18 8.18v-6.135l8.18-8.18h14.314zm4.09 38.852l1.022-14.314 2.045-2.045 7.157-.818 3.067 16.359-13.291.818z"/><path fill="#C14E8E" fill-opacity=".3" d="M129.097 71.848l4.294 2.147-1.431 7.157 1.942 20.755-6.032.716-5.01-29.037 6.237-1.738zm-27.81 118.704l3.067-48.054 11.349-2.045 9.509 48.565-4.499 11.247-11.758 1.022-7.668-10.735zm14.314-104.288l-1.943 5.01-7.055.614-8.383 7.156v-4.6l8.179-8.18h9.202zm4.089 114.103l8.18 11.656h-22.494l3.579-10.736 10.735-.92zm-34.762-97.744l-2.76 10.224h.715l15.337 10.225-4.908-16.257-8.384-4.192z"/><path fill="#C14E8E" fill-opacity=".3" d="M82.883 140.862l6.032 1.125 3.17-23.005-9.202-6.134v28.014zM75.726 80.13l-2.658-3.885-.818 4.907 3.476 5.112H90.04l8.18 8.18v-6.135l-8.18-8.18H75.726zm-4.09 38.852l-1.022-14.314-2.045-2.045-7.157-.818-3.067 16.359 13.291.818z"/><path fill="#C14E8E" fill-opacity=".3" d="M67.342 71.848l-4.294 2.147 1.432 7.157-1.943 20.755 6.032.716 5.01-29.037-6.237-1.738zm27.81 118.704l-3.067-48.054-11.349-2.045-9.509 48.565 4.5 11.247 11.757 1.022 7.668-10.735zM80.838 86.264l1.943 5.01 7.055.614 8.383 7.156v-4.6l-8.179-8.18h-9.202zm-4.089 114.103l-8.18 11.656h22.494l-3.579-10.736-10.735-.92z"/><path fill="url(#paint0_linear)" d="M194.328 43.322h-50.099l-8.18 8.69V1.403h58.279v41.92z"/><path stroke="#fff" stroke-linejoin="round" stroke-miterlimit="10" stroke-width="2.045" d="M173.923 21.34h-6.135V9.071l-10.224 14.314h7.157v12.27l9.202-14.315z"/><path fill="#fff" d="M93.953 61.473v-5.092l4.39 2.195 4.39-2.195v5.092l-4.39 2.81-4.39-2.81zM90.16 50.266c-.062.38.23.725.615.725h4.266a.622.622 0 00.623-.623v-2.59a.622.622 0 00-.32-.544l-3.51-1.95a.622.622 0 00-.916.442l-.757 4.54zm16.118 0a.622.622 0 01-.614.725h-4.266a.622.622 0 01-.622-.623v-2.59c0-.226.122-.434.32-.544l3.51-1.95a.623.623 0 01.916.442l.756 4.54z"/><mask id="a" width="198" height="190" x="0" y="24" maskUnits="userSpaceOnUse"><path stroke="#555" stroke-linecap="round" stroke-linejoin="round" stroke-miterlimit="10" stroke-width="2.045" d="M90.04 50.99h5.623v-3.578l-4.6-2.556-1.023 6.135zm16.359 0h-5.623v-3.578l4.601-2.556 1.022 6.135z"/><path stroke="#555" stroke-linejoin="round" stroke-miterlimit="10" stroke-width="2.045" d="M112.125 53.956l11.655-13.7-7.157-14.315 1.023 11.247-7.975 6.032 2.454 10.736zm-27.81 0l-11.656-13.7 7.157-14.315-1.022 11.247 7.975 6.032-2.454 10.736z"/><path stroke="#555" stroke-linejoin="round" stroke-miterlimit="10" stroke-width="2.045" d="M98.22 64.794l14.314-9.202-3.068-13.292-11.246-9.202L86.973 42.3l-3.067 13.292 14.314 9.202zm6.134 37.829l10.224-5.112 4.09 15.337h-5.112L98.22 123.072l6.134-20.449z"/><path stroke="#555" stroke-linejoin="round" stroke-miterlimit="10" stroke-width="2.045" d="M104.354 118.982l3.17 23.005 11.144-2.045v-27.094h-5.112l-9.202 6.134z"/><path stroke="#555" stroke-linejoin="round" stroke-miterlimit="10" stroke-width="2.045" d="M121.735 139.431l-17.381 3.067-3.067 48.054 7.668 10.735 17.893-1.533 5.112-11.247-10.225-49.076z"/><path stroke="#555" stroke-linejoin="round" stroke-miterlimit="10" stroke-width="2.045" d="M126.847 199.753l8.18 12.27h-29.651l3.579-10.736 17.892-1.534z"/><path stroke="#555" stroke-linejoin="round" stroke-miterlimit="10" stroke-width="2.045" d="M122.451 200.163l-8.895-54.598 1.329 55.211 7.566-.613zM98.22 94.444l8.179-8.18h14.314l3.476-5.112-2.454-14.314-9.201-4.09-14.314 12.27v19.426zm38.852 7.157l2.863 1.84 2.249 14.518-17.381 1.023 1.022-14.314 2.045-2.045 9.202-1.022z"/><path stroke="#555" stroke-linejoin="round" stroke-miterlimit="10" stroke-width="2.045" d="M139.117 118.164l2.045 14.11-7.157 11.246-3.068-2.045 3.068-9.201-2.045-5.113-5.112 8.18-2.556-1.023 3.578-15.54 11.247-.614z"/><path stroke="#555" stroke-linejoin="round" stroke-miterlimit="10" stroke-width="2.045" d="M135.538 118.369l-3.578-16.155-1.534 16.461 5.112-.306zm-13.394-49.281l7.771-2.25 8.179 4.09-2.045 10.225 1.023 20.448-9.202 1.023-5.726-33.536zm13.905 12.064h-11.86m-32.104 21.471l-10.224-5.112-4.09 15.337h5.112l15.337 10.224-6.135-20.449z"/><path stroke="#555" stroke-linejoin="round" stroke-miterlimit="10" stroke-width="2.045" d="M92.085 118.982l-3.17 23.005-11.144-2.045v-27.094h5.112l9.202 6.134z"/><path stroke="#555" stroke-linejoin="round" stroke-miterlimit="10" stroke-width="2.045" d="M74.704 139.431l17.381 3.067 3.067 48.054-7.668 10.735-17.892-1.533-5.112-11.247 10.224-49.076z"/><path stroke="#555" stroke-linejoin="round" stroke-miterlimit="10" stroke-width="2.045" d="M69.591 199.753l-8.179 12.27h29.65l-3.578-10.736-17.892-1.534z"/><path stroke="#555" stroke-linejoin="round" stroke-miterlimit="10" stroke-width="2.045" d="M73.988 200.163l8.895-54.598-1.329 55.211-7.566-.613zM98.22 94.444l-8.18-8.18H75.726l-3.476-5.112 2.454-14.314 9.202-4.09 14.314 12.27v19.426zm-38.853 7.157l-2.862 1.84-2.25 14.518 17.382 1.023-1.023-14.314-2.045-2.045-9.202-1.022z"/><path stroke="#555" stroke-linejoin="round" stroke-miterlimit="10" stroke-width="2.045" d="M57.322 118.164l-2.044 14.11 7.157 11.246 3.067-2.045-3.067-9.201 2.044-5.113 5.113 8.18 2.556-1.023-3.579-15.54-11.247-.614z"/><path stroke="#555" stroke-linejoin="round" stroke-miterlimit="10" stroke-width="2.045" d="M60.901 118.369l3.578-16.155 1.534 16.461-5.112-.306zm13.394-49.281l-7.77-2.25-8.18 4.09 2.045 10.225-1.023 20.448 9.202 1.023 5.726-33.536zM60.39 81.152h11.86"/><path stroke="#555" stroke-linecap="round" stroke-linejoin="round" stroke-miterlimit="10" stroke-width="2.045" d="M93.107 61.522v-5.93l5.113 2.556 5.112-2.556v5.93l-5.112 3.271-5.113-3.271z"/><path stroke="#555" stroke-linejoin="round" stroke-miterlimit="10" stroke-width="2.045" d="M109.16 65.611l-3.988-5.316-6.952 4.498-6.953-4.498-3.987 5.316 10.94 9.407 10.94-9.407zm1.329 33.945l5.112-13.292h-9.202l-8.18 8.18-8.179-8.18h-9.202l5.112 13.292 6.135 3.067h12.269l6.135-3.067zm-18.404 3.067h12.269l-6.134 20.449-6.135-20.449z"/><path stroke="#555" stroke-linecap="round" stroke-linejoin="round" stroke-miterlimit="10" stroke-width="2.045" d="M10.291 212.023h177.902m5.112 0h3.067m-195.282 0h3.066"/></mask><g mask="url(#a)"><path fill="url(#paint1_linear)" d="M-2.422 14.692h199.733v204.711H-2.422z"/></g></g><defs><linearGradient id="paint0_linear" x1="164.956" x2="164.988" y1="6.291" y2="69.758" gradientUnits="userSpaceOnUse"><stop stop-color="#E78860"/><stop offset="1" stop-color="#E16C96"/></linearGradient><linearGradient id="paint1_linear" x1="97.756" x2="97.445" y1="116.736" y2="320.203" gradientUnits="userSpaceOnUse"><stop stop-color="#E78860"/><stop offset="1" stop-color="#E16C96"/></linearGradient><clipPath id="clip0"><path fill="#fff" d="M0 0h197.328v212.665H0z" transform="translate(.067 .38)"/></clipPath></defs></svg>