<svg xmlns="http://www.w3.org/2000/svg" fill="none" viewBox="0 0 235 181"><g clip-path="url(#clip0)"><path fill="#fff" d="M146.062 48.247H94.428v94.468h51.634V48.247z"/><path fill="#ECCADD" d="M146.062 48.247v74.518H94.428l51.634-74.518z"/><path fill="#fff" d="M134.327 179.093v-15.607l12.908-18.776-1.173-1.995h-38.726v-7.393l-12.909-8.215V103.05l-7.04-5.28-7.041 5.867v35.205l14.081 18.776v21.475h39.9zm98.574-70.41h-39.899l-9.388 9.975V71.131h49.287v37.552z"/><path fill="#ECCADD" d="M200.043 79.345v4.694l-4.694 2.934-4.694-2.934 9.388-4.694zm-9.388 24.644l-7.041 7.628v7.041l9.388-9.975h39.899v-4.694h-42.246zm29.103-18.893l-5.633 13.612-5.867-3.52-3.521 4.694h21.123l-6.102-14.787z"/><path stroke="#555" stroke-linecap="round" stroke-linejoin="round" stroke-width="2.347" d="M217.646 79.932l-5.868 14.082-5.867-3.52-7.041 9.387h26.991l-8.215-19.95z"/><path fill="#ECCADD" d="M107.336 149.169v-6.455h23.705l3.286 6.455h-26.991z"/><path fill="#fff" d="M55.15 69.335H12.905v42.246h42.247V69.335z"/><mask id="a" width="235" height="181" x="0" y="0" maskUnits="userSpaceOnUse"><path stroke="#555" stroke-linecap="round" stroke-linejoin="round" stroke-miterlimit="10" stroke-width="2.347" d="M54.528 69.957H12.282v42.246h42.246V69.957zm87.427 38.022l-9.975-9.975 24.878-24.879 8.332 1.643 1.643 8.332-24.878 24.879zM86.213 20.318l-.117-12.909-11.97 6.572 12.087 6.337zm110.192 34.383l2.582-7.51-8.332 1.408 5.75 6.102zM60.161 159.613l2.582-7.51-8.332 1.408 5.75 6.102zM124 28.063l3.873-6.924-8.45-.117L124 28.063zM43.967 26.42l3.168 4.929 5.633-1.643 3.169 4.929 5.632-1.643 3.169 4.928m109.957 108.667l1.995 5.515 5.868-.234 1.877 5.515 5.868-.235 1.878 5.516M24.37 144.005l5.75 1.057 2.581-5.281 5.75 1.056 2.7-5.281 5.75 1.056M190.538 26.42l-3.169 4.929-5.632-1.643-3.169 4.929-5.633-1.643-3.286 4.928"/><path stroke="#555" stroke-linejoin="round" stroke-miterlimit="10" stroke-width="2.347" d="M123.765 134.148l-3.52 2.347-3.521-2.347v-3.521l3.521-2.347 3.52 2.347v3.521zM154.394 9.404l-4.225-.821-.821-4.225 2.464-2.464 4.225.821.821 4.107-2.464 2.582zm48.231 138.004l-4.108-.821-.821-4.107 2.464-2.582 4.225.821.821 4.225-2.581 2.464z"/><path stroke="#555" stroke-linecap="round" stroke-linejoin="round" stroke-miterlimit="10" stroke-width="2.347" d="M12.282 179.093h204.19m5.868 0h3.52m-224.14 0h3.521M146.062 48.247H94.427v78.82l12.909 8.089v7.558h38.726V48.247zm-51.635 74.518h51.635"/><path stroke="#555" stroke-linecap="round" stroke-linejoin="round" stroke-miterlimit="10" stroke-width="2.347" d="M156.623 106.922l2.347 7.041-2.347 7.041h-26.99l-3.521-7.041 3.521-7.041h26.99zm-2.347 14.082l2.347 7.041-2.347 7.041H131.98l-3.521-7.041 3.521-7.041h22.296z"/><path fill="#FFE8CC" d="M28.711 98.121h-7.04v8.215l7.04-2.347"/><path stroke="#555" stroke-linecap="round" stroke-linejoin="round" stroke-miterlimit="10" stroke-width="2.347" d="M28.711 98.121h-7.04v8.215l7.04-2.347"/><path fill="#FFE8CC" d="M45.14 91.08H38.1v8.215l7.04-2.347"/><path stroke="#555" stroke-linecap="round" stroke-linejoin="round" stroke-miterlimit="10" stroke-width="2.347" d="M45.14 91.08H38.1v8.215l7.04-2.347"/><path stroke="#555" stroke-linecap="round" stroke-linejoin="round" stroke-miterlimit="10" stroke-width="2.347" d="M28.711 103.989V82.866l16.43-5.868v19.95m15.255-14.083v35.206H25.19"/><path stroke="#555" stroke-linecap="round" stroke-linejoin="round" stroke-width="2.347" d="M232.901 108.683h-39.899l-9.388 9.975V71.131h49.287v37.552z"/><path stroke="#555" stroke-linecap="round" stroke-linejoin="round" stroke-width="2.347" d="M200.043 84.04l-4.694 2.933-4.694-2.934v-4.694l4.694-2.934 4.694 2.934v4.694zm-7.041 15.841h35.205m-10.561-19.949l-5.868 14.082-5.867-3.52-7.041 9.387h26.991l-8.215-19.95z"/><path stroke="#555" stroke-linecap="round" stroke-linejoin="round" stroke-miterlimit="10" stroke-width="2.347" d="M107.336 147.408v-4.694m26.991 36.379v-15.607l12.908-18.776-1.173-1.995h-38.726v-7.393l-12.909-8.215V103.05l-7.04-5.28-7.041 5.867v35.205l14.081 18.776v21.475h39.9z"/><path stroke="#555" stroke-linecap="round" stroke-linejoin="round" stroke-miterlimit="10" stroke-width="2.347" d="M151.93 135.087l2.347 7.041-2.347 7.041h-17.603l-3.521-7.041 3.521-7.041h17.603z"/></mask><g mask="url(#a)"><path fill="url(#paint0_linear)" d="M-13.667-19.778h261.956v220.267H-13.667z"/></g><path fill="#fff" d="M141.904 106.534l-8.726-8.726L157 74.296l7.289 1.438 1.437 7.288-23.822 23.512zm13.94 1.244l2.223 6.222-2.223 6.222h-25.555L126.956 114l3.333-6.222h25.555zm-2.444 14.311l2.178 5.911-2.178 5.911h-20.689L129.444 128l3.267-5.911H153.4zm-2.427 13.689l2.116 6.222-2.116 6.222h-15.866L131.933 142l3.174-6.222h15.866z"/></g><defs><linearGradient id="paint0_linear" x1="117.719" x2="117.444" y1="90.021" y2="308.949" gradientUnits="userSpaceOnUse"><stop stop-color="#E78860"/><stop offset="1" stop-color="#E16C96"/></linearGradient><clipPath id="clip0"><path fill="#fff" d="M0 0h233.528v180.133H0z" transform="translate(.547 .133)"/></clipPath></defs></svg>