<svg xmlns="http://www.w3.org/2000/svg" fill="none" viewBox="0 0 258 221"><g clip-path="url(#clip0)"><path fill="#ECCADD" d="M115.474 196.273l13.332 9.333 11.999-5.333v-6.666l-5.333-5.333v5.333l-5.333 2.666v-15.998l-9.333-5.333 2.667 10.666-7.999 10.665z"/><path fill="#fff" d="M48.28 218.938H36.281l-5.332-6.666v-49.329l-6.666-7.999h29.33v57.328l-5.333 6.666zm17.865 0l8-10.666 7.999 10.666H66.145zm123.988 0l-7.999-10.666-7.999 10.666h15.998zm50.395 0l-17.065-34.53v-16.132l4.8-5.333h-20.798l4.799 5.333v16.132l-17.065 34.53h45.329zM137.605 94.683V82.418l5.599-6.133h-29.997l5.733 6.133v12.265L93.61 109.35v39.862l34.662 19.732 34.664-19.732V109.35l-25.331-14.666z"/><path fill="#EE99C9" d="M119.073 198.673l9.733 6.933 11.998-5.333v-6.666l-5.332-5.333v5.333l-5.333 2.666v-15.998l-4.4-2.533 1.733 8.532-8.399 12.399z"/><path fill="#ECCADD" d="M182.134 218.938h7.999l-7.999-10.666v10.666zm-107.99 0h8l-8-10.666v10.666zm136.787-15.999l-7.999 15.999h37.596l-7.866-15.999h-21.731zM37.615 186.941v31.997H48.28l5.333-6.666v-25.331H37.615zm125.321-37.73v-19.598l-6.933-5.333-6.932 5.333-6.933-5.333-6.933 5.333-6.932-5.333-6.933 5.333-7.066-5.333-6.799 5.333-7.066-5.333-.134.267v20.265l34.93 20.131 27.731-15.732z"/><path fill="#AB54EF" d="M130.805 152.811c-.133 0-.133 0-.133.133l-2.533 2.533c-.133.134-.133.267 0 .4l2.533 2.533.133.134c.134 0 .134 0 .134-.134l2.533-2.533c.133-.133.133-.266 0-.4l-2.533-2.533c0-.133 0-.133-.134-.133zm10.933-21.332c-.134 0-.134 0-.134.134l-2.533 2.533c-.133.133-.133.267 0 .4l2.533 2.533.134.133c.133 0 .133 0 .133-.133l2.533-2.533c.133-.133.133-.267 0-.4l-2.533-2.533c0-.134 0-.134-.133-.134zm-26.398 13.733c-.133 0-.133 0-.133.133l-2.533 2.533c-.133.133-.133.267 0 .4l2.533 2.533.133.133s.134 0 .134-.133l2.533-2.533c.133-.133.133-.267 0-.4l-2.533-2.533c0-.133 0-.133-.134-.133z"/><mask id="a" width="258" height="221" x="0" y="0" maskUnits="userSpaceOnUse"><path stroke="#555" stroke-linecap="round" stroke-linejoin="round" stroke-miterlimit="10" stroke-width="2.666" d="M171.202 27.89l-10.266-10.533-4.666 14.799 14.932-4.266zm1.199 53.195l2.934-8.666-9.466 1.6 6.532 7.066zM119.74 56.02v-8.932l-8.399 4.4 8.399 4.532zM69.212 36.022l3.6 5.6 6.399-1.867 3.733 5.6 6.266-2 3.733 5.6m84.925-4.933l-3.6 5.599-6.399-1.867-3.6 5.6-6.399-2-3.6 5.6M137.072 2.292l1.333 6.533-5.866 3.2 1.333 6.532-5.866 3.067 1.333 6.532"/><path stroke="#555" stroke-linejoin="round" stroke-miterlimit="10" stroke-width="2.666" d="M93.743 20.024l-4.8-.934-.933-4.8 2.933-2.799 4.666.934.933 4.799-2.8 2.8zM80.41 69.086l-4.799-.933-.933-4.667 2.933-2.8 4.666.934.933 4.666-2.8 2.8zM48.28 218.938H36.281l-5.332-6.666v-49.329l-6.666-7.999h29.33v57.328l-5.333 6.666z"/><path stroke="#555" stroke-linecap="round" stroke-linejoin="round" stroke-miterlimit="10" stroke-width="2.666" d="M36.282 170.942h4m-4 8h4m-4 15.998h4m-4 7.999h4"/><path stroke="#ECCADD" stroke-linecap="round" stroke-linejoin="round" stroke-miterlimit="10" stroke-width="2.666" d="M115.474 196.273l13.332 9.333 11.998-5.333v-6.666l-5.332-5.333v5.333l-5.333 2.666v-15.998l-9.333-5.333 2.667 10.666-7.999 10.665z"/><path stroke="#555" stroke-linecap="round" stroke-linejoin="round" stroke-miterlimit="10" stroke-width="2.666" d="M145.604 218.938h-33.33l6.666-8h19.998l6.666 8z"/><path stroke="#555" stroke-linejoin="round" stroke-miterlimit="10" stroke-width="2.666" d="M137.605 94.683V82.418l5.599-6.133h-29.997l5.733 6.133v12.265L93.61 109.35v39.862l34.663 19.732 34.663-19.732V109.35l-25.331-14.666z"/><path stroke="#555" stroke-linecap="round" stroke-linejoin="round" stroke-miterlimit="10" stroke-width="2.666" d="M93.61 129.613l6.799-5.333 7.066 5.333 6.799-5.333 7.066 5.333 6.933-5.333 6.932 5.333 6.933-5.333 6.933 5.333 6.932-5.333 6.933 5.333m-96.791 89.325l8-10.666 7.999 10.666H66.145zm115.989-10.666l-15.199-66.66H89.609l-15.465 66.66m115.989 10.666l-7.999-10.666-7.999 10.666h15.998zm15.465-5.333l2.667-5.333"/><path stroke="#555" stroke-linejoin="round" stroke-miterlimit="10" stroke-width="2.666" d="M240.528 218.938l-17.065-34.53v-16.132l4.8-5.333h-20.798l4.799 5.333v16.132l-17.065 34.53h45.329z"/><path stroke="#555" stroke-linecap="round" stroke-linejoin="round" stroke-miterlimit="10" stroke-width="2.666" d="M13.883 218.938h231.978m6.666 0h4m-254.642 0h4m226.777-15.999h-29.597M128.648 100.18l-3.959 3.959 3.959 3.96 3.959-3.96-3.959-3.959zm-21.156 12.189l-3.959 3.959 3.959 3.96 3.96-3.96-3.96-3.959zm21.314 98.569v2.667m-5.866-2.667v2.667m11.998-2.667v2.667M30.949 186.941h22.664"/></mask><g mask="url(#a)"><path fill="url(#paint0_linear)" d="M-3.798.292h261.613v219.979H-3.798z"/></g></g><defs><linearGradient id="paint0_linear" x1="127.416" x2="127.141" y1="109.948" y2="328.589" gradientUnits="userSpaceOnUse"><stop stop-color="#E78860"/><stop offset="1" stop-color="#E16C96"/></linearGradient><clipPath id="clip0"><path fill="#fff" d="M0 0h257.308v219.979H0z" transform="translate(.552 .292)"/></clipPath></defs></svg>