<svg xmlns="http://www.w3.org/2000/svg" fill="none" viewBox="0 0 269 196"><g clip-path="url(#clip0)"><path fill="#fff" d="M44.773 171.653H22.544v-29.175l11.114-8.336 11.115 8.336v29.175zm102.807 22.229l-5.557-15.282h-19.45l-5.557 15.282h30.564zm19.45-109.755h31.954V178.6H65.612V84.127h34.732"/><path fill="#fff" d="M125.352 99.41l-6.947-58.35 13.893-31.954 13.893 31.953-6.946 58.35h-13.893z"/><path fill="#ECCADD" d="M33.658 134.142l11.115 8.336v29.175H33.658v-37.511zm110.866 51.404l-2.501-6.946h-19.45l-2.501 6.946h24.452zM132.298 9.106l13.893 31.953-6.947 58.35h-6.946V9.107zm66.686 75.021v76.411H65.612l133.372-76.41z"/><path fill="#fff" d="M117.016 112.681l-6.947 8.336-6.946-8.336 6.946-30.564 6.947 30.564zm22.228 0l-6.946 8.336-6.946-8.336 6.946-30.564 6.946 30.564zm22.229 0l-6.946 8.336-6.947-8.336 6.947-30.564 6.946 30.564zM43.383 193.26h-19.45l-6.946-22.229H50.33l-6.947 22.229zm95.094-143.317l-5.558 3.474-5.557-3.474v-6.946l5.557-3.473 5.558 3.473v6.946zM243.441 193.26h-25.007l-4.168-33.343h33.343l-4.168 33.343z"/><mask id="a" width="269" height="196" x="0" y="0" maskUnits="userSpaceOnUse"><path stroke="#555" stroke-linejoin="round" stroke-miterlimit="10" stroke-width="2.779" d="M43.383 193.882h-19.45l-6.946-22.229H50.33l-6.947 22.229zm200.058 0h-25.007l-4.168-33.343h33.343l-4.168 33.343z"/><path stroke="#555" stroke-linecap="round" stroke-linejoin="round" stroke-miterlimit="10" stroke-width="2.779" d="M221.213 153.592l2.778-2.778-5.557-5.558 2.779-2.778m9.725 11.114l2.778-2.778-5.557-5.558 2.779-2.778m9.725 11.114l2.778-2.778-5.557-5.558 2.779-2.778"/><path stroke="#555" stroke-linejoin="round" stroke-miterlimit="10" stroke-width="2.779" d="M136.466 171.653l-4.168 2.779-4.168-2.779v-4.168l4.168-2.778 4.168 2.778v4.168z"/><path stroke="#555" stroke-linecap="round" stroke-linejoin="round" stroke-miterlimit="10" stroke-width="2.779" d="M147.58 193.882l-5.557-15.282h-19.45l-5.557 15.282h30.564zM44.773 171.653h-22.23v-29.175l11.115-8.336 11.115 8.336v29.175zm-22.229-22.229h-4.168m4.168-6.946l-2.779-1.389m2.779 16.671h-4.168m4.168 8.336h-4.168m26.397-16.672h4.168m-4.168 8.336h4.168m-4.168 8.336h4.168m-20.84-27.786l-2.778-2.779m19.45 6.947l2.778-1.389m-8.336-2.779l2.779-2.779M18.793 177.21h29.87"/><path stroke="#555" stroke-linecap="round" stroke-linejoin="round" stroke-miterlimit="10" stroke-width="2.779" d="M28.101 166.096l2.779-4.168-2.779-4.168 2.779-4.168-2.779-4.168 2.779-4.168m5.557 20.84l2.778-4.168-2.778-4.168 2.778-4.168-2.778-4.168 2.778-4.168m-25.007 48.626h241.737m6.946 0h4.168m-265.354 0h4.167"/><path stroke="#555" stroke-linejoin="round" stroke-miterlimit="10" stroke-width="2.779" d="M137.855 48.7l-5.557 3.474-5.557-3.473v-6.947l5.557-3.473 5.557 3.473v6.947z"/><path stroke="#555" stroke-linecap="round" stroke-linejoin="round" stroke-miterlimit="10" stroke-width="2.779" d="M125.352 99.41l-6.947-58.35 13.893-31.954 13.893 31.953-6.946 58.35h-13.893zm-8.336 13.893l-6.947 8.335-6.946-8.335 6.946-30.565 6.947 30.565z"/><path stroke="#555" stroke-linecap="round" stroke-linejoin="round" stroke-miterlimit="10" stroke-width="2.779" d="M139.245 113.303l-6.947 8.335-6.946-8.335 6.946-30.565 6.947 30.565zm22.228 0l-6.946 8.335-6.947-8.335 6.947-30.565 6.946 30.565zM112.709 94.27l9.725-19.59m-6.669 32.926l9.586-8.196m26.536-5.14l-9.725-19.59m6.669 32.926l-9.587-8.196m-6.946-90.304V2.159m-29.175 111.144h13.893m8.336 0h13.893m8.335 0h13.893"/><path fill="#FFE8CC" stroke="#555" stroke-linejoin="round" stroke-miterlimit="10" stroke-width="2.779" d="M230.938 184.157l8.336-8.336-4.168-6.946-4.168 4.167-4.168-4.167-4.168 6.946 8.336 8.336z"/><path stroke="#555" stroke-linecap="round" stroke-linejoin="round" stroke-miterlimit="10" stroke-width="2.779" d="M246.637 168.875h10.697l-6.946 16.671h-5.835m-112.255-56.961v8.336m0 5.557v2.779m5.557-19.451v8.336m0 5.557v2.779m-11.114-16.671v8.335m0 5.557v2.779m5.557 8.336v1.389m5.557-4.168v1.389m-11.114-1.389v1.389m-16.672-20.839v8.336m0 5.557v2.779m5.557-19.451v8.336m0 5.557v2.779m-11.114-16.671v8.335m0 5.557v2.779m5.557 8.336v1.389m5.557-4.168v1.389m-11.114-1.389v1.389m50.015-20.839v8.336m0 5.557v2.779m5.557-19.451v8.336m0 5.557v2.779m-11.115-16.671v8.335m0 5.557v2.779m5.558 8.336v1.389m5.557-4.168v1.389m-11.115-1.389v1.389m18.061-65.297h31.954V178.6H65.612V84.127h34.732m-34.732 76.412h133.372"/></mask><g mask="url(#a)"><path fill="url(#paint0_linear)" d="M3.422-11.658h261.613v219.979H3.422z"/></g></g><defs><linearGradient id="paint0_linear" x1="134.636" x2="134.362" y1="97.997" y2="316.638" gradientUnits="userSpaceOnUse"><stop stop-color="#E78860"/><stop offset="1" stop-color="#E16C96"/></linearGradient><clipPath id="clip0"><path fill="#fff" d="M0 0h268.133v194.501H0z" transform="translate(.315 .77)"/></clipPath></defs></svg>