<svg xmlns="http://www.w3.org/2000/svg" fill="none" viewBox="0 0 105 63"><path fill="#fff" d="M21.598 54.743c-1.086 0-1.968.88-1.968 1.966a1.968 1.968 0 003.934 0c0-1.085-.88-1.966-1.966-1.966zm80.037-1.443c1.291 0 2.234.722 2.852 1.443v-3.485c-1.013-.686-2.234-.962-3.295-.962-3.261 0-6.094 2.334-6.094 6.35 0 3.847 2.575 6.354 6.145 6.354 1.03 0 2.162-.156 3.244-.893v-3.418c-.618.636-1.595 1.306-2.852 1.306-1.92 0-3.071-1.425-3.071-3.245 0-1.973 1.218-3.45 3.071-3.45zm-6.169-2.66H91.52l-3.623 5.047V50.64h-3.364l.001 12.015h3.364v-5.168l3.482 5.168h4.208l-4.686-6.198 4.565-5.817zm-20.868 7.21v-7.21h-3.245v12.016h3.296l4.652-7.21v7.21h3.245V50.64H79.25l-4.651 7.209zm-9.75-1.804h-.959v-2.763h.96c1.442 0 1.647.773 1.647 1.374 0 .515-.154 1.39-1.647 1.39zm.738-5.405h-5.063v12.015h3.366v-3.967h1.697c3.4 0 4.379-2.367 4.379-4.032 0-1.649-.962-4.016-4.38-4.016zM50.5 53.523h2.641v9.133h3.366v-9.133h2.642V50.64H50.5v2.882zm-9.322 4.327v-7.21h-3.244v12.016h3.296l4.651-7.21v7.21h3.245V50.64H45.83l-4.653 7.209zm-10.025 2.402h-1.441v-2.524h1.441c1.065 0 1.683.31 1.683 1.255 0 .96-.635 1.269-1.683 1.269zm.327-4.927h-1.768v-1.803h5.51v-2.881h-8.875v12.015h5.133c.874 0 4.72.034 4.72-3.725 0-3.622-3.81-3.606-4.72-3.606zM7.518 56.647c0 3.846 2.574 6.353 6.144 6.353 1.03 0 2.164-.156 3.246-.893v-3.418c-.62.636-1.598 1.306-2.85 1.306-1.924 0-3.074-1.425-3.074-3.245 0-1.973 1.22-3.45 3.073-3.45 1.287 0 2.23.722 2.85 1.443v-3.485c-1.014-.686-2.232-.962-3.296-.962-3.262 0-6.093 2.334-6.093 6.35zM.474 53.404h1.838v9.252h3.107V50.64H.474v2.763zM53.479.04a19.23 19.23 0 00-4.17.46v18.799a4.19 4.19 0 004.181 4.182 4.19 4.19 0 004.182-4.183 4.192 4.192 0 00-3.903-4.171v-3.349c4.016.148 7.248 3.469 7.248 7.52 0 4.146-3.382 7.528-7.527 7.528-4.147 0-7.527-3.382-7.527-7.527V1.564c-.476.202-.939.426-1.394.664V19.3c0 4.914 4.008 8.921 8.921 8.921 4.915 0 8.922-4.007 8.922-8.921 0-4.82-3.858-8.768-8.643-8.915V7.037c6.628.15 11.986 5.6 11.986 12.262 0 6.757-5.508 12.266-12.265 12.266-6.757 0-12.267-5.51-12.267-12.267V4.449c-4.267 3.53-6.987 8.866-6.987 14.837 0 10.628 8.616 19.244 19.243 19.244 10.63 0 19.244-8.616 19.244-19.245C72.723 8.657 64.11.042 53.479.042z"/></svg>