<svg xmlns="http://www.w3.org/2000/svg" fill="none" viewBox="0 0 17 17"><path fill="#fff" d="M5.621 13.238l1.221-1.944c.58.365 1.207.532 1.838.533.574 0 1.147-.144 1.652-.418a3.42 3.42 0 001.278-1.199v-.002a3.43 3.43 0 00.533-1.837c0-.574-.144-1.146-.417-1.652a3.422 3.422 0 00-1.198-1.277 3.433 3.433 0 00-1.835-.53c-.575 0-1.149.144-1.655.417a3.43 3.43 0 00-1.278 1.2l-.001.001a3.421 3.421 0 00-.53 1.834 3.462 3.462 0 00.417 1.654c.274.507.67.946 1.198 1.278l-.002-.002-1.22 1.944-1.224 1.942a8.019 8.019 0 01-2.791-2.982 8.072 8.072 0 01-.969-3.834 8.003 8.003 0 011.238-4.28l-.001.001a8.015 8.015 0 012.982-2.794 8.076 8.076 0 013.836-.97 8.02 8.02 0 014.277 1.236 8.001 8.001 0 012.794 2.981c.637 1.18.97 2.496.97 3.833a8.029 8.029 0 01-1.238 4.282v-.001a8.02 8.02 0 01-2.98 2.795 8.073 8.073 0 01-3.836.97A8.03 8.03 0 014.4 15.18h-.002l1.223-1.943z"/></svg>