<svg xmlns="http://www.w3.org/2000/svg" fill="none" viewBox="0 0 53 45"><path fill="#fff" d="M50.635 2.414v2.295h-26.76v24.468H48.34V2.414h2.295v2.295-2.295h2.295v29.058c0 .604-.244 1.195-.672 1.622a2.307 2.307 0 01-1.623.673H21.58a2.31 2.31 0 01-1.623-.673 2.31 2.31 0 01-.672-1.622V2.414c0-.604.245-1.195.671-1.622A2.31 2.31 0 0121.58.119h29.056c.605 0 1.196.245 1.623.673.428.427.672 1.018.672 1.622h-2.295z"/><path fill="#fff" d="M.226 44.22H30.2V33.793h-.918v9.51H1.144v-28.14h18.191v-.918H.226V44.22zm29.056-15.017h.918V14.245h-6.275v.918h5.357v14.04z"/></svg>