<svg xmlns="http://www.w3.org/2000/svg" fill="none" viewBox="0 0 54 45"><path fill="#fff" d="M22.067 17.049h2.296a12.26 12.26 0 003.606 8.707 12.266 12.266 0 008.706 3.607 12.27 12.27 0 008.707-3.607 12.265 12.265 0 003.607-8.707 12.26 12.26 0 00-3.607-8.706 12.266 12.266 0 00-8.707-3.606c-3.407 0-6.47 1.374-8.706 3.606a12.26 12.26 0 00-3.607 8.706h-4.59C19.775 7.713 27.34.149 36.676.147 46.011.148 53.577 7.713 53.58 17.05c-.002 9.338-7.568 16.902-16.904 16.904-9.336-.002-16.9-7.567-16.902-16.904h2.294z"/><path fill="#fff" d="M15.725 44.342c7.138 0 13.118-4.964 14.673-11.63a16.233 16.233 0 01-.856-.37 14.125 14.125 0 01-3.812 6.939 14.104 14.104 0 01-10.005 4.143A14.102 14.102 0 015.72 39.281a14.102 14.102 0 01-4.143-10.005A14.1 14.1 0 015.72 19.271a14.102 14.102 0 0110.005-4.144c1.422 0 2.796.21 4.09.6a17.7 17.7 0 01.096-.929 15.07 15.07 0 00-4.186-.59C7.404 14.209.66 20.954.66 29.277c0 8.321 6.745 15.066 15.066 15.066zm14.996-16.547a15.051 15.051 0 00-6.364-10.87v.087c0 .367.016.73.048 1.088.465.363.908.754 1.325 1.17a14.106 14.106 0 013.99 7.907c.323.221.657.428 1 .618z"/></svg>