<svg xmlns="http://www.w3.org/2000/svg" fill="none" viewBox="0 0 62 54"><path fill="#fff" d="M27.318 21.446l-2.217.593-4.973-18.606A2.293 2.293 0 0122.941.625l18.59 5 18.6 4.995a2.296 2.296 0 011.026 3.841L47.532 28.063v-.001L33.91 41.672a2.295 2.295 0 01-3.84-1.031L25.1 22.039l2.218-.593 2.217-.592 3.943 14.761 10.81-10.8h.001L55.1 14.02l-14.76-3.964-14.75-3.968 3.945 14.765-2.217.592z"/><path fill="#fff" d="M11.049 53.16l14.185-14.172 3.433-3.428-.273-1.024-3.809 3.802-13.06 13.048-4.764-17.833-4.768-17.838 17.823 4.793 5.203 1.398-.273-1.024-4.692-1.26L.696 14.415l5.177 19.374 5.176 19.37zm21.37-21.344l7.002-6.991-9.557-2.568.274 1.023 7.51 2.018-5.503 5.494.273 1.024z"/></svg>