<svg xmlns="http://www.w3.org/2000/svg" fill="none" viewBox="0 0 39 45"><path fill="#fff" d="M21.707 29.202c3.41 0 6.475-1.37 8.71-3.591a12.168 12.168 0 003.603-8.656A12.17 12.17 0 0030.417 8.3a12.297 12.297 0 00-8.71-3.59 2.295 2.295 0 010-4.59 16.891 16.891 0 0111.948 4.928 16.764 16.764 0 014.955 11.908c0 4.645-1.899 8.87-4.955 11.91a16.894 16.894 0 01-11.948 4.927 2.295 2.295 0 110-4.59zM.813 44.247c8.321 0 15.067-6.716 15.067-15.002 0-8.285-6.746-15-15.067-15v.918a14.14 14.14 0 0110.007 4.125 14.005 14.005 0 014.142 9.957c0 3.89-1.582 7.408-4.142 9.958A14.14 14.14 0 01.813 43.329v.918z"/></svg>