<svg xmlns="http://www.w3.org/2000/svg" fill="none" viewBox="0 0 36 69"><path fill="#fff" d="M24.47 43.132c.005.454.087.728.226 1.006.125.24.315.49.61.766.511.483 1.348 1.007 2.357 1.558 1.51.841 3.39 1.721 5.056 3.223.83.753 1.602 1.686 2.149 2.836.55 1.146.855 2.49.851 3.954a2.295 2.295 0 11-4.59 0c0-.747-.123-1.301-.313-1.773a4.07 4.07 0 00-.696-1.123c-.523-.612-1.301-1.193-2.253-1.759-1.424-.861-3.187-1.63-4.816-2.832-.81-.607-1.603-1.353-2.207-2.343a6.675 6.675 0 01-.963-3.513 2.295 2.295 0 014.59 0zm0-26.647c.005.454.087.728.226 1.005.125.24.315.49.61.766.511.484 1.348 1.009 2.357 1.559 1.51.841 3.39 1.722 5.056 3.223.83.752 1.6 1.686 2.149 2.835.55 1.147.855 2.489.851 3.955a2.295 2.295 0 11-4.59 0c0-.747-.123-1.3-.313-1.774a4.052 4.052 0 00-.696-1.121c-.523-.614-1.301-1.194-2.253-1.76-1.424-.861-3.187-1.63-4.816-2.832-.81-.607-1.603-1.352-2.207-2.343a6.678 6.678 0 01-.963-3.513 2.295 2.295 0 014.59 0z"/><path fill="#fff" d="M19.88 43.185a6.7 6.7 0 01.742-3.12 7.42 7.42 0 011.552-2.006c1.034-.96 2.18-1.62 3.278-2.227 1.649-.895 3.203-1.692 4.18-2.596.492-.45.846-.901 1.093-1.416.244-.519.402-1.121.405-1.98a2.295 2.295 0 014.59 0c.001 1.276-.227 2.459-.652 3.5a8.645 8.645 0 01-1.466 2.387c-1.023 1.187-2.228 2.017-3.382 2.71-1.734 1.023-3.405 1.792-4.42 2.568-.512.38-.844.734-1.034 1.051-.187.322-.288.608-.295 1.13a2.295 2.295 0 11-4.59 0zm0-26.711a6.697 6.697 0 01.742-3.12 7.424 7.424 0 011.552-2.006c1.034-.96 2.18-1.618 3.278-2.226 1.649-.895 3.203-1.693 4.18-2.596.492-.45.846-.901 1.093-1.417.244-.518.402-1.12.405-1.98a2.296 2.296 0 014.59 0c.001 1.278-.227 2.46-.652 3.502a8.644 8.644 0 01-1.466 2.386c-1.023 1.187-2.228 2.017-3.382 2.71-1.734 1.023-3.405 1.792-4.42 2.567-.512.382-.844.735-1.034 1.051-.188.322-.288.608-.295 1.13a2.295 2.295 0 01-4.59 0zm-7.808 52.282h.918c.001-1.597-.423-2.894-1.114-3.945-.69-1.053-1.631-1.859-2.648-2.542-2.038-1.36-4.403-2.28-5.887-3.58-.99-.87-1.593-1.834-1.6-3.277H.823A4.83 4.83 0 001.966 58.6c.7.843 1.634 1.49 2.642 2.084 2.018 1.182 4.346 2.173 5.829 3.778.987 1.07 1.629 2.378 1.635 4.295zm0-26.648h.918c.001-1.596-.423-2.893-1.114-3.944-.69-1.053-1.631-1.858-2.648-2.542-2.038-1.361-4.403-2.28-5.887-3.58-.99-.871-1.593-1.833-1.6-3.276H.823a4.83 4.83 0 001.143 3.186c.7.843 1.634 1.49 2.642 2.085 2.018 1.18 4.346 2.172 5.829 3.777.987 1.07 1.629 2.379 1.635 4.294z"/><path fill="#fff" d="M.823 55.401h.918c.003-1.086.348-1.888.932-2.6.586-.709 1.431-1.31 2.4-1.88 1.938-1.147 4.355-2.144 6.035-3.944 1.122-1.199 1.887-2.79 1.881-4.92h-.918c-.001 1.438-.368 2.53-.963 3.442-.595.91-1.433 1.64-2.393 2.284-1.917 1.294-4.298 2.2-5.977 3.65-1.119.96-1.923 2.24-1.915 3.968zm0-26.647h.918c.003-1.086.348-1.889.932-2.6.586-.71 1.431-1.31 2.4-1.88 1.938-1.146 4.355-2.144 6.035-3.944 1.122-1.198 1.887-2.79 1.881-4.92h-.918c-.001 1.439-.368 2.531-.963 3.442-.595.91-1.433 1.64-2.393 2.284-1.917 1.295-4.298 2.2-5.977 3.649-1.119.96-1.923 2.24-1.915 3.969z"/></svg>