<svg xmlns="http://www.w3.org/2000/svg" fill="none" viewBox="0 0 408 593"><g fill="#202020" opacity=".4"><path d="M21.346 252.904h2.295c0 3.407 1.375 6.47 3.606 8.706a12.264 12.264 0 008.706 3.606 12.27 12.27 0 008.707-3.606 12.264 12.264 0 003.606-8.706 12.26 12.26 0 00-3.605-8.707 12.272 12.272 0 00-8.708-3.607 12.265 12.265 0 00-8.706 3.607 12.262 12.262 0 00-3.606 8.707h-4.59c.002-9.337 7.567-16.902 16.902-16.904 9.336.002 16.902 7.567 16.903 16.904 0 9.335-7.567 16.9-16.903 16.902-9.335-.002-16.9-7.567-16.902-16.902h2.295z"/><path d="M15.066 280.259c7.139 0 13.118-4.964 14.674-11.629-.29-.116-.576-.24-.858-.371a14.119 14.119 0 01-3.811 6.939 14.102 14.102 0 01-10.005 4.143 14.101 14.101 0 01-10.004-4.143 14.103 14.103 0 01-4.144-10.005c0-3.909 1.582-7.443 4.144-10.005a14.102 14.102 0 0110.004-4.144c1.423 0 2.796.209 4.091.6.023-.312.055-.622.096-.929a15.104 15.104 0 00-4.187-.589C6.746 250.126 0 256.871 0 265.193c0 8.321 6.745 15.066 15.066 15.066zm14.996-16.547a15.061 15.061 0 00-6.364-10.87v.087c0 .368.017.73.048 1.089.466.363.908.753 1.325 1.17a14.108 14.108 0 013.99 7.906c.322.221.657.428 1 .618zm61.128-153.59l1.12 2.004-23.37 13.044 11.926 21.365 21.364-11.925-13.044-23.369 2.004-1.119 1.118 2.004-1.118-2.004 2.004-1.118 14.162 25.373a2.31 2.31 0 01.204 1.744 2.312 2.312 0 01-1.089 1.378L81.1 151.661a2.315 2.315 0 01-1.744.204 2.312 2.312 0 01-1.379-1.089l-14.162-25.373a2.308 2.308 0 01-.203-1.745 2.308 2.308 0 011.088-1.378l25.372-14.161a2.307 2.307 0 011.745-.205c.58.165 1.083.562 1.378 1.09l-2.004 1.118z"/><path d="M67.463 171.171l26.173-14.609-5.082-9.104-.802.447 4.635 8.303-24.57 13.714-13.714-24.571 15.883-8.866-.447-.801-16.686 9.313 14.61 26.174zm18.052-27.274l.802-.447-7.067-12.661-.224-.401-5.48 3.059.448.801 4.678-2.611 6.843 12.26zm300.502 83.831c.387-.24.579-.452.743-.715.141-.231.256-.523.339-.919.149-.687.164-1.675.111-2.823-.062-1.727-.284-3.792.135-5.996.214-1.099.613-2.243 1.313-3.306.695-1.066 1.685-2.022 2.94-2.779a2.295 2.295 0 112.379 3.925c-.638.389-1.048.78-1.354 1.188a4.082 4.082 0 00-.6 1.176c-.252.765-.346 1.732-.336 2.839.001 1.665.257 3.572.074 5.588-.099 1.008-.325 2.072-.859 3.102a6.683 6.683 0 01-2.506 2.645 2.296 2.296 0 01-2.379-3.925zm-22.787 13.809c.386-.24.578-.452.743-.715.14-.231.255-.523.338-.919.15-.687.164-1.674.113-2.822-.064-1.726-.285-3.791.134-5.995.214-1.099.613-2.242 1.311-3.307.696-1.064 1.687-2.021 2.941-2.778a2.295 2.295 0 112.379 3.925c-.638.389-1.048.78-1.353 1.188a4.062 4.062 0 00-.6 1.177c-.253.764-.346 1.73-.336 2.838.001 1.664.258 3.57.073 5.586-.099 1.008-.325 2.073-.859 3.103a6.664 6.664 0 01-2.505 2.644 2.295 2.295 0 01-2.379-3.925z"/><path d="M388.441 231.624a6.698 6.698 0 01-3.052.982 7.415 7.415 0 01-2.52-.287c-1.357-.387-2.515-1.026-3.603-1.649-1.62-.946-3.107-1.862-4.387-2.229-.64-.188-1.209-.256-1.778-.2-.57.06-1.167.237-1.903.68a2.295 2.295 0 11-2.379-3.926c1.091-.663 2.221-1.08 3.332-1.257a8.661 8.661 0 012.8.017c1.546.26 2.881.86 4.071 1.488 1.774.952 3.298 1.982 4.486 2.449.592.24 1.066.34 1.435.339.373-.006.669-.068 1.119-.332a2.295 2.295 0 112.379 3.925zm-22.844 13.845a6.696 6.696 0 01-3.051.981 7.42 7.42 0 01-2.52-.287c-1.357-.387-2.514-1.026-3.602-1.649-1.621-.946-3.107-1.862-4.387-2.228-.64-.189-1.209-.257-1.777-.202-.57.06-1.166.237-1.902.679v.001l-1.186-1.957 1.48 1.744c-.13.11-.239.18-.294.213l-1.186-1.957 1.48 1.744a2.295 2.295 0 11-2.673-3.712v-.001c1.091-.663 2.22-1.08 3.332-1.257a8.654 8.654 0 012.799.018c1.544.26 2.879.859 4.069 1.487 1.774.953 3.298 1.983 4.487 2.45.592.239 1.066.34 1.435.339.373-.007.669-.068 1.119-.332a2.294 2.294 0 112.377 3.926zm10.282 5.92a4.83 4.83 0 002.119-2.622c.358-1.035.428-2.17.414-3.34-.037-2.338-.395-4.844.208-6.944.405-1.4 1.191-2.627 2.827-3.625l-.476-.785a.022.022 0 01-.008.005c-1.363.826-2.249 1.859-2.789 2.992-.542 1.137-.744 2.359-.801 3.584-.108 2.449.332 4.947-.01 6.891-.232 1.299-.743 2.313-1.973 3.066l.476.786a.091.091 0 01.013-.008zm-22.787 13.808a4.823 4.823 0 002.118-2.621c.359-1.036.428-2.17.415-3.341-.037-2.337-.395-4.842.208-6.941.405-1.4 1.191-2.627 2.826-3.625l-.476-.785-.009.006c-1.361.825-2.248 1.858-2.787 2.991-.543 1.135-.744 2.359-.801 3.584-.108 2.447.331 4.946-.01 6.889-.232 1.298-.743 2.312-1.973 3.066l.476.785a.091.091 0 00.013-.008z"/><path d="M375.891 251.379a.352.352 0 00.02-.012l-.476-.785c-.931.56-1.796.682-2.707.55-.91-.133-1.862-.544-2.851-1.079-1.986-1.061-4.091-2.612-6.502-3.116-1.601-.337-3.351-.168-5.164.93l-.018.012.475.785c1.232-.744 2.356-.996 3.443-.961 1.087.038 2.146.376 3.194.863 2.101.969 4.109 2.535 6.219 3.22 1.395.457 2.899.483 4.367-.407zm-22.824 13.834l-.237-.393-.238-.393c-.93.56-1.795.68-2.707.549-.909-.133-1.861-.544-2.851-1.079-1.984-1.061-4.09-2.611-6.5-3.117-1.601-.335-3.35-.168-5.162.931l-.02.011-.061.044.595.7-.293-.346.235.388.001-.001c1.23-.744 2.355-.996 3.441-.96 1.087.037 2.144.376 3.193.864 2.101.967 4.109 2.534 6.218 3.219 1.396.457 2.9.484 4.368-.406l.018-.011zM60.475 21.12L30.098 33.824a2.295 2.295 0 01-1.771-4.234l30.377-12.704a2.295 2.295 0 111.771 4.234zm-46.05 29.525l30.378-12.704.354.847L14.78 51.492l-.355-.847zm306.258 66.847a12.26 12.26 0 001.423-9.316 12.27 12.27 0 00-5.581-7.594 12.268 12.268 0 00-9.316-1.424 12.26 12.26 0 00-7.594 5.582 2.295 2.295 0 01-3.926-2.377c4.835-7.987 15.225-10.54 23.213-5.708 7.985 4.835 10.541 15.226 5.707 23.214a2.295 2.295 0 01-3.926-2.377z"/><path d="M273 102.918l.785.476a14.102 14.102 0 018.726-6.412 14.101 14.101 0 0110.704 1.635 14.108 14.108 0 013.189 2.632c.182-.255.37-.504.563-.745a15.065 15.065 0 00-3.276-2.672c-7.118-4.309-16.381-2.032-20.691 5.086zm24.994 15.129l.785.476a15.041 15.041 0 00.89-13.897l-.045.074a2.296 2.296 0 01-.631.682c.259.637.471 1.293.636 1.961a14.096 14.096 0 01-1.635 10.704zm76.993-103.105l-1.585.424-3.556-13.301a1.642 1.642 0 012.011-2.009l13.291 3.575 13.297 3.571a1.64 1.64 0 01.734 2.746l-9.741 9.725-9.738 9.73a1.642 1.642 0 01-2.745-.737l-3.553-13.3 1.585-.424 1.585-.424 2.819 10.554 7.729-7.72 7.728-7.718L384.296 6.8l-10.545-2.836 2.821 10.554-1.585.424z"/><path d="M363.403 37.615l10.14-10.132 2.455-2.45-.196-.733-2.723 2.719-9.336 9.328-3.407-12.75-3.409-12.753 12.742 3.427 3.721 1-.196-.732-3.355-.901L356 9.915l3.703 13.85 3.7 13.85zm15.276-15.26l5.006-4.998-6.831-1.835.195.732 5.368 1.441-3.933 3.928.195.732z"/></g><g fill="#202020" opacity=".4"><path d="M21.346 564.904h2.295c0 3.407 1.375 6.47 3.606 8.706a12.264 12.264 0 008.706 3.606 12.27 12.27 0 008.707-3.606 12.264 12.264 0 003.606-8.706 12.26 12.26 0 00-3.605-8.707 12.272 12.272 0 00-8.708-3.607 12.265 12.265 0 00-8.706 3.607 12.262 12.262 0 00-3.606 8.707h-4.59c.002-9.337 7.567-16.902 16.902-16.904 9.336.002 16.902 7.567 16.903 16.904 0 9.335-7.567 16.9-16.903 16.902-9.335-.002-16.9-7.567-16.902-16.902h2.295z"/><path d="M15.066 592.259c7.139 0 13.118-4.964 14.674-11.629-.29-.116-.576-.24-.858-.371a14.119 14.119 0 01-3.811 6.939 14.102 14.102 0 01-10.005 4.143 14.101 14.101 0 01-10.004-4.143 14.103 14.103 0 01-4.144-10.005c0-3.909 1.582-7.443 4.144-10.005a14.102 14.102 0 0110.004-4.144c1.423 0 2.796.209 4.091.6.023-.312.055-.622.096-.929a15.104 15.104 0 00-4.187-.589C6.746 562.126 0 568.871 0 577.193c0 8.321 6.745 15.066 15.066 15.066zm14.996-16.547a15.061 15.061 0 00-6.364-10.87v.087c0 .368.017.73.048 1.089.466.363.908.753 1.325 1.17a14.108 14.108 0 013.99 7.906c.322.221.657.428 1 .618zm61.128-153.59l1.12 2.004-23.37 13.044 11.926 21.365 21.364-11.925-13.044-23.369 2.004-1.119 1.118 2.004-1.118-2.004 2.004-1.118 14.162 25.373a2.31 2.31 0 01.204 1.744 2.312 2.312 0 01-1.089 1.378L81.1 463.661a2.315 2.315 0 01-1.744.204 2.312 2.312 0 01-1.379-1.089l-14.162-25.373a2.308 2.308 0 01-.203-1.745 2.308 2.308 0 011.088-1.378l25.372-14.161a2.307 2.307 0 011.745-.205c.58.165 1.083.562 1.378 1.09l-2.004 1.118z"/><path d="M67.463 483.171l26.173-14.609-5.082-9.104-.802.447 4.635 8.303-24.57 13.714-13.714-24.571 15.883-8.866-.447-.801-16.686 9.313 14.61 26.174zm18.052-27.274l.802-.447-7.067-12.661-.224-.401-5.48 3.059.448.801 4.678-2.611 6.843 12.26zm300.502 83.831c.387-.24.579-.452.743-.715.141-.231.256-.523.339-.919.149-.687.164-1.675.111-2.823-.062-1.727-.284-3.792.135-5.996.214-1.099.613-2.243 1.313-3.306.695-1.066 1.685-2.022 2.94-2.779a2.295 2.295 0 112.379 3.925c-.638.389-1.048.78-1.354 1.188a4.082 4.082 0 00-.6 1.176c-.252.765-.346 1.732-.336 2.839.001 1.665.257 3.572.074 5.588-.099 1.008-.325 2.072-.859 3.102a6.683 6.683 0 01-2.506 2.645 2.296 2.296 0 01-2.379-3.925zm-22.787 13.809c.386-.24.578-.452.743-.715.14-.231.255-.523.338-.919.15-.687.164-1.674.113-2.822-.064-1.726-.285-3.791.134-5.995.214-1.099.613-2.242 1.311-3.307.696-1.064 1.687-2.021 2.941-2.778a2.295 2.295 0 112.379 3.925c-.638.389-1.048.78-1.353 1.188a4.062 4.062 0 00-.6 1.177c-.253.764-.346 1.73-.336 2.838.001 1.664.258 3.57.073 5.586-.099 1.008-.325 2.073-.859 3.103a6.664 6.664 0 01-2.505 2.644 2.295 2.295 0 01-2.379-3.925z"/><path d="M388.441 543.624a6.698 6.698 0 01-3.052.982 7.415 7.415 0 01-2.52-.287c-1.357-.387-2.515-1.026-3.603-1.649-1.62-.946-3.107-1.862-4.387-2.229-.64-.188-1.209-.256-1.778-.2-.57.06-1.167.237-1.903.68a2.295 2.295 0 11-2.379-3.926c1.091-.663 2.221-1.08 3.332-1.257a8.661 8.661 0 012.8.017c1.546.26 2.881.86 4.071 1.488 1.774.952 3.298 1.982 4.486 2.449.592.24 1.066.34 1.435.339.373-.006.669-.068 1.119-.332a2.295 2.295 0 112.379 3.925zm-22.844 13.845a6.696 6.696 0 01-3.051.981 7.42 7.42 0 01-2.52-.287c-1.357-.387-2.514-1.026-3.602-1.649-1.621-.946-3.107-1.862-4.387-2.228-.64-.189-1.209-.257-1.777-.202-.57.06-1.166.237-1.902.679v.001l-1.186-1.957 1.48 1.744c-.13.11-.239.18-.294.213l-1.186-1.957 1.48 1.744a2.295 2.295 0 11-2.673-3.712v-.001c1.091-.663 2.22-1.08 3.332-1.257a8.654 8.654 0 012.799.018c1.544.26 2.879.859 4.069 1.487 1.774.953 3.298 1.983 4.487 2.45.592.239 1.066.34 1.435.339.373-.007.669-.068 1.119-.332a2.294 2.294 0 112.377 3.926zm10.282 5.92a4.83 4.83 0 002.119-2.622c.358-1.035.428-2.171.414-3.34-.037-2.339-.395-4.845.208-6.944.405-1.4 1.191-2.627 2.827-3.625l-.476-.785-.008.005c-1.363.826-2.249 1.859-2.789 2.992-.542 1.136-.744 2.359-.801 3.584-.108 2.448.332 4.947-.01 6.891-.232 1.298-.743 2.312-1.973 3.066l.476.785.013-.007zm-22.787 13.809a4.825 4.825 0 002.118-2.622c.359-1.035.428-2.17.415-3.34-.037-2.338-.395-4.843.208-6.942.405-1.4 1.191-2.627 2.826-3.624l-.476-.785-.009.005c-1.361.825-2.248 1.858-2.787 2.991-.543 1.136-.744 2.359-.801 3.584-.108 2.447.331 4.946-.01 6.89-.232 1.297-.743 2.311-1.973 3.065l.476.785.013-.007z"/><path d="M375.891 563.379a.352.352 0 00.02-.012l-.476-.785c-.931.56-1.796.682-2.707.55-.91-.133-1.862-.544-2.851-1.078-1.986-1.062-4.091-2.612-6.502-3.117-1.601-.337-3.351-.168-5.164.931l-.018.011.475.785c1.232-.744 2.356-.996 3.443-.961 1.087.038 2.146.377 3.194.863 2.101.969 4.109 2.535 6.219 3.22 1.395.457 2.899.483 4.367-.407zm-22.824 13.833l-.237-.393-.238-.392c-.93.56-1.795.68-2.707.549-.909-.133-1.861-.544-2.851-1.079-1.984-1.061-4.09-2.611-6.5-3.117-1.601-.336-3.35-.168-5.162.93l-.02.012-.061.044.595.699-.293-.345.235.387h.001c1.23-.744 2.355-.996 3.441-.96 1.087.037 2.144.376 3.193.863 2.101.968 4.109 2.535 6.218 3.22 1.396.457 2.9.483 4.368-.406l.018-.012zM60.475 333.12l-30.377 12.704a2.295 2.295 0 01-1.771-4.234l30.377-12.705a2.295 2.295 0 011.771 4.235zm-46.05 29.525l30.378-12.704.354.847-30.377 12.704-.355-.847zm306.258 66.847a12.26 12.26 0 001.423-9.316 12.27 12.27 0 00-5.581-7.594 12.27 12.27 0 00-9.316-1.424 12.263 12.263 0 00-7.594 5.582 2.295 2.295 0 01-3.926-2.377c4.835-7.987 15.225-10.541 23.213-5.708 7.985 4.835 10.541 15.226 5.707 23.214a2.295 2.295 0 01-3.926-2.377z"/><path d="M273 414.918l.785.476a14.098 14.098 0 018.726-6.412 14.096 14.096 0 0110.704 1.635 14.113 14.113 0 013.189 2.632c.182-.255.37-.504.563-.745a15.035 15.035 0 00-3.276-2.672c-7.118-4.309-16.381-2.032-20.691 5.086zm24.994 15.129l.785.476a15.041 15.041 0 00.89-13.897l-.045.074a2.296 2.296 0 01-.631.682c.259.637.471 1.293.636 1.961a14.096 14.096 0 01-1.635 10.704zm76.993-103.105l-1.585.424-3.556-13.301a1.641 1.641 0 012.011-2.009l13.291 3.575 13.297 3.571a1.642 1.642 0 01.734 2.746l-9.741 9.725-9.738 9.73a1.643 1.643 0 01-2.745-.737l-3.553-13.3 1.585-.424 1.585-.423 2.819 10.553 7.729-7.72 7.728-7.718-10.552-2.834-10.545-2.836 2.821 10.555-1.585.423z"/><path d="M363.403 349.615l10.14-10.132 2.455-2.451-.196-.732-2.723 2.719-9.336 9.328-3.407-12.751-3.409-12.752 12.742 3.427 3.721 1-.196-.732-3.355-.901L356 321.915l3.703 13.851 3.7 13.849zm15.276-15.26l5.006-4.999-6.831-1.834.195.732 5.368 1.441-3.933 3.928.195.732z"/></g></svg>