<svg xmlns="http://www.w3.org/2000/svg" fill="none" viewBox="0 0 15 15"><path fill="#EF8B54" d="M.522 4.534a.522.522 0 00.523-.523V1.784l3.364 3.364a.52.52 0 00.74 0 .522.522 0 000-.739L1.782 1.045H4.01A.522.522 0 004.01 0H.522A.522.522 0 000 .523V4.01c0 .289.234.523.522.523zm13.956 5.932a.522.522 0 00-.523.523v2.227l-3.468-3.468a.522.522 0 00-.739.739l3.468 3.468H10.99a.522.522 0 000 1.045h3.489a.522.522 0 00.522-.523V10.99a.522.522 0 00-.522-.523zm-9.965-.718l-3.468 3.468V10.99a.522.522 0 10-1.045 0v3.488c0 .289.234.523.523.523H4.01a.522.522 0 000-1.045H1.784l3.468-3.468a.522.522 0 10-.739-.739zM14.478 0h-3.49a.522.522 0 100 1.045h2.228L9.852 4.409a.522.522 0 10.74.739l3.363-3.364V4.01a.522.522 0 101.045 0V.523A.523.523 0 0014.478 0z"/></svg>