<svg xmlns="http://www.w3.org/2000/svg" fill="none" viewBox="0 0 31 28"><g fill="#fff"><g clip-path="url(#clip0)"><mask id="a"><path d="M26.925 4.552a7.48 7.48 0 00-5.332-2.207 7.5 7.5 0 00-5.34 2.213l-.744.745-.757-.757a7.519 7.519 0 00-5.345-2.218A7.49 7.49 0 004.08 4.535a7.47 7.47 0 00-2.207 5.338c0 2.017.792 3.906 2.219 5.333l10.85 10.85c.15.151.353.232.55.232a.779.779 0 00.548-.225l10.874-10.834a7.5 7.5 0 002.213-5.338 7.465 7.465 0 00-2.202-5.339zm-1.109 9.574L15.491 24.41 5.19 14.108a5.948 5.948 0 01-1.756-4.235c0-1.6.618-3.102 1.75-4.229a5.94 5.94 0 014.224-1.75c1.6 0 3.109.623 4.241 1.756l1.306 1.306a.778.778 0 001.103 0l1.295-1.295a5.958 5.958 0 014.235-1.756 5.97 5.97 0 014.23 1.75 5.943 5.943 0 011.75 4.236 5.92 5.92 0 01-1.75 4.235z"/></mask><path d="M26.925 4.552a7.48 7.48 0 00-5.332-2.207 7.5 7.5 0 00-5.34 2.213l-.744.745-.757-.757a7.519 7.519 0 00-5.345-2.218A7.49 7.49 0 004.08 4.535a7.47 7.47 0 00-2.207 5.338c0 2.017.792 3.906 2.219 5.333l10.85 10.85c.15.151.353.232.55.232a.779.779 0 00.548-.225l10.874-10.834a7.5 7.5 0 002.213-5.338 7.465 7.465 0 00-2.202-5.339zm-1.109 9.574L15.491 24.41 5.19 14.108a5.948 5.948 0 01-1.756-4.235c0-1.6.618-3.102 1.75-4.229a5.94 5.94 0 014.224-1.75c1.6 0 3.109.623 4.241 1.756l1.306 1.306a.778.778 0 001.103 0l1.295-1.295a5.958 5.958 0 014.235-1.756 5.97 5.97 0 014.23 1.75 5.943 5.943 0 011.75 4.236 5.92 5.92 0 01-1.75 4.235z"/><path d="M16.254 4.558L-349.902-361.6 16.254 4.558zm-.745.745L-350.647 371.46 15.509 737.614 381.664 371.46 15.509 5.303zm-.757-.757l-366.156 366.157L14.752 4.546zM1.873 9.873h517.823v-.742l-.002-.741L1.874 9.873zm2.219 5.333l-366.156 366.157L4.092 15.206zm10.85 10.85L381.098-340.1 14.942 26.057zm1.098.007l-365.473-366.839-.341.341-.341.341L16.04 26.063zm10.874-10.834l365.473 366.838.341-.34.341-.341L26.914 15.229zm2.213-5.338l-517.821-1.484-.002.742v.742H29.127zm-3.31 4.235L391.251 381l.36-.358.36-.36L25.816 14.126zM15.49 24.41l-366.155 366.157L14.773 756.003l366.154-364.719L15.491 24.41zM5.19 14.108l-366.155 366.157L5.19 14.108zm-.005-8.464l365.218 367.092.469-.467.468-.468L5.184 5.644zm8.464.006l-366.155 366.156L13.648 5.65zm1.306 1.306L381.11-359.201 14.954 6.956zm1.103 0l366.156 366.156L16.057 6.956zm1.295-1.295l-366.156-366.156L17.352 5.661zm8.464-.005l366.156-366.157-.469-.468-.469-.467L25.816 5.656zm1.75 4.235h-517.822v.934l.003.935 517.82-1.87zm365.515-371.495c-98.815-98.815-232.529-153.874-371.489-153.874V520.168c-134.926 0-264.862-53.499-360.822-149.459l732.311-732.313zM21.592-515.478a525.325 525.325 0 00-371.494 153.879l732.311 732.313c-95.537 95.538-225.292 149.454-360.816 149.454V-515.478zm-371.494 153.879l-.745.746L381.664 371.46l.746-.746-732.312-732.313zm731.566.746l-.757-.757-732.311 732.313.757.757 732.311-732.313zm-.757-.757c-97.97-97.97-231.348-153.885-371.5-153.885V520.15c-136.118 0-265.695-54.331-360.811-149.447L380.907-361.61zM9.407-515.495a525.316 525.316 0 00-371.482 153.873l732.311 732.313C274.63 466.296 144.85 520.15 9.407 520.15V-515.495zm-371.482 153.873c-98.358 98.358-154.276 232.347-153.873 372.98L519.694 8.39c.391 136.599-53.954 266.798-149.458 362.301l-732.311-732.313zM-515.95 9.873c0 140.996 56.517 274.121 153.886 371.49L370.247-350.95c94.515 94.514 149.449 223.86 149.449 360.823H-515.95zm153.886 371.49l10.851 10.85L381.098-340.1l-10.851-10.85-732.311 732.313zm10.851 10.85c96.732 96.732 228.427 151.898 366.704 151.898V-491.535c137.884 0 269.175 55.004 365.607 151.435l-732.311 732.313zM15.491 544.111c128.285 0 263.095-48.283 366.705-151.892l-732.311-732.313c103.308-103.309 237.714-151.441 365.606-151.441V544.111zm366.022-151.21l10.874-10.834-730.946-733.676-10.874 10.833 730.946 733.677zm11.556-11.515A525.32 525.32 0 00546.95 9.891H-488.696c0-135.525 53.916-265.28 149.454-360.818l732.311 732.313zM546.947 11.374c.4-139.612-54.786-273.898-153.866-372.978L-339.23 370.709c-96.226-96.226-149.852-226.722-149.464-362.302l1035.641 2.967zM-339.62-352.749l-10.325 10.285 730.872 733.748L391.252 381-339.62-352.749zm721.267 11.003l-10.302-10.302-732.311 732.313 10.302 10.302 732.311-732.313zm-10.302-10.302c95.667 95.666 149.911 225.746 149.911 361.921H-514.39c0 139.377 55.493 272.461 153.424 370.392l732.311-732.313zM521.256 9.873c0 134.655-53.217 265.724-150.854 362.863l-730.436-734.184C-459.937-262.055-514.39-127.983-514.39 9.873H521.256zM371.339 371.801C275.589 467.55 145.478 521.716 9.407 521.716V-513.929c-139.26 0-272.376 55.414-370.379 153.417l732.311 732.313zM9.407 521.716c-135.643 0-265.872-53.867-361.914-149.91l732.311-732.313A523.787 523.787 0 009.407-513.929V521.716zm-361.914-149.91l1.305 1.306 732.311-732.313-1.305-1.306-732.311 732.313zm1.305 1.306c202.529 202.528 530.886 202.528 733.415 0l-732.311-732.313c201.916-201.915 529.291-201.915 731.207 0l-732.311 732.313zm733.415 0l1.294-1.294-732.311-732.313-1.294 1.294 732.311 732.313zm1.294-1.294c-95.855 95.855-226.006 149.91-361.92 149.91V-513.918c-139.104 0-272.271 55.303-370.391 153.423l732.311 732.313zm-361.92 149.91c-136.299 0-265.812-54.289-360.989-148.981l730.436-734.183c-97.442-96.945-229.959-152.482-369.447-152.482V521.728zM-340.34 371.812C-436.914 275.238-490.256 144.78-490.256 9.891H545.39c0-138.091-54.579-271.552-153.418-370.392L-340.34 371.812zM-490.253 11.76c-.496-137.528 54.29-268.168 149.913-363.791l732.312 732.313C489.86 282.394 545.894 148.75 545.386 8.022L-490.253 11.76z" mask="url(#a)"/></g><path d="M.817 7.922c.554-4.156 4.695-6.83 8.711-5.625L15.5 4.088l6.125-1.838c3.964-1.189 8.063 1.4 8.692 5.49l.172 1.117-1.362 4.088-2.726 4.088L15.5 27.935 4.598 17.033.51 10.22l.307-2.298z"/><mask id="b"><path d="M28.496 3.211A8.51 8.51 0 0022.43.701a8.53 8.53 0 00-6.072 2.517l-.848.848-.861-.861A8.552 8.552 0 008.569.68a8.521 8.521 0 00-6.058 2.51A8.497 8.497 0 000 9.265c0 2.294.9 4.443 2.524 6.066l12.342 12.342c.17.171.4.263.624.263a.886.886 0 00.624-.256l12.369-12.323A8.53 8.53 0 0031 9.284a8.491 8.491 0 00-2.504-6.073zm-1.262 10.89L15.49 25.8 3.772 14.081a6.766 6.766 0 01-1.998-4.817c0-1.82.704-3.529 1.992-4.81A6.757 6.757 0 018.57 2.461c1.82 0 3.536.71 4.824 1.998l1.485 1.485a.885.885 0 001.255 0l1.472-1.472a6.777 6.777 0 014.818-1.998c1.813 0 3.522.71 4.81 1.992a6.76 6.76 0 011.991 4.817 6.733 6.733 0 01-1.99 4.817z"/></mask><path d="M28.496 3.211A8.51 8.51 0 0022.43.701a8.53 8.53 0 00-6.072 2.517l-.848.848-.861-.861A8.552 8.552 0 008.569.68a8.521 8.521 0 00-6.058 2.51A8.497 8.497 0 000 9.265c0 2.294.9 4.443 2.524 6.066l12.342 12.342c.17.171.4.263.624.263a.886.886 0 00.624-.256l12.369-12.323A8.53 8.53 0 0031 9.284a8.491 8.491 0 00-2.504-6.073zm-1.262 10.89L15.49 25.8 3.772 14.081a6.766 6.766 0 01-1.998-4.817c0-1.82.704-3.529 1.992-4.81A6.757 6.757 0 018.57 2.461c1.82 0 3.536.71 4.824 1.998l1.485 1.485a.885.885 0 001.255 0l1.472-1.472a6.777 6.777 0 014.818-1.998c1.813 0 3.522.71 4.81 1.992a6.76 6.76 0 011.991 4.817 6.733 6.733 0 01-1.99 4.817z"/><path d="M16.358 3.218L-400.13-413.271 16.358 3.218zm-.848.848l-416.487 416.488L15.51 837.04l416.487-416.486L15.51 4.066zm-.861-.861l-416.487 416.488v.001L14.649 3.204zM0 9.265h589.003V8.42l-.002-.844L0 9.264zm2.524 6.065l-416.488 416.489L2.524 15.33zm12.342 12.342l416.487-416.489L14.866 27.673zm1.248.007l-415.71-417.264-.389.387-.388.388L16.115 27.679zm12.369-12.323L444.194 432.62l.388-.387.388-.388L28.483 15.356zM31 9.284l-589.001-1.688-.002.844v.844H31zM27.234 14.1l415.669 417.305.41-.408.409-.408L27.234 14.101zM15.49 25.8l-416.487 416.489 415.67 415.669L431.16 443.104 15.49 25.799zM3.772 14.081L-412.715 430.57 3.772 14.081zm-.006-9.628l415.421 417.553.534-.531.532-.533L3.766 4.453zm9.628.007l-416.488 416.489L13.394 4.46zm1.485 1.485l416.487-416.488L14.879 5.945zm1.255 0l416.488 416.489L16.134 5.945zm1.472-1.472L-398.88-412.015 17.606 4.473zm9.628-.006l416.488-416.489-.533-.533-.534-.531L27.235 4.467zm1.991 4.817h-589.002v1.063l.003 1.063 589-2.126zm415.758-422.561C332.586-525.675 180.491-588.302 22.43-588.302V589.704c-153.473 0-301.27-60.853-410.421-170.004l832.974-832.977zM22.43-588.302c-158.741 0-310.643 63.115-422.56 175.031l832.975 832.978C324.175 528.377 176.584 589.704 22.43 589.704V-588.302zm-422.56 175.031l-.848.848 832.975 832.977.848-.848-832.975-832.977zm832.127.848l-.861-.861-832.974 832.978.861.86 832.974-832.977zm-.861-.861C319.699-524.721 167.987-588.322 8.57-588.322V589.684c-154.83 0-302.218-61.8-410.408-169.991l832.974-832.977zM8.57-588.322a597.527 597.527 0 00-422.547 175.025L418.998 419.68C310.251 528.427 162.631 589.684 8.57 589.684V-588.322zm-422.547 175.025C-525.855-301.419-589.459-149.012-589.001 10.952L589.001 7.576c.445 155.377-61.371 303.473-170.003 412.104l-832.975-832.977zM-589.003 9.264c0 160.378 64.286 311.801 175.039 422.555l832.975-832.978C526.518-293.652 589.003-146.526 589.003 9.264H-589.003zm175.039 422.555l12.342 12.342 832.975-832.978-12.342-12.342-832.975 832.978zm12.342 12.342C-291.592 554.19-141.794 616.938 15.49 616.938V-561.068c156.838 0 306.176 62.564 415.863 172.251l-832.975 832.978zM15.49 616.938c145.919 0 299.26-54.919 417.112-172.771L-400.373-388.81c117.51-117.509 270.391-172.258 415.863-172.258V616.938zm416.335-171.995l12.369-12.323-831.422-834.528-12.368 12.323 831.421 834.528zm13.145-13.098C556.888 319.928 620.003 168.026 620.003 9.284H-558.003c0-154.155 61.328-301.746 169.999-410.416L444.97 431.845zM620.001 10.971c.455-158.803-62.318-311.549-175.018-424.248L-387.991 419.7C-497.445 310.247-558.443 161.813-558.001 7.596l1178.002 3.376zM-388.435-403.204l-11.744 11.698 831.338 834.61 11.744-11.698-831.338-834.61zm820.413 12.514l-11.718-11.717-832.975 832.977 11.718 11.718L431.978-390.69zm-11.718-11.717C529.077-293.591 590.777-145.63 590.777 9.264H-587.229c0 158.535 63.121 309.913 174.514 421.306L420.26-402.407zM590.777 9.264c0 153.165-60.532 302.25-171.59 412.742l-830.842-835.105C-525.29-300.044-587.229-147.542-587.229 9.264H590.777zM420.253 420.942C311.341 529.853 163.345 591.465 8.57 591.465V-586.541c-158.403 0-309.817 63.031-421.292 174.506l832.975 832.977zM8.57 591.465c-154.289 0-302.419-61.272-411.664-170.516l832.975-832.978A595.787 595.787 0 008.57-586.541V591.465zm-411.664-170.516l1.486 1.485 832.974-832.977-1.485-1.486-832.975 832.978zm1.486 1.485c230.368 230.367 603.861 230.367 834.23 0l-832.975-832.977c229.671-229.671 602.048-229.671 831.719 0l-832.974 832.977zm834.23 0l1.472-1.472-832.975-832.977-1.472 1.472 832.975 832.977zm1.472-1.472C325.062 529.993 177.021 591.478 22.424 591.478V-586.528c-158.225 0-309.698 62.905-421.305 174.513l832.975 832.977zM22.424 591.478c-155.035 0-302.35-61.751-410.611-169.459l830.842-835.105C331.819-523.357 181.086-586.528 22.424-586.528V591.478zm-411.677-170.523c-109.85-109.849-170.524-258.24-170.524-411.671H618.229c0-157.072-62.081-308.88-174.507-421.306l-832.975 832.977zM-559.774 11.41c-.564-156.432 61.753-305.03 170.521-413.798L443.722 430.59C555.066 319.246 618.803 167.231 618.225 7.157L-559.774 11.41z" mask="url(#b)"/></g><defs><clipPath id="clip0"><path fill="#fff" d="M0 0h27.254v27.254H0z" transform="translate(1.873 .681)"/></clipPath></defs></svg>