<svg xmlns="http://www.w3.org/2000/svg" fill="none" viewBox="0 0 228 108"><path fill="#fff" d="M4.997 53.95a2.276 2.276 0 11-4.552 0 2.276 2.276 0 014.552 0zm17.144 0a2.276 2.276 0 11-4.551 0 2.276 2.276 0 014.551 0zm17.117 0a2.276 2.276 0 11-4.552 0 2.276 2.276 0 014.552 0zm17.144 0a2.275 2.275 0 11-4.55.002 2.275 2.275 0 014.55-.001zm17.144 0a2.276 2.276 0 11-4.55.001 2.276 2.276 0 014.55 0zm17.117 0a2.276 2.276 0 11-4.551.001 2.276 2.276 0 014.551 0zm17.145 0a2.276 2.276 0 11-4.551.001 2.276 2.276 0 014.551 0zm17.144 0a2.276 2.276 0 11-4.552 0 2.276 2.276 0 014.552 0zm17.117 0a2.276 2.276 0 11-4.552 0 2.276 2.276 0 014.552 0zm17.144 0a2.276 2.276 0 11-4.551.001 2.276 2.276 0 014.551 0zm17.146 0a2.276 2.276 0 11-4.552 0 2.276 2.276 0 014.552 0zm17.116 0a2.276 2.276 0 11-4.551.001 2.276 2.276 0 014.551 0zm17.144 0a2.276 2.276 0 11-4.552 0 2.276 2.276 0 014.552 0zm17.145 0a2.276 2.276 0 11-4.551.001 2.276 2.276 0 014.551 0zM4.997 79.598a2.276 2.276 0 11-4.552 0 2.276 2.276 0 014.552 0zm17.144 0a2.276 2.276 0 11-4.551 0 2.276 2.276 0 014.551 0zm17.117 0a2.276 2.276 0 11-4.551 0 2.276 2.276 0 014.551 0zm17.144 0a2.275 2.275 0 11-4.55.001 2.275 2.275 0 014.55 0zm17.144 0a2.276 2.276 0 11-4.55 0 2.276 2.276 0 014.55 0zm17.117 0a2.276 2.276 0 11-4.551 0 2.276 2.276 0 014.551 0zm17.145 0a2.276 2.276 0 11-4.551 0 2.276 2.276 0 014.551 0zm17.144 0a2.276 2.276 0 11-4.552 0 2.276 2.276 0 014.552 0zm17.117 0a2.276 2.276 0 11-4.552 0 2.276 2.276 0 014.552 0zm17.144 0a2.276 2.276 0 11-4.551 0 2.276 2.276 0 014.551 0zm17.146 0a2.276 2.276 0 11-4.552 0 2.276 2.276 0 014.552 0zm17.116 0a2.276 2.276 0 11-4.551 0 2.276 2.276 0 014.551 0zm17.144 0a2.276 2.276 0 11-4.552 0 2.276 2.276 0 014.552 0zm17.145 0a2.276 2.276 0 11-4.551 0 2.276 2.276 0 014.551 0zM4.997 105.259a2.277 2.277 0 11-4.553-.001 2.277 2.277 0 014.553.001zm17.144 0a2.277 2.277 0 11-4.553-.001 2.277 2.277 0 014.553.001zm17.117 0a2.277 2.277 0 11-4.553-.001 2.277 2.277 0 014.553.001zm17.144 0a2.276 2.276 0 11-4.552 0 2.276 2.276 0 014.552 0zm17.144 0a2.276 2.276 0 11-4.552 0 2.276 2.276 0 014.552 0zm17.117 0a2.276 2.276 0 11-4.553 0 2.276 2.276 0 014.553 0zm17.145 0a2.276 2.276 0 11-4.553 0 2.276 2.276 0 014.553 0zm17.144 0a2.277 2.277 0 11-4.553-.001 2.277 2.277 0 014.553.001zm17.117 0a2.277 2.277 0 11-4.553-.001 2.277 2.277 0 014.553.001zm17.144 0a2.276 2.276 0 11-4.548 0 2.276 2.276 0 014.548 0zm17.146 0a2.277 2.277 0 11-4.553-.001 2.277 2.277 0 014.553.001zm17.116 0a2.276 2.276 0 11-4.553 0 2.276 2.276 0 014.553 0zm17.144 0a2.277 2.277 0 11-4.553-.001 2.277 2.277 0 014.553.001zm17.145 0a2.276 2.276 0 11-4.553 0 2.276 2.276 0 014.553 0zM4.997 28.29a2.276 2.276 0 11-4.553-.001 2.276 2.276 0 014.553 0zm17.144 0a2.276 2.276 0 11-4.552-.001 2.276 2.276 0 014.552 0zm17.117 0a2.276 2.276 0 11-4.552-.001 2.276 2.276 0 014.552 0zm17.144 0a2.276 2.276 0 11-4.551 0 2.276 2.276 0 014.55 0zm17.144 0a2.276 2.276 0 11-4.552 0 2.276 2.276 0 014.552 0zm17.117 0a2.276 2.276 0 11-4.552 0 2.276 2.276 0 014.552 0zm17.145 0a2.276 2.276 0 11-4.552-.001 2.276 2.276 0 014.552 0zm17.144 0a2.276 2.276 0 11-4.553-.002 2.276 2.276 0 014.553.002zm17.117 0a2.276 2.276 0 11-4.553-.002 2.276 2.276 0 014.553.002zm17.144 0a2.276 2.276 0 11-4.552-.001 2.276 2.276 0 014.552 0zm17.146 0a2.276 2.276 0 11-4.553-.002 2.276 2.276 0 014.553.002zm17.116 0a2.276 2.276 0 11-4.552-.001 2.276 2.276 0 014.552 0zm17.144 0a2.276 2.276 0 11-4.553-.002 2.276 2.276 0 014.553.002zm17.145 0a2.276 2.276 0 11-4.552-.001 2.276 2.276 0 014.552 0zM4.997 2.643a2.276 2.276 0 11-4.552 0 2.276 2.276 0 014.552 0zm17.144 0a2.276 2.276 0 11-4.551 0 2.276 2.276 0 014.551 0zm17.117 0a2.276 2.276 0 11-4.551 0 2.276 2.276 0 014.551 0zm17.144 0a2.275 2.275 0 11-4.55 0 2.275 2.275 0 014.55 0zm17.144 0a2.275 2.275 0 11-4.55 0 2.275 2.275 0 014.55 0zm17.117 0a2.275 2.275 0 11-4.551 0 2.275 2.275 0 014.551 0zm17.145 0a2.276 2.276 0 11-4.551 0 2.276 2.276 0 014.551 0zm17.144 0a2.276 2.276 0 11-4.552 0 2.276 2.276 0 014.552 0zm17.117 0a2.276 2.276 0 11-4.552 0 2.276 2.276 0 014.552 0zm17.144 0a2.276 2.276 0 11-4.551 0 2.276 2.276 0 014.551 0zm17.146 0a2.276 2.276 0 11-4.552 0 2.276 2.276 0 014.552 0zm17.116 0a2.276 2.276 0 11-4.551 0 2.276 2.276 0 014.551 0zm17.144 0a2.276 2.276 0 11-4.552 0 2.276 2.276 0 014.552 0zm17.145 0a2.276 2.276 0 11-4.551 0 2.276 2.276 0 014.551 0z"/></svg>