<svg xmlns="http://www.w3.org/2000/svg" fill="none" viewBox="0 0 320 293"><g fill="#fff" clip-path="url(#clip0)" opacity=".3"><path d="M190.707 35.664c3.81 3.572 6.8 7.733 8.89 12.367a36.619 36.619 0 013.26 14.952h-82.934a36.602 36.602 0 013.259-14.952c2.09-4.634 5.081-8.794 8.89-12.367 3.809-3.573 8.243-6.377 13.181-8.336 5.111-2.028 10.54-3.056 16.137-3.056 5.596 0 11.025 1.028 16.136 3.056 4.938 1.959 9.373 4.763 13.181 8.336zm-71.005 27.514h83.375c0-21.594-18.664-39.1-41.687-39.1-23.024 0-41.688 17.506-41.688 39.1z"/><path d="M115.934 43.785c0-7.873 6.025-14.255 13.457-14.255 7.431 0 13.456 6.382 13.456 14.255h-26.913z"/></g><g fill="#fff" clip-path="url(#clip1)" opacity=".3"><path d="M-24.89 224.247H88.476L31.793 126.07l-56.682 98.177zm114.505.657H-26.027l57.82-100.148 57.822 100.148z"/><path d="M8.152 165.702l34.005 58.707-.569.329-33.816-58.379.38-.657zm53.324 92.424l-10.647-18.38-10.612 18.38h21.26zm-72.05.003h21.558L.187 239.49l-10.761 18.639z"/><path d="M25.394 195.842L.224 239.438h50.422l-25.252-43.596z"/><path fill-opacity=".5" d="M40.052 248.782h-29.23l14.639 25.273 14.59-25.273z"/></g><g fill="#fff" clip-path="url(#clip2)" opacity=".3"><path d="M218.589 239.534a1.066 1.066 0 11-2.132.002 1.066 1.066 0 012.132-.002zm8.038 0a1.067 1.067 0 11-2.133 0 1.067 1.067 0 012.133 0zm8.024 0a1.067 1.067 0 11-2.133 0 1.067 1.067 0 012.133 0zm8.037 0a1.066 1.066 0 11-2.132.002 1.066 1.066 0 012.132-.002zm8.037 0a1.067 1.067 0 11-2.133.001 1.067 1.067 0 012.133-.001zm8.024 0a1.066 1.066 0 11-2.132.002 1.066 1.066 0 012.132-.002zm8.038 0a1.066 1.066 0 11-2.132.002 1.066 1.066 0 012.132-.002zm8.037 0a1.066 1.066 0 11-2.132.002 1.066 1.066 0 012.132-.002zm8.024 0a1.066 1.066 0 11-2.132.002 1.066 1.066 0 012.132-.002zm8.038 0a1.067 1.067 0 11-2.133 0 1.067 1.067 0 012.133 0zm8.038 0a1.067 1.067 0 11-2.133 0 1.067 1.067 0 012.133 0zm8.024 0a1.067 1.067 0 11-2.133 0 1.067 1.067 0 012.133 0zm8.037 0a1.067 1.067 0 11-2.133 0 1.067 1.067 0 012.133 0zm-96.396 12.023a1.066 1.066 0 11-2.132.002 1.066 1.066 0 012.132-.002zm8.038 0a1.067 1.067 0 11-2.133 0 1.067 1.067 0 012.133 0zm8.024 0a1.067 1.067 0 11-2.133 0 1.067 1.067 0 012.133 0zm8.037 0a1.066 1.066 0 11-2.132.002 1.066 1.066 0 012.132-.002zm8.037 0a1.067 1.067 0 11-2.133.001 1.067 1.067 0 012.133-.001zm8.024 0a1.066 1.066 0 11-2.132.002 1.066 1.066 0 012.132-.002zm8.038 0a1.066 1.066 0 11-2.132.002 1.066 1.066 0 012.132-.002zm8.037 0a1.066 1.066 0 11-2.132.002 1.066 1.066 0 012.132-.002zm8.024 0a1.066 1.066 0 11-2.132.002 1.066 1.066 0 012.132-.002zm8.038 0a1.067 1.067 0 11-2.133 0 1.067 1.067 0 012.133 0zm8.038 0a1.067 1.067 0 11-2.133 0 1.067 1.067 0 012.133 0zm8.024 0a1.067 1.067 0 11-2.133 0 1.067 1.067 0 012.133 0zm8.037 0a1.067 1.067 0 11-2.133 0 1.067 1.067 0 012.133 0zm-96.396 12.03a1.067 1.067 0 11-2.133 0 1.067 1.067 0 012.133 0zm8.038 0a1.067 1.067 0 11-2.135 0 1.067 1.067 0 012.135 0zm8.024 0a1.067 1.067 0 11-2.135 0 1.067 1.067 0 012.135 0zm8.037 0a1.067 1.067 0 11-2.133 0 1.067 1.067 0 012.133 0zm8.037 0a1.067 1.067 0 11-2.134 0 1.067 1.067 0 012.134 0zm8.024 0a1.067 1.067 0 11-2.133.001 1.067 1.067 0 012.133-.001zm8.038 0a1.067 1.067 0 11-2.133 0 1.067 1.067 0 012.133 0zm8.037 0a1.067 1.067 0 11-2.133 0 1.067 1.067 0 012.133 0zm8.024 0a1.067 1.067 0 11-2.133.001 1.067 1.067 0 012.133-.001zm8.038 0a1.067 1.067 0 11-2.135 0 1.067 1.067 0 012.135 0zm8.038 0a1.067 1.067 0 11-2.135 0 1.067 1.067 0 012.135 0zm8.024 0a1.067 1.067 0 11-2.135 0 1.067 1.067 0 012.135 0zm8.037 0a1.067 1.067 0 11-2.135 0 1.067 1.067 0 012.135 0zm-96.396-36.083a1.067 1.067 0 11-2.133 0 1.067 1.067 0 012.133 0zm8.038 0a1.067 1.067 0 11-2.135 0 1.067 1.067 0 012.135 0zm8.024 0a1.067 1.067 0 11-2.135 0 1.067 1.067 0 012.135 0zm8.037 0a1.067 1.067 0 11-2.133 0 1.067 1.067 0 012.133 0zm8.037 0a1.067 1.067 0 11-2.134 0 1.067 1.067 0 012.134 0zm8.024 0a1.067 1.067 0 11-2.133.001 1.067 1.067 0 012.133-.001zm8.038 0a1.067 1.067 0 11-2.133 0 1.067 1.067 0 012.133 0zm8.037 0a1.067 1.067 0 11-2.133 0 1.067 1.067 0 012.133 0zm8.024 0a1.067 1.067 0 11-2.133.001 1.067 1.067 0 012.133-.001zm8.038 0a1.067 1.067 0 11-2.135 0 1.067 1.067 0 012.135 0zm8.038 0a1.067 1.067 0 11-2.135 0 1.067 1.067 0 012.135 0zm8.024 0a1.067 1.067 0 11-2.135 0 1.067 1.067 0 012.135 0zm8.037 0a1.067 1.067 0 11-2.135 0 1.067 1.067 0 012.135 0zm-96.396-12.023a1.067 1.067 0 11-2.133 0 1.067 1.067 0 012.133 0zm8.038 0a1.067 1.067 0 11-2.135 0 1.067 1.067 0 012.135 0zm8.024 0a1.067 1.067 0 11-2.135 0 1.067 1.067 0 012.135 0zm8.037 0a1.067 1.067 0 11-2.133 0 1.067 1.067 0 012.133 0zm8.037 0a1.067 1.067 0 11-2.134 0 1.067 1.067 0 012.134 0zm8.024 0a1.067 1.067 0 11-2.133.001 1.067 1.067 0 012.133-.001zm8.038 0a1.067 1.067 0 11-2.133 0 1.067 1.067 0 012.133 0zm8.037 0a1.067 1.067 0 11-2.133 0 1.067 1.067 0 012.133 0zm8.024 0a1.067 1.067 0 11-2.133.001 1.067 1.067 0 012.133-.001zm8.038 0a1.067 1.067 0 11-2.135 0 1.067 1.067 0 012.135 0zm8.038 0a1.067 1.067 0 11-2.135 0 1.067 1.067 0 012.135 0zm8.024 0a1.067 1.067 0 11-2.135 0 1.067 1.067 0 012.135 0zm8.037 0a1.067 1.067 0 11-2.135 0 1.067 1.067 0 012.135 0z"/></g><defs><clipPath id="clip0"><path fill="#fff" d="M0 0h87.197v87.197H0z" transform="rotate(-90 101.56 -14.363)"/></clipPath><clipPath id="clip1"><path fill="#fff" d="M0 0h149.547v149.547H0z" transform="translate(-43 124.701)"/></clipPath><clipPath id="clip2"><path fill="#fff" d="M0 0h106.887v106.887H0z" transform="rotate(-90 254.624 38.376)"/></clipPath></defs></svg>