<svg xmlns="http://www.w3.org/2000/svg" fill="none" viewBox="0 0 186 84"><path fill="#fff" d="M159.521 25.075c8.126 7.62 14.506 16.496 18.963 26.38 4.558 10.106 6.896 20.836 6.954 31.895H8.531c.057-11.06 2.396-21.789 6.953-31.895 4.457-9.884 10.837-18.76 18.963-26.38 8.124-7.621 17.583-13.603 28.116-17.781C73.465 2.968 85.046.775 96.984.775c11.938 0 23.519 2.193 34.421 6.519 10.533 4.178 19.993 10.16 28.116 17.78zM8.061 83.766h177.847C185.908 37.702 146.095.36 96.984.36 47.873.36 8.06 37.702 8.06 83.766z"/><path fill="#fff" d="M.023 42.397c0-16.793 12.851-30.407 28.704-30.407S57.43 25.604 57.43 42.397H.023z"/></svg>