<svg xmlns="http://www.w3.org/2000/svg" fill="none" viewBox="0 0 781 625"><g fill="#fff" opacity=".3"><path d="M498.521 76.075c8.126 7.62 14.506 16.496 18.963 26.38 4.558 10.106 6.896 20.836 6.954 31.895H347.531c.057-11.059 2.396-21.789 6.953-31.895 4.457-9.884 10.837-18.76 18.963-26.38 8.124-7.621 17.583-13.603 28.116-17.781 10.902-4.326 22.483-6.519 34.421-6.519 11.938 0 23.519 2.193 34.421 6.519 10.533 4.178 19.993 10.16 28.116 17.78zM347.06 134.766h177.848c0-46.064-39.813-83.406-88.924-83.406-49.111 0-88.924 37.342-88.924 83.406z"/><path d="M339.023 93.397c0-16.793 12.851-30.407 28.704-30.407s28.704 13.614 28.704 30.407h-57.408z"/></g><g fill="#fff" opacity=".3"><path d="M38.633 478.341H280.45L159.542 268.92 38.632 478.341zm244.248 1.403H36.205l123.337-213.627 123.339 213.627z"/><path d="M109.112 353.46l72.538 125.227-1.214.703-72.133-124.528.809-1.402zm113.747 197.151l-22.712-39.208-22.637 39.208h45.349zm-153.691.006h45.986l-23.03-39.76-22.956 39.76z"/><path d="M145.891 417.751l-53.69 92.994h107.557l-53.867-92.994z"/><path fill-opacity=".5" d="M177.158 530.678h-62.352l31.228 53.909 31.124-53.909z"/></g><path fill="#fff" d="M557.997 510.951a2.276 2.276 0 11-4.552 0 2.276 2.276 0 014.552 0zm17.144 0a2.276 2.276 0 11-4.552 0 2.276 2.276 0 014.552 0zm17.117 0a2.276 2.276 0 11-4.552 0 2.276 2.276 0 014.552 0zm17.144 0a2.275 2.275 0 11-4.55.002 2.275 2.275 0 014.55-.002zm17.144 0a2.276 2.276 0 11-4.552 0 2.276 2.276 0 014.552 0zm17.117 0a2.276 2.276 0 11-4.552 0 2.276 2.276 0 014.552 0zm17.145 0a2.276 2.276 0 11-4.552 0 2.276 2.276 0 014.552 0zm17.144 0a2.276 2.276 0 11-4.552 0 2.276 2.276 0 014.552 0zm17.117 0a2.276 2.276 0 11-4.552 0 2.276 2.276 0 014.552 0zm17.144 0a2.276 2.276 0 11-4.552 0 2.276 2.276 0 014.552 0zm17.146 0a2.276 2.276 0 11-4.552 0 2.276 2.276 0 014.552 0zm17.116 0a2.276 2.276 0 11-4.552 0 2.276 2.276 0 014.552 0zm17.144 0a2.276 2.276 0 11-4.552 0 2.276 2.276 0 014.552 0zm17.145 0a2.276 2.276 0 11-4.552 0 2.276 2.276 0 014.552 0zm-222.767 25.647a2.276 2.276 0 11-4.552 0 2.276 2.276 0 014.552 0zm17.144 0a2.276 2.276 0 11-4.552 0 2.276 2.276 0 014.552 0zm17.117 0a2.276 2.276 0 11-4.552 0 2.276 2.276 0 014.552 0zm17.144 0a2.275 2.275 0 11-4.55.002 2.275 2.275 0 014.55-.002zm17.144 0a2.276 2.276 0 11-4.552 0 2.276 2.276 0 014.552 0zm17.117 0a2.276 2.276 0 11-4.552 0 2.276 2.276 0 014.552 0zm17.145 0a2.276 2.276 0 11-4.552 0 2.276 2.276 0 014.552 0zm17.144 0a2.276 2.276 0 11-4.552 0 2.276 2.276 0 014.552 0zm17.117 0a2.276 2.276 0 11-4.552 0 2.276 2.276 0 014.552 0zm17.144 0a2.276 2.276 0 11-4.552 0 2.276 2.276 0 014.552 0zm17.146 0a2.276 2.276 0 11-4.552 0 2.276 2.276 0 014.552 0zm17.116 0a2.276 2.276 0 11-4.552 0 2.276 2.276 0 014.552 0zm17.144 0a2.276 2.276 0 11-4.552 0 2.276 2.276 0 014.552 0zm17.145 0a2.276 2.276 0 11-4.552 0 2.276 2.276 0 014.552 0zm-222.767 25.661a2.277 2.277 0 11-4.553-.001 2.277 2.277 0 014.553.001zm17.144 0a2.276 2.276 0 11-4.553 0 2.276 2.276 0 014.553 0zm17.117 0a2.277 2.277 0 11-4.553-.001 2.277 2.277 0 014.553.001zm17.144 0a2.276 2.276 0 11-4.552 0 2.276 2.276 0 014.552 0zm17.144 0a2.276 2.276 0 11-4.548 0 2.276 2.276 0 014.548 0zm17.117 0a2.276 2.276 0 11-4.553 0 2.276 2.276 0 014.553 0zm17.145 0a2.276 2.276 0 11-4.553 0 2.276 2.276 0 014.553 0zm17.144 0a2.277 2.277 0 11-4.553-.001 2.277 2.277 0 014.553.001zm17.117 0a2.277 2.277 0 11-4.553-.001 2.277 2.277 0 014.553.001zm17.144 0a2.276 2.276 0 11-4.548 0 2.276 2.276 0 014.548 0zm17.146 0a2.277 2.277 0 11-4.553-.001 2.277 2.277 0 014.553.001zm17.116 0a2.276 2.276 0 11-4.553 0 2.276 2.276 0 014.553 0zm17.144 0a2.277 2.277 0 11-4.553-.001 2.277 2.277 0 014.553.001zm17.145 0a2.276 2.276 0 11-4.553 0 2.276 2.276 0 014.553 0zM557.997 485.29a2.276 2.276 0 11-4.552-.002 2.276 2.276 0 014.552.002zm17.144 0a2.276 2.276 0 11-4.551-.001 2.276 2.276 0 014.551.001zm17.117 0a2.276 2.276 0 11-4.552-.002 2.276 2.276 0 014.552.002zm17.144 0a2.275 2.275 0 11-4.55 0 2.275 2.275 0 014.55 0zm17.144 0a2.276 2.276 0 11-4.551-.001 2.276 2.276 0 014.551.001zm17.117 0a2.276 2.276 0 11-4.551-.001 2.276 2.276 0 014.551.001zm17.145 0a2.276 2.276 0 11-4.551-.001 2.276 2.276 0 014.551.001zm17.144 0a2.276 2.276 0 11-4.552-.002 2.276 2.276 0 014.552.002zm17.117 0a2.276 2.276 0 11-4.552-.002 2.276 2.276 0 014.552.002zm17.144 0a2.276 2.276 0 11-4.551-.001 2.276 2.276 0 014.551.001zm17.146 0a2.276 2.276 0 11-4.552-.002 2.276 2.276 0 014.552.002zm17.116 0a2.276 2.276 0 11-4.551-.001 2.276 2.276 0 014.551.001zm17.144 0a2.276 2.276 0 11-4.552-.002 2.276 2.276 0 014.552.002zm17.145 0a2.276 2.276 0 11-4.551-.001 2.276 2.276 0 014.551.001zm-222.767-25.647a2.276 2.276 0 11-4.552-.002 2.276 2.276 0 014.552.002zm17.144 0a2.276 2.276 0 11-4.551-.001 2.276 2.276 0 014.551.001zm17.117 0a2.276 2.276 0 11-4.552-.002 2.276 2.276 0 014.552.002zm17.144 0a2.275 2.275 0 11-4.55 0 2.275 2.275 0 014.55 0zm17.144 0a2.276 2.276 0 11-4.551-.001 2.276 2.276 0 014.551.001zm17.117 0a2.276 2.276 0 11-4.551-.001 2.276 2.276 0 014.551.001zm17.145 0a2.276 2.276 0 11-4.551-.001 2.276 2.276 0 014.551.001zm17.144 0a2.276 2.276 0 11-4.552-.002 2.276 2.276 0 014.552.002zm17.117 0a2.276 2.276 0 11-4.552-.002 2.276 2.276 0 014.552.002zm17.144 0a2.276 2.276 0 11-4.551-.001 2.276 2.276 0 014.551.001zm17.146 0a2.276 2.276 0 11-4.552-.002 2.276 2.276 0 014.552.002zm17.116 0a2.276 2.276 0 11-4.551-.001 2.276 2.276 0 014.551.001zm17.144 0a2.276 2.276 0 11-4.552-.002 2.276 2.276 0 014.552.002zm17.145 0a2.276 2.276 0 11-4.551-.001 2.276 2.276 0 014.551.001z" opacity=".3"/></svg>